<?xml version="1.0" encoding="UTF-8"?><svg xmlns="http://www.w3.org/2000/svg" width="300" height="300" viewBox="0 0 300 300"><defs><style>.cls-1{fill:#79a3c3;}.cls-1,.cls-2,.cls-3,.cls-4,.cls-5,.cls-6,.cls-7,.cls-8{stroke:#010101;stroke-linecap:round;stroke-linejoin:round;stroke-width:.5px;}.cls-9{stroke:#58595b;stroke-width:.2px;}.cls-9,.cls-5{fill:#fff;}.cls-9,.cls-10{stroke-miterlimit:10;}.cls-2{fill:#e0bcaa;}.cls-3{fill:#91bed4;}.cls-4{fill:#f6aecd;}.cls-6{fill:#f0d0de;}.cls-7{fill:#eccc87;}.cls-8,.cls-10{fill:none;}.cls-10{stroke:#000;}.cls-11,.cls-12,.cls-13{stroke-width:0px;}.cls-12{fill:#27b04b;}.cls-13{fill:#010101;}</style></defs><g id="Grid"><rect class="cls-9" x="29.3" y="29.3" width="241.5" height="241.5"/><line class="cls-9" x1="29.3" y1="258.6" x2="270.7" y2="258.6"/><line class="cls-9" x1="29.3" y1="246.6" x2="270.7" y2="246.6"/><line class="cls-9" x1="29.3" y1="234.5" x2="270.7" y2="234.5"/><line class="cls-9" x1="29.3" y1="222.5" x2="270.7" y2="222.5"/><line class="cls-9" x1="29.3" y1="210.4" x2="270.7" y2="210.4"/><line class="cls-9" x1="29.3" y1="198.3" x2="270.7" y2="198.3"/><line class="cls-9" x1="29.3" y1="186.2" x2="270.7" y2="186.2"/><line class="cls-9" x1="29.3" y1="174.2" x2="270.7" y2="174.2"/><line class="cls-9" x1="29.3" y1="162.1" x2="270.7" y2="162.1"/><line class="cls-9" x1="29.3" y1="150" x2="270.7" y2="150"/><line class="cls-9" x1="29.3" y1="137.9" x2="270.7" y2="137.9"/><line class="cls-9" x1="29.3" y1="125.8" x2="270.7" y2="125.8"/><line class="cls-9" x1="29.3" y1="113.8" x2="270.7" y2="113.8"/><line class="cls-9" x1="29.3" y1="101.7" x2="270.7" y2="101.7"/><line class="cls-9" x1="29.3" y1="89.6" x2="270.7" y2="89.6"/><line class="cls-9" x1="29.3" y1="77.5" x2="270.7" y2="77.5"/><line class="cls-9" x1="29.3" y1="65.5" x2="270.7" y2="65.5"/><line class="cls-9" x1="29.3" y1="53.4" x2="270.7" y2="53.4"/><line class="cls-9" x1="29.3" y1="41.4" x2="270.7" y2="41.4"/><line class="cls-9" x1="258.6" y1="29.3" x2="258.6" y2="270.7"/><line class="cls-9" x1="246.6" y1="29.3" x2="246.6" y2="270.7"/><line class="cls-9" x1="234.5" y1="29.3" x2="234.5" y2="270.7"/><line class="cls-9" x1="222.5" y1="29.3" x2="222.5" y2="270.7"/><line class="cls-9" x1="210.4" y1="29.3" x2="210.4" y2="270.7"/><line class="cls-9" x1="198.3" y1="29.3" x2="198.3" y2="270.7"/><line class="cls-9" x1="186.2" y1="29.3" x2="186.2" y2="270.7"/><line class="cls-9" x1="174.2" y1="29.3" x2="174.2" y2="270.7"/><line class="cls-9" x1="162.1" y1="29.3" x2="162.1" y2="270.7"/><line class="cls-9" x1="150" y1="29.3" x2="150" y2="270.7"/><line class="cls-9" x1="137.9" y1="29.3" x2="137.9" y2="270.7"/><line class="cls-9" x1="125.8" y1="29.3" x2="125.8" y2="270.7"/><line class="cls-9" x1="113.8" y1="29.3" x2="113.8" y2="270.7"/><line class="cls-9" x1="101.7" y1="29.3" x2="101.7" y2="270.7"/><line class="cls-9" x1="89.6" y1="29.3" x2="89.6" y2="270.7"/><line class="cls-9" x1="77.5" y1="29.3" x2="77.5" y2="270.7"/><line class="cls-9" x1="65.5" y1="29.3" x2="65.5" y2="270.7"/><line class="cls-9" x1="53.4" y1="29.3" x2="53.4" y2="270.7"/><line class="cls-9" x1="41.4" y1="29.3" x2="41.4" y2="270.7"/><line class="cls-10" x1="23.9" y1="150" x2="276.1" y2="150"/><polygon class="cls-11" points="24.7 152.5 20.4 150 24.7 147.5 24.7 152.5"/><polygon class="cls-11" points="275.3 152.5 279.6 150 275.3 147.5 275.3 152.5"/><line class="cls-10" x1="150" y1="23.9" x2="150" y2="276.1"/><polygon class="cls-11" points="147.5 24.7 150 20.4 152.5 24.7 147.5 24.7"/><polygon class="cls-11" points="147.5 275.3 150 279.6 152.5 275.3 147.5 275.3"/></g><g id="Lines"><polygon class="cls-12" points="240.9 61.8 243.8 45 228 51.4 232.6 55.1 63.7 266.1 59.1 262.4 56.2 279.3 72 272.8 67.4 269.1 236.3 58.1 240.9 61.8"/></g><g id="Africa"><path class="cls-4" d="M121.2,118.2c.1,6.1,1.8,10.8,2.3,17.5,0,1.1,4.4,4.9,6.2,5.4.7.2,1.3.4,1.9.5,3.1.9,5.4,1.6,7.9,2.2-2.7,1.9-4.4,4.8-3.9,7.9h0c-6-1.7-13.9-4.5-17.5-7.8-.3.6-1.3,2-3.5,4.9-1.2,1.7-3,3.2-3.7,3.3-1,0-3.5-1.3-5-2.2-2.9-1.8-11.3-7.1-13.7-9.4,3.7-7.5,6-11.7,8.7-15.7,2.5-3.7,5.3-7.3,9.9-13.3,2.4-3.5,8.2-5.4,11-6-1.9.7-5.3,2.6-5.9,5.8,3.7.4,7.3,1.5,10.5,3.4-.9.2-1.8.6-2.7,1.1-.2.1-.5.4-.6.6"/><path class="cls-4" d="M123.3,116.2h0c.5.6,4.9,2.4,5.7,3.6.7,1.1,1,2.5.7,3.8,0,.3-.1.5-.2.8,0,.3-.3.8-.4,1,2.6-3.9,6.3-7.2,10.5-9.5-.6-.5-1.3-1-1.9-1.6-.7-.5-.8-.7-1.5-1.3,1.4-1,2.8-1.9,4.3-2.6.1.2,1.2,2.3,1.5,6.1.3,3.6,1.7,16.7,1.7,16.7,1.2.2,3.2.7,7.3,1.2h0c-2.4,1.9-2.6,5.1-1.2,6.9-3.9-.2-7.8-.3-11.9-.2-.8-.6-4.1-10-4.3-13.1-3.1,3.9-8.1,3.9-10.1,7.6-.5-6.7-2.1-11.3-2.3-17.5"/><path class="cls-2" d="M142.8,88.6c-1-4.8-2.6-8.5-5.6-8.6.9,4.1-2.2,8-4.8,9.5-2.1,1.2-7.6,5-8.8,3.1-.3-1.1-1.4-1.5-2.2-1.2-.8.3-1,.6-1.2,1.1-.2.5-.2,1.1-.3,1.6,0,.7.1,1.3.3,2.1.2.7.4,1.4,1.1,1.6.1,0,.3,0,.4,0h0c0,2.2.8,4.3,2.1,6,2.5,3.5,6.8,5.9,8.9,6.3h0c.4,0,.7,0,1.1,0,1.8,0,3.2-.7,4.3-1.7,1.7-1.5,2.8-3.6,3.6-5.3,1.2-2.5,1.6-2.8,2.1-5.6h0c-.3-3-.6-6.3-1.2-9.2ZM135.8,105.5c-1.1,0-3.1.5-5.2-2.4-.4-.5,7.3-.2,8.5-.8-.5,1.7-1.4,3-3.2,3.2Z"/><path class="cls-1" d="M140,153.1h0c-.7.4-1.4.7-2.1,1-9.6,4-17.3,4.4-27.6,6.6,4.8,8,6,12.2,7.3,16.3.3,1,.6,1.9.9,2.9,1.2,3.4-3.6,12.6-9.8,21.9h-.1c-3.1-1.9-7.1-5-9.4-7.9,1.3-3.7,2.8-7,6.1-13.1-2.6-5.6-7.6-9.7-12.1-16.4-3.5-5.2-9.4-9.8-.7-24.1,2.4,2.3,10.8,7.7,13.7,9.4,1.4.9,3.9,2.3,5,2.2.8,0,2.5-1.6,3.7-3.3,2.1-3,3.1-4.3,3.5-4.9,3.6,3.3,11.5,6.1,17.5,8,1.7.5,3.2.9,4.4,1.3Z"/><path class="cls-8" d="M110.2,160.7c-1.2-2-2.7-4.3-4.4-6.9"/><path class="cls-3" d="M108.6,201.8c-1.2,1.7-2.4,3.5-3.6,5.2-.6,0-1.1-.2-1.6-.4-3.1-1-5.3-3.3-6.4-6.4.8-2.5,1.4-4.5,2.1-6.3,2.2,2.8,6.3,6,9.4,7.8h.1Z"/><path class="cls-8" d="M110.2,160.7c0,0-.2,0-.2,0"/><path class="cls-1" d="M150.7,156.6c-1.2,1.5-4,4.6-6.1,7.1h0c0-.1-6.6-3.8-8.9-6.7h-.5c.8-1.1,1.7-2,2.7-2.8h0c.7-.3,1.4-.7,2.1-1h0c1,.2,1.8.4,2.3.6,0-.6,0-1.1.1-1.7h.1c3.2.6,5.9,3.1,8.1,4.5Z"/><path class="cls-3" d="M144.6,163.6c-1.1,1.2-2,2.3-2.5,2.9-.2.3-.8.2-1.6-.2-2.4-1.1-6.4-4.6-7.6-6.1.7-1.2,1.5-2.3,2.3-3.4h.5c2.4,3,8.9,6.6,8.9,6.7h0Z"/><path class="cls-1" d="M155.2,146h0c-3.1.2-6.7.2-9.5,0,.3-.3.5-.5.8-.7-2.8-.5-5-1-7-1.5-2.5-.6-4.8-1.4-7.9-2.2h0c2.1-.2,4.2-.4,6.3-.4,4-.1,8,0,11.9.2.8,0,1.7,0,2.5.2,2,.9,3.2,3.8,2.9,4.5Z"/><line class="cls-8" x1="118.1" y1="143.8" x2="118.1" y2="143.8"/><path class="cls-2" d="M140.5,166.4h0c-4.3,3.8-7.4,5.1-10.4,8.1,0,0,0,0,0,0,0,0-3.9-1.3-5-1.5,3.1-4.1,5.3-8.8,7.9-12.8,1.2,1.5,5.3,5,7.6,6.1Z"/><path class="cls-8" d="M99.1,193.9l-.3-.4"/><path class="cls-8" d="M103.4,206.6s0,0,0,0"/><path class="cls-5" d="M137.5,178.6c-3.6,4.6-6.7,7.3-10.6,6.6-3.9-.7-5.6-4.9-7.1-8.4,0,0,0,0,0-.1-.3-1.4,3.7-4,5.2-3.5,1,.2,4.9,1.5,5,1.5,0,0,0,0,0,0,1.8,5.2,7.6-.3,7.5,4.1Z"/><path class="cls-8" d="M130,174.5s0,0,0,0"/><path class="cls-8" d="M111.3,118.8c1.1,6.5,3.2,16.6,5.1,22.5.3.9.9,1.7,1.8,2.5"/><path class="cls-8" d="M121.2,118.2s0,0,0,0"/><path class="cls-8" d="M135.8,122.6c-.4,2.4-1.2,4.2-2.2,5.5"/><path class="cls-6" d="M158.1,135.2c-.3.2-.6.3-.8.4-.5.3-.6.4-1.3,1.2-.9,1-.9,2.8-.5,4.4,0,.2,0,.4.2.5-1.1,0-2.3-.2-3.4-.2-.8,0-1.7-.1-2.5-.2-1.3-1.8-1.2-5,1.2-6.8h0c1.9.1,4.2.4,7.1.6Z"/><path class="cls-8" d="M140.5,110.4h0"/><path class="cls-2" d="M165.8,143.6c-3,1.4-6.5-3.1-10.3-2.3-.4-1.6-.4-3.4.5-4.4.8-.8.8-1,1.3-1.2,3.8-.2,13.3-2,13.4.4.3,4.8-3.7,7-4.9,7.6Z"/><path class="cls-2" d="M160.4,150.3c-1.9,3.9-1.9,4.6-5.2,7.1-1.3,1-2.8.4-4.4-.7-2.3-1.5-4.9-3.9-8.1-4.5h-.1c.3-2.3,1.5-4.5,3.2-6.1h0c2.8.2,6.4.3,9.5,0,.5,0,1,0,1.5-.1.6,0,1.2,0,1.7.2.7.4,2.4,3.5,2,4.2Z"/><path class="cls-8" d="M143.7,133.2c-1.7-.2-3.2-.2-4.5,1.5"/><path class="cls-6" d="M146.5,145.2c-.3.2-.6.5-.8.7h0c-1.7,1.6-2.8,3.8-3.2,6.1,0,.5-.1,1.1-.1,1.7-.5-.1-1.4-.4-2.3-.6-1.2-.3-2.7-.8-4.4-1.3h0c-.5-3.3,1.2-6.1,3.9-8,2,.5,4.2,1,7,1.5Z"/><path class="cls-8" d="M149.8,141.4s0,0,0,0"/><path class="cls-6" d="M129.7,123.6c.2-1.3,0-2.7-.7-3.8-.8-1.3-5.1-3-5.7-3.6h0c0,0,0,0,0-.1,0-.3.3-.4.6-.6.8-.5,1.7-.9,2.7-1.1-3.2-1.8-6.8-3-10.5-3.4.5-3.2,3.9-5,5.9-5.8,0,0,0,0,0,0,.6-.2,1-.2,1.2-.3,5,7.3,8.4,15.1,6.5,18.6Z"/><path class="cls-2" d="M133.9,110.3h0c-.2,3.1-1.4,9.8-4.4,14.1,0-.3.2-.5.2-.8,1.9-3.5-1.4-11.3-6.5-18.6h0c.4-.3.7-.5.5-1h.1c2.5,3.4,6.8,5.8,8.9,6.2h0c.4,0,.7,0,1.1,0Z"/><path class="cls-8" d="M137.3,94c-.3,1.7.6,3.5,2.2,4.3-.9,1-2.3,1.6-3.6,1.4"/><path class="cls-8" d="M138.3,89.1c1-1.4,3.3-1.6,4.5-.5"/><path class="cls-8" d="M123,97c-.2.6-.6.9-1.2.9"/><path class="cls-7" d="M145.9,117.7c-.1.5-.9.4-.9-.1,0-4.9-.1-8.6-.6-14.3-.1-1.6-.3-3.5-.4-5.5-.3-3-.6-6.3-1.2-9.2-1-4.8-2.6-8.5-5.6-8.6.9,4.1-2.2,8-4.8,9.5-2.1,1.2-7.6,5-8.8,3.1-.3-1.1-1.4-1.5-2.2-1.2-.8.3-1,.6-1.2,1.1-.2.5-.2,1.1-.3,1.6,0,.7.1,1.3.3,2.1.2.7.4,1.4,1.1,1.6.1,0,.3,0,.4,0h0c0,2.2.8,4.3,2.1,6h-.1c.2.6,0,.8-.5,1.1,0-.1-.5,0-1.3.3,0,0,0,0,0,0-2.7.7-8.5,2.6-11,6-4.6,6-7.5,9.6-9.9,13.3-1.9-2.3-.2-6.2,1.4-8.8,2.9-4.9,6.2-7.8,7.5-11.2,2.8-7.4-.3-10.5,4-20.6,3.2-7.8,9.8-10.4,18.4-11.2,4.4-.3,9,2.4,11.8,5.7,2.8,3.2,3.8,10.6,4,14.8.6,13.9-.9,20.4-2.1,24.5Z"/><path class="cls-8" d="M132.9,110.3s0,0-.1,0"/><path class="cls-6" d="M140.4,110.4c-1.5.8-2.9,1.6-4.3,2.6.7.5.8.7,1.5,1.3.6.5,1.3,1.1,1.9,1.6-4.2,2.3-7.9,5.6-10.5,9.5.1-.2.3-.8.4-1,3-4.3,4.2-11,4.4-14.1h0c1.8,0,3.2-.7,4.3-1.7,1.2,0,1.9,1,3,1.5-.2.1-.5.2-.7.4Z"/><path class="cls-8" d="M138.2,108.6h0"/><path class="cls-5" d="M139,102.4c-.5,1.7-1.4,3-3.2,3.2-1.1,0-3.1.5-5.2-2.4-.4-.5,7.3-.2,8.5-.8Z"/><path class="cls-13" d="M130.9,95.6c-.6,0-1.2-.8-1.3-1.8,0-1,.4-1.9,1-2,.6,0,1.2.8,1.3,1.8,0,1-.4,1.9-1,2Z"/><path class="cls-13" d="M141.1,94.9c-.5,0-1-1-1.1-2.2,0-1.3.2-2.3.8-2.4.5,0,1,1,1.1,2.2,0,1.3-.3,2.3-.8,2.4Z"/><path class="cls-5" d="M100.2,224.7c-1,2.7-5,7.1-7.8,7.1-2.2-.5-4.5-1.5-4.9-8.2-.2-3,.3-8.6.6-10.5.1-.9,1.4-2.8,2-3.5.9-.9,2.5-2.6,3.7-2.6h.1c-.5,1.2-1,2.3-1.4,3v.2c0,.6,0,1.2.3,1.8.2.6.7,1.1,1.3,1.2,1,.2,1.9-.6,2.9-.8.7-.1,1.4,0,1.9.6-1.1,8.6,2.2,9,1.2,11.7Z"/><path class="cls-8" d="M93.7,207h0"/><path class="cls-2" d="M103.4,206.7c-1.5,2.4-2,2.9-4.4,6.3-.5-.5-1.2-.7-1.9-.6-1,.2-1.9,1-2.9.8-.6-.1-1.1-.6-1.3-1.2-.2-.6-.3-1.2-.4-1.8v-.2c.4-.7.9-1.8,1.4-3h0c1.1-2.4,2.5-5.3,3.2-6.9,1.1,3.1,3.3,5.4,6.4,6.4Z"/></g></svg>