<?xml version="1.0" encoding="UTF-8"?><svg xmlns="http://www.w3.org/2000/svg" width="300" height="300" viewBox="0 0 300 300"><defs><style>.cls-1{fill:#4a634a;}.cls-1,.cls-2,.cls-3,.cls-4,.cls-5,.cls-6,.cls-7,.cls-8,.cls-9{stroke:#010101;stroke-linecap:round;stroke-linejoin:round;stroke-width:.5px;}.cls-10{stroke:#58595b;stroke-width:.2px;}.cls-10,.cls-8{fill:#fff;}.cls-10,.cls-11{stroke-miterlimit:10;}.cls-2{fill:#abc880;}.cls-3{fill:#231f20;}.cls-4{fill:#1a1a1a;}.cls-5{fill:#6b8d6b;}.cls-6{fill:#875f4d;}.cls-7{fill:#f5d697;}.cls-9,.cls-11{fill:none;}.cls-11{stroke:#000;}.cls-12,.cls-13{stroke-width:0px;}.cls-13{fill:#27b04b;}</style></defs><g id="Grid"><rect class="cls-10" x="29.3" y="29.3" width="241.5" height="241.5"/><line class="cls-10" x1="29.3" y1="258.6" x2="270.7" y2="258.6"/><line class="cls-10" x1="29.3" y1="246.6" x2="270.7" y2="246.6"/><line class="cls-10" x1="29.3" y1="234.5" x2="270.7" y2="234.5"/><line class="cls-10" x1="29.3" y1="222.5" x2="270.7" y2="222.5"/><line class="cls-10" x1="29.3" y1="210.4" x2="270.7" y2="210.4"/><line class="cls-10" x1="29.3" y1="198.3" x2="270.7" y2="198.3"/><line class="cls-10" x1="29.3" y1="186.2" x2="270.7" y2="186.2"/><line class="cls-10" x1="29.3" y1="174.2" x2="270.7" y2="174.2"/><line class="cls-10" x1="29.3" y1="162.1" x2="270.7" y2="162.1"/><line class="cls-10" x1="29.3" y1="150" x2="270.7" y2="150"/><line class="cls-10" x1="29.3" y1="137.9" x2="270.7" y2="137.9"/><line class="cls-10" x1="29.3" y1="125.8" x2="270.7" y2="125.8"/><line class="cls-10" x1="29.3" y1="113.8" x2="270.7" y2="113.8"/><line class="cls-10" x1="29.3" y1="101.7" x2="270.7" y2="101.7"/><line class="cls-10" x1="29.3" y1="89.6" x2="270.7" y2="89.6"/><line class="cls-10" x1="29.3" y1="77.5" x2="270.7" y2="77.5"/><line class="cls-10" x1="29.3" y1="65.5" x2="270.7" y2="65.5"/><line class="cls-10" x1="29.3" y1="53.4" x2="270.7" y2="53.4"/><line class="cls-10" x1="29.3" y1="41.4" x2="270.7" y2="41.4"/><line class="cls-10" x1="258.6" y1="29.3" x2="258.6" y2="270.7"/><line class="cls-10" x1="246.6" y1="29.3" x2="246.6" y2="270.7"/><line class="cls-10" x1="234.5" y1="29.3" x2="234.5" y2="270.7"/><line class="cls-10" x1="222.5" y1="29.3" x2="222.5" y2="270.7"/><line class="cls-10" x1="210.4" y1="29.3" x2="210.4" y2="270.7"/><line class="cls-10" x1="198.3" y1="29.3" x2="198.3" y2="270.7"/><line class="cls-10" x1="186.2" y1="29.3" x2="186.2" y2="270.7"/><line class="cls-10" x1="174.2" y1="29.3" x2="174.2" y2="270.7"/><line class="cls-10" x1="162.1" y1="29.3" x2="162.1" y2="270.7"/><line class="cls-10" x1="150" y1="29.3" x2="150" y2="270.7"/><line class="cls-10" x1="137.9" y1="29.3" x2="137.9" y2="270.7"/><line class="cls-10" x1="125.8" y1="29.3" x2="125.8" y2="270.7"/><line class="cls-10" x1="113.8" y1="29.3" x2="113.8" y2="270.7"/><line class="cls-10" x1="101.7" y1="29.3" x2="101.7" y2="270.7"/><line class="cls-10" x1="89.6" y1="29.3" x2="89.6" y2="270.7"/><line class="cls-10" x1="77.5" y1="29.3" x2="77.5" y2="270.7"/><line class="cls-10" x1="65.5" y1="29.3" x2="65.5" y2="270.7"/><line class="cls-10" x1="53.4" y1="29.3" x2="53.4" y2="270.7"/><line class="cls-10" x1="41.4" y1="29.3" x2="41.4" y2="270.7"/><line class="cls-11" x1="23.9" y1="150" x2="276.1" y2="150"/><polygon class="cls-12" points="24.7 152.5 20.4 150 24.7 147.5 24.7 152.5"/><polygon class="cls-12" points="275.3 152.5 279.6 150 275.3 147.5 275.3 152.5"/><line class="cls-11" x1="150" y1="23.9" x2="150" y2="276.1"/><polygon class="cls-12" points="147.5 24.7 150 20.4 152.5 24.7 147.5 24.7"/><polygon class="cls-12" points="147.5 275.3 150 279.6 152.5 275.3 147.5 275.3"/></g><g id="Lines"><polygon class="cls-13" points="281.1 152.4 292.8 139.9 276 136.6 277.8 142.2 20.7 225.4 18.9 219.8 7.2 232.3 24 235.6 22.2 230 279.3 146.8 281.1 152.4"/></g><g id="Africa"><path class="cls-2" d="M123.2,75.5c.5,4.8.1,5.9,0,11.3,0,1.3-.1,2.6-.6,3.8-.7,1.9-3.1,3.5-4.8,4.6-2,1.3-4.6,1.8-7,1.4-3.6-.5-6.8-2.7-9-5.4-2.1-2.6-3.4-5.7-5.2-8.6-1.8-2.8-2.4-4.1-5.7-5h0c.9-1.5,1.8-2.9,2.8-4.3,2.7-4,2.9-6.2.9-10.6-2.5-5.5-1.2-12.3.2-17,2.7-9,27.4-13.3,29,2.4-.3-1.7-1-3.1-3.1-3.2-2,0-6.5,7.7-6.8,8.6-1.1,3-1.7,4.3-1.7,7.5,0,3.4,2.8,7.9,8.9,8.9.6.1,1.2-.5,1.6-1.2.3,1.7.5,4.2.5,6.6h0Z"/><path class="cls-8" d="M122.5,90.7c.4,2,.2,3.2-.3,4.8"/><path class="cls-8" d="M123.9,49.6c0-.4,0-.8,0-1.1"/><path class="cls-6" d="M124.3,53.9h0c0-.3-.1-.5-.1-.9,0,0,0,0,0,0-.1-.7-.2-.9-.2-2.2s0-1.6-.1-2.3c0,0,0-.1,0-.2-.3-1.7-1-3.1-3.1-3.2-2,0-6.5,7.7-6.8,8.6-1.1,3-1.7,4.3-1.7,7.5,0,3.4,2.8,7.9,8.9,8.9.6.1,1.2-.5,1.6-1.2.3-.4.5-.9.6-1.2.1-.6.3-1.4.5-2.2-1.4-.3-4.3-2.7-4.1-3,1.1.3,3.5.5,4.5.3h0c0-.7.1-1.4.1-2,1.1-.2,2.4-1.1,2.3-2.2-.2-1.7-1.8-2.5-2.4-4.7ZM121.5,55.4c-.2,0-.5-.6-.5-1.4s.2-1.4.5-1.4.5.6.5,1.4-.2,1.4-.5,1.4ZM122.1,50.8c-.3.2-.6.2-1,.2-.4,0-.7,0-1.1,0-.2,0-.5,0-.7-.2-.1-.2,0-.4,0-.5.1-.2.3-.2.5-.3.5-.2,2.6-1.2,2.7,0,0,.3-.2.6-.5.8Z"/><path class="cls-8" d="M124.2,62.8c-.1.9-.3,1.8-.5,2.7-1.4-.3-4.3-2.7-4.1-3,1.1.3,3.5.5,4.5.3h0Z"/><path class="cls-8" d="M124.4,54.7c0-.3,0-.6,0-.8"/><path class="cls-8" d="M124.3,53.9c0-.4,0-.6-.1-.8"/><path class="cls-7" d="M135.1,135.6c-.2,11.3-1.2,38.1-2,45.2,0,.3-.1.5-.2.8-1.2,2.2-5.9,3.9-8,5.1-.9.5-1.7.8-2.6,1.1-4.2,1.2-8.8,0-14,2.3-4.7,2.2-7,4.5-11.1,6.3-3.2,1.4-7.4,2.4-14.8,2.7-1.8,0-3.7-.2-5-1.5-2-2,2.6-23.4,3.5-27.3,8-32.8,6.4-54.4,6.4-54.4,1.6,2.8,3.5,5.4,5.4,7.6,0,0,.2,0,.2,0,1.7,1.5,3.3,2.9,5.5,2.1,2.3-.9,4.9-2.7,4.3-5-.6-2.4-2.1-4.1-4.3-4.3.5-1.1-6.9-12.7-7.9-14.8,0,0,.7-2.8,3.8-6.3,2.1,3.2,3.9,6.6,6.6,9.4,2.8,2.7,7,4.6,10.7,3.4,2.4-.7,4.2-2.6,5.8-4.4h0c-1,3.6-1.6,6.9-2,10.7h.2c.4.5,1.4,1.4,2.8,2.6.2.2.4.4.7.6,3.1,2.9,7.2,6.7,8.4,7.9,0,0,.1.1.2.2s.1.1.1.1c1.3,1.4,2.6,2.7,3.7,4,2,2.4,3.4,4.6,3.4,6.1Z"/><path class="cls-8" d="M115.6,114.1c-.1,1.1-.2,2.3-.4,3.6"/><path class="cls-1" d="M98.8,199.8c0,1.6-11.5,5.3-17.3,6.4-1,.2-2,.5-2.9.2-1.4-.5-2.2-2-2.3-3.5,0-1.5.7-3.9,1.2-5.3,1.3,1.3,3.2,1.6,5,1.5,7.4-.3,11.7-1.3,14.8-2.7,1.2,0,1.5,2.2,1.5,3.4Z"/><path class="cls-1" d="M141.2,184.9c.1,3.3-16.1,7.6-17,7.2-1.2-.5-1.6-3.4-1.8-4.3.9-.2,1.7-.6,2.6-1.1,2-1.2,6.8-2.9,8-5.1,5.9,0,8.3,2.8,8.3,3.2Z"/><path class="cls-9" d="M122.3,187.8s0,0,0,0"/><path class="cls-6" d="M98.6,125.4c-2.1.8-3.8-.6-5.5-2.1,2.2-.7,4.6-5.1,5.4-7.2,2.3.2,3.8,1.9,4.3,4.3.6,2.3-2,4.1-4.3,5Z"/><path class="cls-7" d="M98.5,116.1c-.9,2.1-3.2,6.6-5.4,7.2,0,0-.2,0-.2,0-1.9-2.2-3.8-4.8-5.4-7.6-4.4-7.5-7.4-15.9-6.1-18,1.4-2.3,3-6.5,5.3-9.9,3.3,1.3,5.8,4.1,7.8,7-3.1,3.6-3.8,6.3-3.8,6.3,1,2.2,8.4,13.7,7.9,14.8Z"/><path class="cls-8" d="M86.8,87.8s0,0,0,.1"/><path class="cls-5" d="M122.2,95.5h0c-.2.5-.4,1.1-.6,1.7-.6,1.9-1.9,3.5-3.2,5.1-.3.3-.5.7-.8,1-1.6,1.9-3.4,3.7-5.8,4.4-3.8,1.1-8-.7-10.7-3.4-2.8-2.7-4.5-6.2-6.6-9.4-2-2.9-4.5-5.7-7.8-7-.3-.1-.6-.2-1-.3,1.8-4.1,3.5-7.2,5.1-9.9h0c3.3.9,4,2.2,5.7,5,1.8,2.8,3.1,6,5.2,8.6,2.2,2.7,5.4,4.9,9,5.4,2.4.3,5-.2,7-1.4,1.7-1.1,4.1-2.7,4.8-4.6,0,.6,0,2.5-.3,4.8Z"/><path class="cls-7" d="M130.9,121.7c-.2,1-1.7,2.2-2.9,3.8,0,0,0,0-.1-.1s-.1-.1-.2-.2c-2.9-2.9-6.1-5.8-8.4-7.9-.2-.2-.5-.4-.7-.6-1.6-1.5-2.8-2.6-2.8-2.6h-.2c.5-3.9,1-7.2,2-10.8h0c.3-.4.6-.7.8-1,1.3-1.6,2.6-3.2,3.2-5.1.2-.6.4-1.2.6-1.7-.5,5.2-1.5,12.7-1.5,12.7,2.9,2.5,8.2,9.8,10.1,12.8.1.2.2.5,0,.8Z"/><path class="cls-8" d="M122.7,68.9s0,0,0-.1"/><path class="cls-8" d="M124.4,60.8c-.4,0-.9.1-1.2,0"/><path class="cls-8" d="M93.1,123.4c-.1-.1-.2-.2-.4-.3"/><path class="cls-6" d="M131.7,129.5h0c-1.1-1.3-2.3-2.7-3.7-4,1.2-1.6,2.7-2.8,2.9-3.8h0c.9-.9,3.5,1.9,3.7,3.2.5,2.9-.2,3.5-3,4.6Z"/><path class="cls-3" d="M122,54c0,.8-.2,1.4-.5,1.4s-.5-.6-.5-1.4.2-1.4.5-1.4.5.6.5,1.4Z"/><path class="cls-4" d="M122.7,50.1c0,.3-.2.6-.5.8-.3.2-.6.2-1,.2-.4,0-.7,0-1.1,0-.2,0-.5,0-.7-.2-.1-.2,0-.4,0-.5.1-.2.3-.2.5-.3.5-.2,2.6-1.2,2.7,0Z"/><path class="cls-9" d="M123.2,75.5c0,3.5-.4,6.7-1.7,6.8-4.2,0-11.8-5.3-12.6-13.5"/></g></svg>