<?xml version="1.0" encoding="UTF-8"?><svg xmlns="http://www.w3.org/2000/svg" width="300" height="300" viewBox="0 0 300 300"><defs><style>.cls-1{fill:#282725;}.cls-1,.cls-2,.cls-3,.cls-4,.cls-5,.cls-6,.cls-7,.cls-8{stroke-linecap:round;stroke-linejoin:round;stroke-width:.5px;}.cls-1,.cls-2,.cls-3,.cls-4,.cls-5,.cls-6,.cls-7,.cls-8,.cls-9{stroke:#000;}.cls-10{stroke:#58595b;stroke-width:.2px;}.cls-10,.cls-5{fill:#fff;}.cls-10,.cls-9{stroke-miterlimit:10;}.cls-2{fill:#e1e1d9;}.cls-3{fill:#99b8cd;}.cls-4{fill:#8d6754;}.cls-6{fill:#eaeaea;}.cls-7,.cls-9{fill:none;}.cls-11,.cls-12{stroke-width:0px;}.cls-12{fill:#27b04b;}</style></defs><g id="Grid"><rect class="cls-10" x="29.3" y="29.3" width="241.5" height="241.5"/><line class="cls-10" x1="29.3" y1="258.6" x2="270.7" y2="258.6"/><line class="cls-10" x1="29.3" y1="246.6" x2="270.7" y2="246.6"/><line class="cls-10" x1="29.3" y1="234.5" x2="270.7" y2="234.5"/><line class="cls-10" x1="29.3" y1="222.5" x2="270.7" y2="222.5"/><line class="cls-10" x1="29.3" y1="210.4" x2="270.7" y2="210.4"/><line class="cls-10" x1="29.3" y1="198.3" x2="270.7" y2="198.3"/><line class="cls-10" x1="29.3" y1="186.2" x2="270.7" y2="186.2"/><line class="cls-10" x1="29.3" y1="174.2" x2="270.7" y2="174.2"/><line class="cls-10" x1="29.3" y1="162.1" x2="270.7" y2="162.1"/><line class="cls-10" x1="29.3" y1="150" x2="270.7" y2="150"/><line class="cls-10" x1="29.3" y1="137.9" x2="270.7" y2="137.9"/><line class="cls-10" x1="29.3" y1="125.8" x2="270.7" y2="125.8"/><line class="cls-10" x1="29.3" y1="113.8" x2="270.7" y2="113.8"/><line class="cls-10" x1="29.3" y1="101.7" x2="270.7" y2="101.7"/><line class="cls-10" x1="29.3" y1="89.6" x2="270.7" y2="89.6"/><line class="cls-10" x1="29.3" y1="77.5" x2="270.7" y2="77.5"/><line class="cls-10" x1="29.3" y1="65.5" x2="270.7" y2="65.5"/><line class="cls-10" x1="29.3" y1="53.4" x2="270.7" y2="53.4"/><line class="cls-10" x1="29.3" y1="41.4" x2="270.7" y2="41.4"/><line class="cls-10" x1="258.6" y1="29.3" x2="258.6" y2="270.7"/><line class="cls-10" x1="246.6" y1="29.3" x2="246.6" y2="270.7"/><line class="cls-10" x1="234.5" y1="29.3" x2="234.5" y2="270.7"/><line class="cls-10" x1="222.5" y1="29.3" x2="222.5" y2="270.7"/><line class="cls-10" x1="210.4" y1="29.3" x2="210.4" y2="270.7"/><line class="cls-10" x1="198.3" y1="29.3" x2="198.3" y2="270.7"/><line class="cls-10" x1="186.2" y1="29.3" x2="186.2" y2="270.7"/><line class="cls-10" x1="174.2" y1="29.3" x2="174.2" y2="270.7"/><line class="cls-10" x1="162.1" y1="29.3" x2="162.1" y2="270.7"/><line class="cls-10" x1="150" y1="29.3" x2="150" y2="270.7"/><line class="cls-10" x1="137.9" y1="29.3" x2="137.9" y2="270.7"/><line class="cls-10" x1="125.8" y1="29.3" x2="125.8" y2="270.7"/><line class="cls-10" x1="113.8" y1="29.3" x2="113.8" y2="270.7"/><line class="cls-10" x1="101.7" y1="29.3" x2="101.7" y2="270.7"/><line class="cls-10" x1="89.6" y1="29.3" x2="89.6" y2="270.7"/><line class="cls-10" x1="77.5" y1="29.3" x2="77.5" y2="270.7"/><line class="cls-10" x1="65.5" y1="29.3" x2="65.5" y2="270.7"/><line class="cls-10" x1="53.4" y1="29.3" x2="53.4" y2="270.7"/><line class="cls-10" x1="41.4" y1="29.3" x2="41.4" y2="270.7"/><line class="cls-9" x1="23.9" y1="150" x2="276.1" y2="150"/><polygon class="cls-11" points="24.7 152.5 20.4 150 24.7 147.5 24.7 152.5"/><polygon class="cls-11" points="275.3 152.5 279.6 150 275.3 147.5 275.3 152.5"/><line class="cls-9" x1="150" y1="23.9" x2="150" y2="276.1"/><polygon class="cls-11" points="147.5 24.7 150 20.4 152.5 24.7 147.5 24.7"/><polygon class="cls-11" points="147.5 275.3 150 279.6 152.5 275.3 147.5 275.3"/></g><g id="Lines"><polygon class="cls-12" points="192.2 25.7 197.7 27.9 195.6 10.9 182.3 21.6 187.7 23.9 86.1 274.3 80.7 272.1 82.7 289.1 96 278.4 90.6 276.1 192.2 25.7"/></g><g id="Latin"><path class="cls-4" d="M141.6,149.8c-.3,1.8-.8,3.7-2,5.2-1,1.2-2.6,1.1-4.1.7-.4-.1-.9-.2-1.3-.4-2.1-.7-6.9-6.8-6.9-6.8h0c.9-3.2,1.5-4.3,4.2-4.7,1.3.2,1.4-.5,3.5-.6,2.1,0,4.5-.7,5.8.7,1.4,1.5,1.3,3.8.9,5.9Z"/><path class="cls-4" d="M175.4,66.7c-.3,2-4.1,2.2-6.2,3h-.3c-.4-1.1-1.4-2-3.7-2.8,1.8-2.2.3-3.6,2.5-5.5,1.2-1.1,5.5-1.1,6.8.5.8,1,1,3.6.8,4.8Z"/><path class="cls-2" d="M127.8,138.6c2,2.7,3.4,4.7,3.6,5.1-2.7.4-3.4,1.5-4.2,4.7,0,.3-.2.6-.3,1-2.3-1.2-5-3.5-7.8-6.2-2-1.9-4-4.1-5.9-6.2-4.9-5.6-9.2-11.4-10.7-14.2-.3-.6-.5-1-.6-1.3-.2-.9,0-2.7.4-5.1.6-3.4,1.7-8,2.9-13.4,3-13.2,3.2-13.2,7.5-17.6,1.4-1.9,7.6-.6,10.3,2.2h0c5.5,5.7,5.7,3.8,9.5,10.4.9,6.9-2.7,10.2-5.6,16.4,0,0,0,0,0,0-4,2.2-7.6,2.1-12.2,1.9-.4,1.3-.7,2.2-.6,2.5.3,1.2,4.9,7.7,9.2,13.7,1.6,2.2,3.1,4.3,4.4,6.1Z"/><path class="cls-7" d="M120.2,98.2c-.9,6.5-4,14.1-5.4,18.1"/><path class="cls-2" d="M127,114.3c-1,2.1-1.9,4.5-2.6,7.6,0,0,0,0,0,0-.6,2.9-1,6.4-1,10.6-4.4-6-9-12.5-9.2-13.7,0-.3.2-1.2.6-2.5,4.6.2,8.2.3,12.2-1.9Z"/><path class="cls-2" d="M113.2,137c-4.8-1.5-8.7-2.5-13.5-4-.1.4,2.5-10,2.5-10.1h.2c1.5,2.7,5.8,8.5,10.7,14.1Z"/><path class="cls-3" d="M125.5,168.6c-.4,1.8-.9,3.5-1.3,5.2-3,11.8-5.8,21.9-10.9,32.7-1,0-2.2-.3-3.5-.8-3.4-1.1-7.6-3.2-11-5.3-1.9-1.2-3.5-2.3-4.5-3.1,2.6-12,10.5-22.4,12.4-34.5-1.7-7.3-1-6.2-4.3-13-3.3-6.8-3-9.7-2.7-16.8,4.8,1.5,8.7,2.5,13.5,4,1.9,2.2,3.9,4.3,5.9,6.2,1.7,5.2,3.3,11,4.6,16.5.7,3.1,1.3,6.1,1.8,8.8Z"/><path class="cls-7" d="M102.2,122.9h0"/><path class="cls-6" d="M109.9,214.8c0,1.8-1.2,2.1-3,2.8-1.4.5-8.4-1.1-9.6-6.7-1-4.6.3-5.9,1.4-10.5,3.3,2,7.6,4.2,11,5.3-.9,1.5.2,7.4.2,9.1Z"/><path class="cls-3" d="M147.6,123.6c-1.2,5.3-5.7,15-6.9,20.3-1.3-1.4-3.7-.8-5.8-.7-2,0-2.2.8-3.5.6-.2-.4-1.6-2.4-3.6-5.1-1.3-1.8-2.9-3.9-4.4-6.1,0-4.2.4-7.7,1-10.6,0,0,0,0,0,0,1.9-2.8,15.4-12.3,18.9-12.2,1.7,0,4.3,3,5.3,4.3.8,1,0,6.6-1,9.6Z"/><path class="cls-2" d="M169.2,71.9c-1.4.8-20.3,14.1-23.7,15.6-2.5,1.1-7.9,2-13.8,6.4-.7-2.3-1.8-5-3.4-8.1-.4-2.4-.4-2.2-.7-3.4,6.1-2.4,12.5-3.6,14.3-4.6,5.3-3,22.6-10.5,23.3-11,2.3.9,3.3,1.8,3.7,2.9.2.6.3,1.3.3,2.1Z"/><path class="cls-7" d="M131.7,94s0,0,0,0"/><path class="cls-7" d="M132.7,98.2c0,0-.1-.2-.1-.2"/><path class="cls-7" d="M123.1,87.4s0,0-.1-.1"/><path class="cls-4" d="M131.7,94c-.7-2.3-1.8-5-3.4-8.1-.4-2.4-.4-2.2-.7-3.4-.1-.7-.3-1.8-.6-3.9,1.9-.4,4.2-.7,5.2-3.8,1-3-.2-9.3-1.8-11.9-1-1.5-3-2.9-3.8-5.3-.5-1.4-.8-1.9-2.1-3.4,0-.2-.2-.4-.3-.7-2.1-1.3-4.6-2.1-7.1-2,.7,1.6,1,3.4,1,5.1.2,0,.3.1.5.2.4.2.8.7.8,1.2,0,.4-.4.7-.7.9-.3.2-.5.2-.8.3-.2.9-.6,1.8-1,2.7-1.6,3.2-4.6,5.6-8.1,6.4-.5-.3-1.4,0-1.8.4-.5.4-.7,1.1-.6,1.8,0,.6.3,1.2.7,1.8.6.9,2.7,2.4,3.8,2.7.4,0,.8,0,1.1,0h0c.6,1.6,1.1,2.2.7,3.8h-.3c1.6,2.1.8,4.2.5,6.8,1.4-1.9,7.6-.6,10.3,2.2h0c5.5,5.7,5.7,3.8,9.5,10.4-.2-1.2-.5-2.5-.9-4ZM125.3,58.4c.3-.2.9.3,1.3,1,.4.7.6,1.5.3,1.7-.3.2-.9-.3-1.3-1-.4-.8-.6-1.5-.3-1.7ZM120.2,65.1c-.3.2-.9-.2-1.4-1-.4-.7-.5-1.5-.2-1.7.3-.2.9.2,1.4,1,.4.7.5,1.5.2,1.7ZM123.1,56.1c-.5.2-1.1-.2-1.4-.7-.3-.4-.6-1-.4-1.4.5-1.5,3.5-.5,3.2.6,0,.2-.3.3-.4.4-.4.3-.5.9-1,1.1ZM123.9,71.4c1.6-.4,5.4-2.5,6.5-3.5.6.9.6,3.1-1.7,4.5-1.8,1.2-4.7-.6-4.8-1.1Z"/><path class="cls-7" d="M117.9,78.4c1.6.4,7.4.4,9,0"/><path class="cls-1" d="M119.2,57.8c0,.4-.4.7-.7.9-.3.2-.5.2-.8.3.2-.9.3-1.8.3-2.7.2,0,.3.1.5.2.4.2.8.7.8,1.2Z"/><path class="cls-1" d="M117,51.3c.7,1.6,1,3.4,1,5.1,0,.9-.1,1.8-.3,2.7-.2.9-.6,1.8-1,2.7-1.6,3.2-4.6,5.6-8.1,6.4-.5-.3-1.4,0-1.8.4-.5.4-.7,1.1-.6,1.8,0,.6.3,1.2.7,1.8.6.9,2.7,2.4,3.8,2.7.4,0,.8,0,1.1,0h0c.6,1.6,1.1,2.2.7,3.8h-.3c0,0,0,0,0,0-1.5,0-2.9-.2-4.2-.5h0c-2.3-.5-4.3-1.3-6.7-3.3-2.4-1.9-4.8-7.3-4.8-10.6,0-3.8,2.1-7.5,4.2-10.6,2.5-3.7,9.1-6.9,13.5-6.5,4.1.3,8.5,3.6,9.9,6.2-2.1-1.3-4.6-2.1-7.1-2Z"/><path class="cls-3" d="M135.5,155.7c-.5,2.1-3,8.1-3.6,8.5-.7.5-1.8.4-2.6.2-2.6-.7-4.4-2.4-5.6-4.6-1.3-5.5-2.9-11.3-4.6-16.5,2.8,2.7,5.6,5,7.8,6.2,0-.4.2-.7.3-1h0s4.9,6.2,6.9,6.9c.4.1.9.3,1.3.4Z"/><path class="cls-6" d="M129.8,169.8c-.7,2.1-3.3,3.2-5.5,4h-.1c.4-1.7.9-3.5,1.3-5.2-.5-2.7-1.1-5.7-1.8-8.8,1.3,2.2,3,3.9,5.6,4.6,1.4,1.8,1.2,3.3.6,5.5Z"/><path class="cls-7" d="M137.5,122.1c-3.4,7.1-5.2,9.2-9.6,16.6"/><path class="cls-7" d="M128.3,86c0,0,0-.1,0-.1"/><path class="cls-7" d="M128.6,63.7c2,2.2-2.2,4.5-2.8,4.5"/><path class="cls-8" d="M120.2,65.1c-.3.2-.9-.2-1.4-1-.4-.7-.5-1.5-.2-1.7.3-.2.9.2,1.4,1,.4.7.5,1.5.2,1.7Z"/><path class="cls-8" d="M126.9,61.1c-.3.2-.9-.3-1.3-1-.4-.8-.6-1.5-.3-1.7.3-.2.9.3,1.3,1,.4.7.6,1.5.3,1.7Z"/><path class="cls-5" d="M128.7,72.5c-1.8,1.2-4.7-.6-4.8-1.1,1.6-.4,5.4-2.5,6.5-3.5.6.9.6,3.1-1.7,4.5Z"/><path class="cls-7" d="M113.2,73.7c-.3.6-.8,1-1.4,1.1"/><path class="cls-7" d="M108.8,68.2s0,0,0,0"/><path class="cls-7" d="M114.8,116.3h0"/><path class="cls-1" d="M124.6,54.5c0,.2-.3.3-.4.4-.4.3-.5.9-1,1.1-.5.2-1.1-.2-1.4-.7-.3-.4-.6-1-.4-1.4.5-1.5,3.5-.5,3.2.6Z"/><path class="cls-7" d="M108.7,68.2c0,0-.1,0-.2,0"/><path class="cls-1" d="M112.7,85.4c-4.2,4.4-4.5,4.4-7.5,17.6-1.2,5.4-2.3,10-2.9,13.4-.7,1.1-2.2-.7-3-1.8-.8-1,0-6.1,0-7.4.4-6.9,2.4-13.7,5.8-19.7.9-1.6,1.9-3.2,2.5-4.9.5-1.5.7-3.1.3-4.6,1.3.2,2.7.4,4.2.5v.2c1.6,2,.8,4.1.6,6.7Z"/><path class="cls-7" d="M107.9,78h0c0-.3-.1-.5-.2-.8"/></g></svg>