<?xml version="1.0" encoding="UTF-8"?><svg xmlns="http://www.w3.org/2000/svg" width="300" height="300" viewBox="0 0 300 300"><defs><style>.cls-1{fill:#484848;}.cls-1,.cls-2,.cls-3,.cls-4,.cls-5,.cls-6,.cls-7,.cls-8{stroke:#010101;stroke-linecap:round;stroke-linejoin:round;stroke-width:.5px;}.cls-2{fill:#2b2c2b;}.cls-3{fill:#493a39;}.cls-9{stroke:#58595b;stroke-width:.2px;}.cls-9,.cls-7{fill:#fff;}.cls-9,.cls-10{stroke-miterlimit:10;}.cls-4{fill:#dc9f72;}.cls-5{fill:#cdad91;}.cls-6{fill:#e7d1c0;}.cls-8,.cls-10{fill:none;}.cls-10{stroke:#000;}.cls-11,.cls-12{stroke-width:0px;}.cls-12{fill:#27b04b;}</style></defs><g id="Grid"><rect class="cls-9" x="29.3" y="29.3" width="241.5" height="241.5"/><line class="cls-9" x1="29.3" y1="258.6" x2="270.7" y2="258.6"/><line class="cls-9" x1="29.3" y1="246.6" x2="270.7" y2="246.6"/><line class="cls-9" x1="29.3" y1="234.5" x2="270.7" y2="234.5"/><line class="cls-9" x1="29.3" y1="222.5" x2="270.7" y2="222.5"/><line class="cls-9" x1="29.3" y1="210.4" x2="270.7" y2="210.4"/><line class="cls-9" x1="29.3" y1="198.3" x2="270.7" y2="198.3"/><line class="cls-9" x1="29.3" y1="186.2" x2="270.7" y2="186.2"/><line class="cls-9" x1="29.3" y1="174.2" x2="270.7" y2="174.2"/><line class="cls-9" x1="29.3" y1="162.1" x2="270.7" y2="162.1"/><line class="cls-9" x1="29.3" y1="150" x2="270.7" y2="150"/><line class="cls-9" x1="29.3" y1="137.9" x2="270.7" y2="137.9"/><line class="cls-9" x1="29.3" y1="125.8" x2="270.7" y2="125.8"/><line class="cls-9" x1="29.3" y1="113.8" x2="270.7" y2="113.8"/><line class="cls-9" x1="29.3" y1="101.7" x2="270.7" y2="101.7"/><line class="cls-9" x1="29.3" y1="89.6" x2="270.7" y2="89.6"/><line class="cls-9" x1="29.3" y1="77.5" x2="270.7" y2="77.5"/><line class="cls-9" x1="29.3" y1="65.5" x2="270.7" y2="65.5"/><line class="cls-9" x1="29.3" y1="53.4" x2="270.7" y2="53.4"/><line class="cls-9" x1="29.3" y1="41.4" x2="270.7" y2="41.4"/><line class="cls-9" x1="258.6" y1="29.3" x2="258.6" y2="270.7"/><line class="cls-9" x1="246.6" y1="29.3" x2="246.6" y2="270.7"/><line class="cls-9" x1="234.5" y1="29.3" x2="234.5" y2="270.7"/><line class="cls-9" x1="222.5" y1="29.3" x2="222.5" y2="270.7"/><line class="cls-9" x1="210.4" y1="29.3" x2="210.4" y2="270.7"/><line class="cls-9" x1="198.3" y1="29.3" x2="198.3" y2="270.7"/><line class="cls-9" x1="186.2" y1="29.3" x2="186.2" y2="270.7"/><line class="cls-9" x1="174.2" y1="29.3" x2="174.2" y2="270.7"/><line class="cls-9" x1="162.1" y1="29.3" x2="162.1" y2="270.7"/><line class="cls-9" x1="150" y1="29.3" x2="150" y2="270.7"/><line class="cls-9" x1="137.9" y1="29.3" x2="137.9" y2="270.7"/><line class="cls-9" x1="125.8" y1="29.3" x2="125.8" y2="270.7"/><line class="cls-9" x1="113.8" y1="29.3" x2="113.8" y2="270.7"/><line class="cls-9" x1="101.7" y1="29.3" x2="101.7" y2="270.7"/><line class="cls-9" x1="89.6" y1="29.3" x2="89.6" y2="270.7"/><line class="cls-9" x1="77.5" y1="29.3" x2="77.5" y2="270.7"/><line class="cls-9" x1="65.5" y1="29.3" x2="65.5" y2="270.7"/><line class="cls-9" x1="53.4" y1="29.3" x2="53.4" y2="270.7"/><line class="cls-9" x1="41.4" y1="29.3" x2="41.4" y2="270.7"/><line class="cls-10" x1="23.9" y1="150" x2="276.1" y2="150"/><polygon class="cls-11" points="24.7 152.5 20.4 150 24.7 147.5 24.7 152.5"/><polygon class="cls-11" points="275.3 152.5 279.6 150 275.3 147.5 275.3 152.5"/><line class="cls-10" x1="150" y1="23.9" x2="150" y2="276.1"/><polygon class="cls-11" points="147.5 24.7 150 20.4 152.5 24.7 147.5 24.7"/><polygon class="cls-11" points="147.5 275.3 150 279.6 152.5 275.3 147.5 275.3"/></g><g id="Lines"><polygon class="cls-12" points="240.9 61.8 243.8 45 228 51.4 232.6 55.1 63.7 266.1 59.1 262.4 56.2 279.3 72 272.8 67.4 269.1 236.3 58.1 240.9 61.8"/></g><g id="Asia"><path class="cls-5" d="M151,157c-1.9,2.4-7.4,8.4-8.8,10.2-.8,1.1-8.2,9.7-10.9,9.8-.2,0-.5-.1-.7-.3,0,0-4.9-2.7-5.9-2.9,5.1-6.6,7.8-15,13.2-19.3h0c.7-.4,1.4-.7,2.2-1h0c1,.2,1.8.5,2.4.6,0-.6,0-1.2.1-1.7h.1c3.3.7,6,3.1,8.3,4.6Z"/><path class="cls-5" d="M155.6,146.2h0c-3.2.2-6.8.2-9.7,0,.3-.3.6-.5.9-.7-6.4-1.1-9.5-2.2-15.2-3.8h0c2.1-.2,4.3-.4,6.4-.4,5-.2,9.8,0,14.7.4,2,.9,3.2,3.8,3,4.6Z"/><path class="cls-5" d="M140.1,153.4h0c-.7.4-1.5.7-2.2,1-9.8,4.1-17.6,4.5-28.2,6.7,4.9,8.1,6.2,12.5,7.4,16.7.3,1,.6,1.9.9,3,1.4,4.1-11.3,19.9-19.4,31.1-4-.6-6.5-2.3-7.8-6,2.4-7.7,8.7-14.8,13.7-24.2-2.7-5.8-7.7-9.9-12.4-16.7-3.6-5.3-9.6-9.9-.7-24.6,2.5,2.4,11,7.8,14,9.6.3.2.6.4.9.6,1.4.8,3.3,1.8,4.1,1.7.8,0,2.6-1.7,3.8-3.4,2.2-3,3.2-4.4,3.5-5h0c4.7,4.3,16.6,7.8,22.3,9.4Z"/><path class="cls-3" d="M117.8,144h0c-.3.6-1.4,2-3.5,5-1.2,1.7-3,3.3-3.8,3.4-.9,0-2.7-.9-4.1-1.7l.2-.4c3-3.8,5.9-7.7,8.6-11.7.3,1,.5,1.9.8,2.8.3.9.9,1.7,1.9,2.6Z"/><path class="cls-3" d="M115.1,138.6c-2.7,4-5.6,7.9-8.6,11.7l-.2.4c-.3-.2-.6-.4-.9-.6-2.9-1.8-11.5-7.3-14-9.6,12.9-16.1,11-18.7,18-30.5-.7,2.8.8,5.6,1.3,8.5,1,5.7,2.7,14.1,4.4,20.2Z"/><path class="cls-3" d="M135.6,118.4c-.9,1.9-1.8,3.6-2.9,5.1-3.4,5-7.4,8.2-9.5,12-.2-2.3-.4-4.3-.8-6.2h.3c3.9-4.6,6.9-9.4,9.2-14.9,2.2-.5,4.8-3.3,4.2-5.1h0c.4-.2.7-.3,1.1-.6h0c.7,1.5-1,8.1-1.7,9.7Z"/><path class="cls-6" d="M158.6,135.1c-.4.2-.6.3-.8.4-.5.3-.6.5-1.3,1.3-1,1.1-.9,2.9-.5,4.5h0c0,.2,0,.4.2.5-1.2,0-2.3-.2-3.5-.3-4.8-.3-9.7-.5-14.7-.4-.8-.6-5-14.5-5.2-17.7h0c1.1-1.5,2.1-3.2,2.9-5.1.7-1.7,2.4-8.2,1.7-9.7h0c.8-.5,1.4-1.1,2-1.8,0,0,2.5,5.1,2.8,9.1.2,3.6,1.8,17,1.8,17,1.8.2,5.5,1.3,14.7,2Z"/><path class="cls-3" d="M132,114.4c-2.3,5.5-5.3,10.3-9.2,14.9h-.3c-.7-3.9-1.4-7.4-1.5-11.5.2-.2.4-3.1.6-3.3.5-4.7-.5-6.8-2.9-8.9-1.1-1-2.6-1.8-4.1-1.4h0c3.6-2.3,7.6-2.2,8.2-2.4,1.2,2.4,3.3,4.4,5.3,5.8h0c.5.9,1.1,1.8,1.8,2.5.7.7,1.7,1.2,2.7,1.3,1,0,2.1-.5,2.4-1.5,0,0,0,0,.2-.1h0c.4,0,.8-.2,1.2-.3h0c.6,1.8-2,4.7-4.2,5.2Z"/><path class="cls-4" d="M143.2,82.4c-1.7-1.7-4-3.1-6.4-3.1-3.1,0-5.2.2-7.9.7-.9.2-4.2,1.4-4.8,6.3-.2,1.9-.5,3.9-.4,5.8,0,.5,0,1-.2,1.4-.2.4-.8.7-1.2.4-.3-.2-.3-.6-.4-1,0-.3-.4-.6-.7-.6-.7-.3-1.5,0-1.9.6-.4.6-.5,1.4-.4,2.2.1,1,.6,1.9,1.2,2.6.3.4.8.8,1.2,1.1h.2c.2,1,.5,2,1,2.9,1.2,2.4,3.3,4.4,5.3,5.8,1.8,1.2,3.6,2,4.7,2.3h0c.9,0,1.6,0,2.3,0h0c.4,0,.8-.2,1.2-.3.4-.2.7-.3,1.1-.5.8-.5,1.4-1.1,2-1.8,1.2-1.4,2-3,2.6-4.3,1.2-2.6,1.6-2.9,2.2-5.7.3-1.3.5-2.7.6-4.1.4-4.5,0-9.1-1.4-10.4ZM127.1,88.6c-.1-.3,0-.6.1-.8.2-.2.4-.4.7-.5,1.1-.7,2.5-1,3.8-1,.8,0,.7,0,.9.7.1.4.4,1.2,0,1.5-.3.2-.7,0-1.1,0-1.4-.4-3-.4-4.4,0ZM135.8,104.9c-1.1,0-3.2.6-5.3-2.4-.4-.5,7.4-.2,8.6-.8-.5,1.8-1.4,3-3.3,3.2ZM143.4,88.3c-.1,0-.3,0-.5,0-1.1-.3-2.3-.3-3.5,0-.2,0-.5.1-.7,0-.4-.1-.5-.6-.5-1,0-.7,0-1,.5-1.2.4-.2,1.2,0,1.6,0,1,.2,2.1.6,2.8,1.3.1.1.2.2.3.4,0,.1,0,.3-.1.4Z"/><path class="cls-8" d="M109.7,161.2c-1.2-2.1-2.7-4.4-4.5-7.1"/><path class="cls-8" d="M109.7,161.2c0,0-.2,0-.2,0"/><path class="cls-1" d="M137.6,179.4c-3.7,4.7-6.8,7.4-10.8,6.7s-5.7-5-7.2-8.6c0,0,0,0,0-.1-.3-1.4,3.8-4,5.3-3.6,1.1.2,5.9,2.9,5.9,2.9.2.2.4.3.7.3,3.5,1.1,6.2-1.8,6.2,2.4Z"/><path class="cls-8" d="M109.6,109.4c0,.2-.1.3-.1.5"/><path class="cls-6" d="M146.7,145.4c-.3.2-.6.5-.9.7-1.8,1.6-2.9,3.9-3.2,6.2,0,.6-.1,1.1-.1,1.7-.6-.2-1.4-.4-2.4-.7-5.8-1.6-17.6-5.1-22.3-9.4-.9-.8-1.6-1.7-1.9-2.6-.3-.9-.5-1.8-.8-2.8-1.7-6.1-3.4-14.5-4.4-20.2-.5-2.9-2-5.7-1.3-8.5t0,0c.3-.5.6-1,1-1.6,1-2,2.5-3.4,4-4.3h0c1.5-.3,3,.5,4.1,1.5,2.4,2.2,3.4,4.2,2.9,8.9-.2.2-.4,3.1-.6,3.3,0,4.2.9,7.7,1.5,11.6.3,1.9.6,4,.8,6.2,0,1.1,4.5,5,6.4,5.5.7.2,1.3.4,2,.5,5.7,1.6,8.7,2.7,15.2,3.8Z"/><path class="cls-4" d="M166.4,143.7c-3.1,1.4-6.6-3.2-10.5-2.4h0c-.4-1.7-.4-3.5.5-4.5.8-.8.8-1,1.3-1.3,3.9-.2,13.6-2,13.7.4.3,4.9-3.7,7.2-5.1,7.8Z"/><path class="cls-4" d="M160.9,150.5c-1.9,4-1.9,4.7-5.3,7.2-1.4,1-2.9.4-4.6-.7-2.3-1.5-5-4-8.3-4.6h-.1c.3-2.4,1.5-4.6,3.2-6.2,2.9.2,6.5.3,9.7,0,.5,0,1,0,1.5-.1.6,0,1.2-.1,1.7.2.7.4,2.4,3.5,2.1,4.3Z"/><path class="cls-8" d="M143.9,133.1c-1.7-.2-3.3-.2-4.6,1.5"/><path class="cls-8" d="M139.1,95.7c.5,3.2-1.3,3.9-3.1,3.3"/><path class="cls-7" d="M139.1,101.7c-.5,1.8-1.4,3-3.3,3.2-1.1,0-3.2.6-5.3-2.4-.4-.5,7.4-.2,8.6-.8Z"/><path class="cls-8" d="M132.9,109.7c0,0-.1,0-.2,0"/><path class="cls-8" d="M121.6,98.8c-.1-.5-.1-1.1-.1-1.7"/><path class="cls-11" d="M130.6,94.7c-.6,0-1.2-.8-1.3-1.8,0-1.1.4-2,1-2,.6,0,1.2.8,1.3,1.8,0,1.1-.4,2-1,2Z"/><path class="cls-11" d="M141.1,94c-.5,0-1-.8-1.1-1.8,0-1,.3-1.9.8-2,.5,0,1,.8,1.1,1.8,0,1-.3,1.9-.8,2Z"/><path class="cls-1" d="M99.9,222.8c-1,2.8-5.1,7.3-8,7.3-2.2-.5-4.6-1.5-5-8.3-.2-3,.3-8.8.6-10.7.1-.9,2.8-4.4,3.4-5.1,1.3,3.6,3.8,5.3,7.8,6-1.1,8.8,2.2,8.1,1.2,10.9Z"/><path class="cls-2" d="M143.4,88.3c-.1,0-.3,0-.5,0-1.1-.3-2.3-.3-3.5,0-.2,0-.5.1-.7,0-.4-.1-.5-.6-.5-1,0-.7,0-1,.5-1.2.4-.2,1.2,0,1.6,0,1,.2,2.1.6,2.8,1.3.1.1.2.2.3.4,0,.1,0,.3-.1.4Z"/><path class="cls-2" d="M132.5,88.5c-.3.2-.7,0-1.1,0-1.4-.4-3-.4-4.4,0-.1-.3,0-.6.1-.8.2-.2.4-.4.7-.5,1.1-.7,2.5-1,3.8-1,.8,0,.7,0,.9.7.1.4.4,1.2,0,1.5Z"/><path class="cls-8" d="M135.1,109.5s0,0-.1,0"/><path class="cls-4" d="M135,109.6c0,0,0,0-.2.1-.3,1-1.4,1.5-2.4,1.5-1,0-2-.6-2.7-1.3-.7-.7-1.3-1.6-1.8-2.5h0c1.8,1.2,3.6,2,4.7,2.2h0c.9,0,1.6,0,2.3,0Z"/><path class="cls-8" d="M124.1,107.5c.8,1.4,3.4,8.6,7.9,6.9"/><path class="cls-8" d="M115.3,138.3c0,0-.1.2-.2.3"/><path class="cls-8" d="M121.4,92.3s0,0-.1,0"/><path class="cls-8" d="M121.3,92.3s0,0,0,0"/><path class="cls-2" d="M144.8,92.8h-.1c.4-4.5,0-9.1-1.4-10.4-1.7-1.7-4-3.1-6.4-3.1-3.1,0-5.2.2-7.9.7-.9.2-4.2,1.4-4.8,6.3-.2,1.9-.5,3.9-.4,5.8,0,.5,0,1-.2,1.4-.2.4-.8.7-1.2.4-.3-.2-.3-.6-.4-1,0-.3-.4-.6-.7-.6-.7-.3-1.5,0-1.9.6-.4.6-.5,1.4-.4,2.2.1,1,.6,1.9,1.2,2.6-.2,0-1.3-1.8-1.4-1.8-2-3.4-2.8-13.2-2.3-17,.2-1,1.1-2.6,1.8-3.4.6-.7,1.5-1,2.4-1.2,6.1-1.5,12.4-2.5,18.6-1.6,1,.2,2.1.3,3,1,1.1.8,1.7,2.2,1.9,3.6.9,5,1.1,11.1.6,15.6Z"/></g></svg>