<?xml version="1.0" encoding="UTF-8"?><svg xmlns="http://www.w3.org/2000/svg" width="300" height="300" viewBox="0 0 300 300"><defs><style>.cls-1{fill:#2f308a;}.cls-1,.cls-2,.cls-3,.cls-4,.cls-5,.cls-6,.cls-7,.cls-8,.cls-9,.cls-10{stroke:#010101;stroke-linecap:round;stroke-linejoin:round;stroke-width:.5px;}.cls-11{stroke:#58595b;stroke-width:.2px;}.cls-11,.cls-8{fill:#fff;}.cls-11,.cls-12{stroke-miterlimit:10;}.cls-2{fill:#d6ae29;}.cls-3{fill:#c81f46;}.cls-4{fill:#d18f6a;}.cls-5{fill:#36b2a8;}.cls-6{fill:#322b2c;}.cls-7{fill:#dad1da;}.cls-9,.cls-12{fill:none;}.cls-12{stroke:#000;}.cls-13,.cls-14{stroke-width:0px;}.cls-14{fill:#27b04b;}</style></defs><g id="Grid"><rect class="cls-11" x="29.3" y="29.3" width="241.5" height="241.5"/><line class="cls-11" x1="29.3" y1="258.6" x2="270.7" y2="258.6"/><line class="cls-11" x1="29.3" y1="246.6" x2="270.7" y2="246.6"/><line class="cls-11" x1="29.3" y1="234.5" x2="270.7" y2="234.5"/><line class="cls-11" x1="29.3" y1="222.5" x2="270.7" y2="222.5"/><line class="cls-11" x1="29.3" y1="210.4" x2="270.7" y2="210.4"/><line class="cls-11" x1="29.3" y1="198.3" x2="270.7" y2="198.3"/><line class="cls-11" x1="29.3" y1="186.2" x2="270.7" y2="186.2"/><line class="cls-11" x1="29.3" y1="174.2" x2="270.7" y2="174.2"/><line class="cls-11" x1="29.3" y1="162.1" x2="270.7" y2="162.1"/><line class="cls-11" x1="29.3" y1="150" x2="270.7" y2="150"/><line class="cls-11" x1="29.3" y1="137.9" x2="270.7" y2="137.9"/><line class="cls-11" x1="29.3" y1="125.8" x2="270.7" y2="125.8"/><line class="cls-11" x1="29.3" y1="113.8" x2="270.7" y2="113.8"/><line class="cls-11" x1="29.3" y1="101.7" x2="270.7" y2="101.7"/><line class="cls-11" x1="29.3" y1="89.6" x2="270.7" y2="89.6"/><line class="cls-11" x1="29.3" y1="77.5" x2="270.7" y2="77.5"/><line class="cls-11" x1="29.3" y1="65.5" x2="270.7" y2="65.5"/><line class="cls-11" x1="29.3" y1="53.4" x2="270.7" y2="53.4"/><line class="cls-11" x1="29.3" y1="41.4" x2="270.7" y2="41.4"/><line class="cls-11" x1="258.6" y1="29.3" x2="258.6" y2="270.7"/><line class="cls-11" x1="246.6" y1="29.3" x2="246.6" y2="270.7"/><line class="cls-11" x1="234.5" y1="29.3" x2="234.5" y2="270.7"/><line class="cls-11" x1="222.5" y1="29.3" x2="222.5" y2="270.7"/><line class="cls-11" x1="210.4" y1="29.3" x2="210.4" y2="270.7"/><line class="cls-11" x1="198.3" y1="29.3" x2="198.3" y2="270.7"/><line class="cls-11" x1="186.2" y1="29.3" x2="186.2" y2="270.7"/><line class="cls-11" x1="174.2" y1="29.3" x2="174.2" y2="270.7"/><line class="cls-11" x1="162.1" y1="29.3" x2="162.1" y2="270.7"/><line class="cls-11" x1="150" y1="29.3" x2="150" y2="270.7"/><line class="cls-11" x1="137.9" y1="29.3" x2="137.9" y2="270.7"/><line class="cls-11" x1="125.8" y1="29.3" x2="125.8" y2="270.7"/><line class="cls-11" x1="113.8" y1="29.3" x2="113.8" y2="270.7"/><line class="cls-11" x1="101.7" y1="29.3" x2="101.7" y2="270.7"/><line class="cls-11" x1="89.6" y1="29.3" x2="89.6" y2="270.7"/><line class="cls-11" x1="77.5" y1="29.3" x2="77.5" y2="270.7"/><line class="cls-11" x1="65.5" y1="29.3" x2="65.5" y2="270.7"/><line class="cls-11" x1="53.4" y1="29.3" x2="53.4" y2="270.7"/><line class="cls-11" x1="41.4" y1="29.3" x2="41.4" y2="270.7"/><line class="cls-12" x1="23.9" y1="150" x2="276.1" y2="150"/><polygon class="cls-13" points="24.7 152.5 20.4 150 24.7 147.5 24.7 152.5"/><polygon class="cls-13" points="275.3 152.5 279.6 150 275.3 147.5 275.3 152.5"/><line class="cls-12" x1="150" y1="23.9" x2="150" y2="276.1"/><polygon class="cls-13" points="147.5 24.7 150 20.4 152.5 24.7 147.5 24.7"/><polygon class="cls-13" points="147.5 275.3 150 279.6 152.5 275.3 147.5 275.3"/></g><g id="Lines"><polygon class="cls-14" points="281.1 152.4 292.8 139.9 276 136.6 277.8 142.2 20.7 225.4 18.9 219.8 7.2 232.3 24 235.6 22.2 230 279.3 146.8 281.1 152.4"/></g><g id="Asia"><path class="cls-4" d="M126,52.1c-.4-.9-.7-1.3-1.3-3.1,1.3-6.2,1.1-9.5-.2-11.4-1.3.7-2.3,0-4,.6-2,.8-3.6.8-5.6,4.9-.5.9-2.3,5.9-4.1,5.3-.7-.2-2-1.6-2.2-2.3-1.3-1-3.3-.4-4.2,1.2-.9,1.5-.6,3.7.4,5.1.3.4.6.8,1,1.1h0c-.9,2.6-1.1,6.1-2.5,8,3.3.4,8.7,8.4,11.6,12.7,1.3,1.9,2.1,3.1,2.2,2.6h.3c-.5-2.3-1.2-4.8-2.2-7.4h0c-.9-1.3-.8-4.7.5-6.8h0c.9.3,1.7.7,2.6,1.1,2.3.8,4.1,1.6,4.7-4.5-.1.2-1.5,1.2-3.9-3,1.3.7,3.1,1.2,4.5,1.2.3-.2.5-1.2.6-2,.6,0,1.2-.3,1.6-.9.6-.8.7-1.6.3-2.5ZM122.3,49.1c0,1.1-.3,2-.6,1.9-.3,0-.5-.9-.4-2,0-1.1.3-2,.6-1.9.3,0,.5.9.4,2ZM124.4,45.4c-.6.4-1-.2-1.9-.3-1.2-.2-2.4.4-3.5,0,2.1-1.4,2.2-1.9,4.3-1.4h0c0,0,.2,0,.2.2h0s0,0,0,0c.4.2.7.4.9.7.3.3.3.7,0,1Z"/><path class="cls-1" d="M134.8,134.9h0s0,0,0,0c-.8,9.3-13.7,6.5-21.2,5.9h-.5c0-.7-.3-2.2-.8-4.2-.1-.5-.3-1-.4-1.6.4-.9,1.2-1.7,2.2-1.8,1.3-.2,2.5.4,3.8.7,1.3.3,2.9,0,3.4-1.1.3-.7.1-1.5.2-2.2.2-1.8,2.1-3.1,4-3.3,1.8-.2,3.5.4,5.2,1,.2.3.5.6.7.8,1.8,2.2,3.1,4.2,3.3,5.7Z"/><path class="cls-5" d="M134.8,135.4c0,2.8-.1,6.6-.3,10.9h0c-1.9,7.7-13.9,5.1-21,4.6h-.5c0-2.8,0-5.7,0-8.7,0-.4,0-.9,0-1.3h.5c7.5.6,20.4,3.4,21.2-5.9,0,.2,0,.3,0,.4Z"/><path class="cls-8" d="M134.8,134.9s0,0,0,0"/><path class="cls-1" d="M134.6,146.3c0,2.3-.2,4.8-.2,7.3-1.9,2.6-3.8,5.3-5.8,7.9-1.9-1.8-3.8-3.5-5.6-5.3-1.4,2.4-2.8,4.8-4.2,7.2-2-1.8-4-3.7-6-5.5.1-1.9.2-3.7.3-5.7h0c0-.5,0-1,0-1.5h.5c7.1.6,19.1,3.1,21-4.6Z"/><path class="cls-2" d="M134.3,153.6c-.1,2.9-.2,5.9-.4,8.8-2.2,2.9-3.9,6.1-5,9.6-2.1-1.6-4.1-3.3-6.2-4.9-1.3,2.6-2.7,5.3-4,7.9-.2.4-.5.9-1,.9-.3,0-.6-.3-.9-.5-1.8-2-3.6-4-5.3-6.1.3-2.3.6-4.7.8-7,.1-1.4.2-2.8.3-4.3,2,1.8,4,3.7,6,5.5,1.4-2.4,2.8-4.8,4.2-7.2,1.9,1.8,3.8,3.5,5.6,5.3,1.9-2.6,3.8-5.3,5.8-7.9Z"/><path class="cls-3" d="M134,162.4c-.4,8.1-.8,15.4-1.1,18.6,0,.3-.1.5-.2.8-1.2,2.2-6,3.9-8,5.1-.8.5-1.7.9-2.6,1.2-4.5,1.6-9.8,1.2-14.5-.2,1.2-4.3,2.2-8.3,3-12.2h0s0,0,.1-.1h-.1c.4-2.1.8-4.2,1.1-6.3,1.8,2,3.6,4,5.3,6.1.2.3.5.5.9.5.5,0,.7-.5,1-.9,1.4-2.6,2.7-5.3,4-7.9,2.1,1.6,4.1,3.3,6.2,4.9,1.1-3.5,2.8-6.8,5-9.6Z"/><path class="cls-3" d="M111.8,135.1c-.1.3-.2.6-.3,1-1.4-1.3-3.7-1.5-5.2-.3-1.3,1-2,2.9-3.7,3.2-1.4.3-2.7-.7-4-1.3-2.1-1-4.6-1.2-6.8-.4-2.2.7-4,2.4-5.1,4.5h-.7c.6-3.6,1-6.8,1.4-9.6h.3c1.7-3,6.1-4.3,9.1-2.5,1,.6,2,1.5,3.1,1.1.9-.3,1.3-1.2,2-1.9,1.1-1.1,2.9-1.2,4.4-.8,1.1.4,2.2,1,3.1,1.8.2.5.6,1,1,1.1h0c.4,1.4.8,2.8,1.2,4.1Z"/><path class="cls-5" d="M113,150.8c0,.5,0,1,0,1.4h0c-.7,9.8-19.2,7-29.9,6.4h-.1c.7-3.5,1.4-6.8,1.9-9.9,10.9.8,27.5,2.8,28.1-6.6h0c0,3,0,5.9,0,8.7Z"/><path class="cls-3" d="M110.5,175.6c-.8,4-1.8,8-3,12.2-.3,1-.6,2-.9,3.1-1.1,2.5-4.2,4.6-9.1,6.1-4,1.2-9.3,2.1-15.7,2.3-1.8,0-3.8-.2-5-1.5-.7-.7-.6-3.9-.1-7.8h.5c.7-2.3,5.7-11.1,7.2-9.3.8.9,4,5.1,5.2,4.9.5,0,.9-.5,1.2-.9,2.4-2.8,4.8-5.6,7.3-8.4,1.9,1.6,7.1,5.9,7.9,5.9,1.4,0,3.3-5.6,4.6-6.6Z"/><path class="cls-7" d="M98.2,200.1c0,1.6-11.5,5.3-17.4,6.4-1,.2-2,.5-2.9.2-1.4-.5-2.2-2-2.3-3.5,0-1.5.7-3.9,1.2-5.3,1.3,1.3,3.2,1.6,5,1.5,6.4-.3,11.7-1.1,15.7-2.3.6.7.7,2.2.7,3.1Z"/><path class="cls-7" d="M141,185c.1,3.4-16.2,7.7-17.2,7.3-1.2-.5-1.6-3.2-1.8-4.2.9-.3,1.8-.7,2.6-1.2,2-1.2,6.8-2.9,8-5.1,5.9,0,8.3,2.8,8.4,3.3Z"/><path class="cls-8" d="M104.5,77.7c0,0-.1.2-.2.3"/><path class="cls-1" d="M121.4,108.5c-1.7.9-3.3,2.2-4.5,3.6-.5.5-.9,1.2-1,1.9-.2-.2-.4-.3-.4-.3-.9-1-1.5-2.3-1.9-3.7-.3-1.3-.5-2.7-.5-4.1,0-1.3,0-2.6.2-3.9.3-2.5.9-5,1.6-7.3.2-.7.4-1.3.6-1.9.5-1.7,1.1-3.1,1.6-4.3,1.1-3.6,1.2-7.4.3-11.7-.5-2.3-1.2-4.7-2.2-7.3,0,0,0-.1,0-.2,7.4,4.1,3.1,33,3.6,36.6.7.6,1.6,1.5,2.6,2.7Z"/><path class="cls-4" d="M130.7,121.3c-.2,1-1.8,2.2-2.9,3.8-3-3.1-6.5-6.1-8.9-8.3-.2-.2-.4-.4-.6-.5-1.1-1-2-1.8-2.4-2.3.1-.7.6-1.3,1-1.9,1.3-1.5,2.8-2.7,4.5-3.6,3.3,3.8,7.8,9.8,9.2,12.1.1.2.2.5,0,.8Z"/><path class="cls-4" d="M98,125.1c-2.3.9-4.1-.8-5.9-2.4-.9-.8-.1-2.2-.3-3.4-.4-1.8-1.2-3.4-2.5-4.7-.6-.7-1.3-1.2-2.1-1.6,1.4-1.1,3-3.3,4.2-5.2h.3c1,1.5,2,2.9,3.1,4.3,1,1.3,2.1,2.5,3.2,3.6,2.3.2,3.8,2,4.4,4.3.6,2.4-2,4.2-4.3,5.1Z"/><path class="cls-8" d="M87.2,113s0,0,0,0"/><path class="cls-4" d="M131.5,129.2c-.2-.3-.5-.6-.7-.8-.9-1.1-1.9-2.2-3-3.2h0c1.2-1.6,2.7-2.8,2.9-3.8h0c.9-.9,3.5,2,3.8,3.2.5,3-.2,3.5-3,4.7Z"/><path class="cls-3" d="M104.3,78h0c-1,1.3-2.7,3.8-4.5,6.7-.2-3.9-.3-7.8-.5-11.6-1.5.6-7.5,3.2-8.6,5.4l-.4-.2s0,0,0,0c.6-1.1,1.3-2.4,2.4-4.2,1.4-2.1,3.3-5.6,5.8-6.7l.2.4c2.3,0,4.7,1.3,5.8,3.4,1.2,2.1,1.1,4.9-.2,6.9Z"/><path class="cls-1" d="M99.8,84.7c-1.8,2.8-3.7,5.9-5.3,8.7-.4.7-.8,1.3-1.1,1.9-1.9,3.2-3.3,5.5-3.3,5.5.5,1.1,1.2,1.9,1.8,2.6.6.7,1,1.3.8,1.9-.3.6-.7,1.5-1.3,2.5-1.1,1.9-2.7,4.1-4.2,5.2-.5.4-.9.6-1.3.7-7.1-8-6.9-13.5-5.2-16.4,1.5-2.4,3.1-6.7,5.5-10.1l.3-.8c2.1-4,2.6-5.7,3.8-8.2l.4.2c-.1.3-.2.6-.2.9.2,1.1,3.7,2,4.6,2.5.7.4,4.4,2.1,4.7,2.9Z"/><path class="cls-1" d="M117.1,88.5c-.5,1.2-1.1,2.6-1.6,4.3-.6-4.6-2.2-9.1-4.7-13.1-3.1,5.1-6.3,10.2-9.6,15.2v.4c-2.1-.3-4.1-.8-6.7-2,1.7-2.8,3.6-5.9,5.3-8.7,0,0,0,0,0,0h0c1.8-3,3.5-5.5,4.5-6.8h0c1.3-2.1,1.4-4.8.2-6.9-1.2-2-3.5-3.4-5.8-3.4l-.2-.4c.1,0,.2,0,.3-.1,1.1-.7,1.7-1.2,2.2-1.7,4.2.6,7.7,3.5,10.9,6.2,1,.8,2,1.7,3,2.5h0c1.3,1.8,2.1,3,2.2,2.6h.3c.9,4.2.8,8-.3,11.6Z"/><path class="cls-6" d="M124.4,45.4c-.6.4-1-.2-1.9-.3-1.2-.2-2.4.4-3.5,0,2.1-1.4,2.2-1.9,4.3-1.4-.4,0,0,0,.3.2h0s0,0,0,0c.4.2.7.4.9.7.3.3.3.7,0,1Z"/><path class="cls-6" d="M124.6,37.4v.2c-1.4.7-2.4,0-4.1.6-2,.8-3.6.8-5.6,4.9-.5.9-2.3,5.9-4.1,5.3-.7-.2-2-1.6-2.2-2.3-1.3-1-3.3-.4-4.2,1.2-.9,1.5-.6,3.7.4,5.1.3.4.6.8,1,1.1h0c-.9,2.6-1.1,6.1-2.5,8-.8.5-7.2,1.6-8.4-2-1.2-3.4.5-12.2.7-15.8.2-3.6,2.2-8.2,5.1-10.4,4.1-3.1,11.2-4.2,16.1-2.8,3.6,1.1,8.6,2.6,7.8,6.8Z"/><path class="cls-8" d="M124.2,55.5h0"/><path class="cls-9" d="M110.4,57.9c1.5,2.6,3.4,3.8,5.3,4.7"/><path class="cls-8" d="M108.9,54.8c-1.1-.1-2.2-.6-3.2-1.4"/><path class="cls-8" d="M123.6,43.7s0,0,0,0"/><path class="cls-8" d="M124.2,55.5c-.3,0-.5,0-.8-.2"/><path class="cls-10" d="M122.3,49.1c0,1.1-.3,2-.6,1.9-.3,0-.5-.9-.4-2,0-1.1.3-2,.6-1.9.3,0,.5.9.4,2Z"/><path class="cls-8" d="M123.6,57.5l-.6,1.8c-.1.2-1.5,1.2-3.9-3,1.3.7,3.1,1.2,4.5,1.2Z"/><path class="cls-9" d="M108.4,48.1c-.8-.3-1.8,0-2.4.6s-.7,1.6-.4,2.4"/><path class="cls-8" d="M106,48.9c.9.6,1.6,1.4,2.1,2.3"/><path class="cls-8" d="M115.8,114s0,0,0,0"/><path class="cls-8" d="M115.8,114.8c0-.2,0-.5,0-.7"/><path class="cls-1" d="M113.1,142.2h0c-.5,9.4-17.2,7.3-28.1,6.6.5-2.5.8-4.9,1.2-7.1h.7c1-2,2.9-3.6,5.1-4.3,2.2-.8,4.7-.6,6.8.4,1.3.6,2.6,1.6,4,1.3,1.6-.4,2.4-2.2,3.7-3.2,1.5-1.2,3.8-1,5.2.3.2.2.5.5.6.8,0,0,0-.1,0-.2.5,1.9.8,3.5.8,4.1h0c0,.5,0,.9,0,1.4Z"/><path class="cls-1" d="M113,152.3c0,1.9-.1,3.8-.3,5.7,0,1.4-.2,2.9-.3,4.3-1.8,3.4-3.5,6.9-5.3,10.3-2-1.8-3.9-3.6-5.9-5.4-.5-.4-1-.9-1.6-.9-1,0-1.7.7-2.3,1.5-2.1,2.6-4.3,5.2-6.4,7.8-1.5-2.4-2.9-4.8-4.4-7.1-3.3,2.1-4.9,4-7.3,7.1.5-2.4.9-4.2,1.1-5.2,1-4.1,1.9-8,2.7-11.7h.1c10.7.6,29.1,3.5,29.9-6.3Z"/><path class="cls-2" d="M112.4,162.2c-.2,2.4-.5,4.7-.8,7-.3,2.1-.6,4.2-1.1,6.3,0,0,0,0,0,0h0c-1.3,1-3.2,6.6-4.6,6.6-.8,0-6-4.3-7.9-5.9-2.4,2.8-4.8,5.6-7.3,8.4-.3.4-.7.8-1.2.9-1.2.2-4.4-4-5.2-4.9-1.6-1.9-6.5,7-7.2,9.3h-.5c.6-4.7,1.7-10.4,2.5-14.6,2.3-3.2,4-5,7.3-7.1,1.5,2.4,2.9,4.8,4.4,7.1,2.1-2.6,4.3-5.2,6.4-7.8.6-.7,1.4-1.5,2.3-1.5.6,0,1.2.5,1.6.9,2,1.8,3.9,3.6,5.9,5.4,1.8-3.4,3.5-6.9,5.3-10.3Z"/><path class="cls-1" d="M115,74.2h0c-1-.8-2-1.7-3-2.5-3.2-2.8-6.8-5.6-10.9-6.2,1-1.1,1-2,2.3-4,3.3.4,8.7,8.4,11.6,12.7Z"/><path class="cls-2" d="M115.5,92.8c-.2.6-.4,1.2-.6,1.9-2.9,2.1-6.1,1.5-9.7,1.1-1.4-.2-2.8-.3-4.1-.5v-.4c3.4-5,6.6-10.1,9.7-15.2,2.5,4,4.1,8.4,4.7,13.1Z"/><path class="cls-5" d="M114.9,94.7c-.7,2.3-1.2,4.8-1.6,7.3h-.1c-6.7,1.8-14.1,1.2-20.4-1.6h-.3c.3-1.7.6-3.4.9-5.1h0c.4-.6.8-1.3,1.1-1.9,2.6,1.2,4.7,1.7,6.7,2,1.3.2,2.7.3,4.1.5,3.6.4,6.8,1,9.7-1.1Z"/><path class="cls-1" d="M113.3,102c-.2,1.3-.3,2.6-.2,3.9h0c-6.2,2.5-14,1.2-20.4-.5.2-.6-.2-1.2-.8-1.9.2-.9.4-2.2.6-3.1h.3c6.4,2.9,13.7,3.4,20.4,1.6h.1Z"/><path class="cls-8" d="M93.4,95.3c-.3,1.7-.6,3.4-.9,5-.2.9-.4,2.2-.6,3.1-.6-.7-1.3-1.5-1.8-2.6,0,0,1.4-2.3,3.3-5.5h0Z"/><path class="cls-5" d="M113.6,109.9c-5.6,2.3-12.7,2.4-18.8,2.2-1.1-1.4-2.2-2.8-3.1-4.2h-.3c.6-1.1,1.1-2,1.3-2.6,6.5,1.7,14.2,3,20.4.5h0c0,1.5.2,2.9.5,4.1Z"/><path class="cls-8" d="M115.6,93.3c0-.2,0-.4,0-.5"/><path class="cls-5" d="M99.8,84.7s0,0,0,0c-.3-.8-4-2.5-4.7-2.9-.9-.5-4.4-1.4-4.6-2.5,0-.3,0-.6.2-.9,1.1-2.2,7.1-4.8,8.6-5.4.2,3.9.3,7.8.5,11.6Z"/><path class="cls-8" d="M99.8,84.7h0c0,0,0,0,0,0,0,0,0,0,0,0Z"/><path class="cls-8" d="M98.6,67.7h-.2"/><path class="cls-8" d="M112.5,162.1s0,0,0,0"/><path class="cls-8" d="M113,152.2s0,0,0,.1"/><path class="cls-8" d="M134.9,134.4c0,.2,0,.3,0,.5"/><path class="cls-8" d="M110.5,130.7c-.3-.2-.6-.5-.9-.7"/><path class="cls-8" d="M111,131.1c-.1,0-.2,0-.3,0"/><path class="cls-8" d="M122.1,119.8c0,0-.1-.1-.2-.2"/><path class="cls-1" d="M121.8,119.6c-1.1-.7-2.5-.7-3.6,0-1.1.8-1.6,2.3-1.2,3.6.2.5.4,1,.3,1.4-.1.4-.6.7-1,.8-.5,0-.9,0-1.4,0-1.6,0-3.1.6-4.3,1.6-.4.3-.7.8-.9,1.2-.1.3-.2.6-.2,1,0,.2,0,.4,0,.6-1-.8-2-1.4-3.1-1.8-1.5-.5-3.3-.4-4.4.8-.7.6-1.1,1.6-2,1.9-1.1.3-2.1-.5-3.1-1.1-3-1.8-7.4-.6-9.1,2.5h-.3c1.5-11.1,1.7-17.6,1.7-17.6,1.3,1.3,2.2,2.9,2.5,4.7.2,1.2-.6,2.6.3,3.4,1.8,1.6,3.6,3.3,5.9,2.4,2.3-.9,4.9-2.7,4.3-5.1-.6-2.4-2.1-4.1-4.4-4.3-1.1-1.1-2.2-2.3-3.2-3.6,6.1.2,13.2,0,18.8-2.2.4,1.4,1,2.7,1.9,3.7,0,0,.2.2.4.4h0c.5.5,1.4,1.3,2.4,2.2.2.2.4.3.6.5.9.9,2,1.9,3,2.8Z"/><path class="cls-3" d="M130.8,128.4c-1.7-.6-3.4-1.2-5.2-1-1.9.2-3.8,1.4-4,3.3-.1.8,0,1.6-.2,2.2-.5,1.2-2.2,1.4-3.4,1.1-1.3-.3-2.5-.9-3.8-.7-1,.2-1.8.9-2.2,1.8-.4-1.3-.8-2.7-1.2-4.1h0c-.3-.9-.6-1.8-.9-2.6.2-.4.6-.9.9-1.2,1.2-1.1,2.7-1.6,4.3-1.6.5,0,.9,0,1.4,0,.5,0,.9-.4,1-.8.1-.5-.1-1-.3-1.4-.4-1.3,0-2.8,1.2-3.6,1-.7,2.5-.7,3.6,0,0,0,0,0,0,0,3,2.8,5.9,5.5,5.9,5.5,1.1,1.1,2.1,2.2,3,3.2Z"/><path class="cls-9" d="M107.3,123.7c.7.4,1.6,2.3,2.4,4.8"/></g></svg>