<?xml version="1.0" encoding="UTF-8"?><svg xmlns="http://www.w3.org/2000/svg" width="300" height="300" viewBox="0 0 300 300"><defs><style>.cls-1{fill:#2b2c2b;}.cls-1,.cls-2,.cls-3,.cls-4,.cls-5,.cls-6,.cls-7,.cls-8{stroke-linecap:round;stroke-linejoin:round;stroke-width:.5px;}.cls-1,.cls-2,.cls-3,.cls-4,.cls-5,.cls-6,.cls-7,.cls-8,.cls-9{stroke:#000;}.cls-2{fill:#5b5d7c;}.cls-3{fill:#4c4e59;}.cls-10{stroke-width:.2px;}.cls-10,.cls-6,.cls-11{fill:#fff;}.cls-10,.cls-11{stroke:#58595b;}.cls-10,.cls-11,.cls-9{stroke-miterlimit:10;}.cls-4{fill:#e0bfaa;}.cls-5{fill:#a8afc2;}.cls-7,.cls-9{fill:none;}.cls-12,.cls-13{stroke-width:0px;}.cls-13{fill:#27b04b;}</style></defs><g id="Grid"><rect class="cls-10" x="30" y="29.3" width="241.5" height="241.5"/><line class="cls-10" x1="30" y1="258.6" x2="271.5" y2="258.6"/><line class="cls-10" x1="30" y1="246.6" x2="271.5" y2="246.6"/><line class="cls-10" x1="30" y1="234.5" x2="271.5" y2="234.5"/><line class="cls-10" x1="30" y1="222.5" x2="271.5" y2="222.5"/><line class="cls-10" x1="30" y1="210.4" x2="271.5" y2="210.4"/><line class="cls-10" x1="30" y1="198.3" x2="271.5" y2="198.3"/><line class="cls-10" x1="30" y1="186.2" x2="271.5" y2="186.2"/><line class="cls-10" x1="30" y1="174.2" x2="271.5" y2="174.2"/><line class="cls-10" x1="30" y1="162.1" x2="271.5" y2="162.1"/><line class="cls-11" x1="30" y1="150" x2="271.5" y2="150"/><line class="cls-10" x1="30" y1="137.9" x2="271.5" y2="137.9"/><line class="cls-10" x1="30" y1="125.8" x2="271.5" y2="125.8"/><line class="cls-10" x1="30" y1="113.8" x2="271.5" y2="113.8"/><line class="cls-10" x1="30" y1="101.7" x2="271.5" y2="101.7"/><line class="cls-10" x1="30" y1="89.6" x2="271.5" y2="89.6"/><line class="cls-10" x1="30" y1="77.5" x2="271.5" y2="77.5"/><line class="cls-10" x1="30" y1="65.5" x2="271.5" y2="65.5"/><line class="cls-10" x1="30" y1="53.4" x2="271.5" y2="53.4"/><line class="cls-10" x1="30" y1="41.4" x2="271.5" y2="41.4"/><line class="cls-10" x1="259.4" y1="29.3" x2="259.4" y2="270.7"/><line class="cls-10" x1="247.3" y1="29.3" x2="247.3" y2="270.7"/><line class="cls-10" x1="235.3" y1="29.3" x2="235.3" y2="270.7"/><line class="cls-10" x1="223.2" y1="29.3" x2="223.2" y2="270.7"/><line class="cls-10" x1="211.1" y1="29.3" x2="211.1" y2="270.7"/><line class="cls-10" x1="199" y1="29.3" x2="199" y2="270.7"/><line class="cls-10" x1="186.9" y1="29.3" x2="186.9" y2="270.7"/><line class="cls-10" x1="174.9" y1="29.3" x2="174.9" y2="270.7"/><line class="cls-10" x1="162.8" y1="29.3" x2="162.8" y2="270.7"/><line class="cls-11" x1="150.8" y1="29.3" x2="150.8" y2="270.7"/><line class="cls-10" x1="138.7" y1="29.3" x2="138.7" y2="270.7"/><line class="cls-10" x1="126.6" y1="29.3" x2="126.6" y2="270.7"/><line class="cls-10" x1="114.6" y1="29.3" x2="114.6" y2="270.7"/><line class="cls-10" x1="102.5" y1="29.3" x2="102.5" y2="270.7"/><line class="cls-10" x1="90.4" y1="29.3" x2="90.4" y2="270.7"/><line class="cls-10" x1="78.3" y1="29.3" x2="78.3" y2="270.7"/><line class="cls-10" x1="66.2" y1="29.3" x2="66.2" y2="270.7"/><line class="cls-10" x1="54.2" y1="29.3" x2="54.2" y2="270.7"/><line class="cls-10" x1="42.1" y1="29.3" x2="42.1" y2="270.7"/><line class="cls-9" x1="24.7" y1="150" x2="276.8" y2="150"/><polygon class="cls-12" points="25.4 152.5 21.1 150 25.4 147.5 25.4 152.5"/><polygon class="cls-12" points="276.1 152.5 280.4 150 276.1 147.5 276.1 152.5"/><line class="cls-9" x1="150.8" y1="23.9" x2="150.8" y2="276.1"/><polygon class="cls-12" points="148.3 24.7 150.8 20.4 153.2 24.7 148.3 24.7"/><polygon class="cls-12" points="148.3 275.3 150.8 279.6 153.2 275.3 148.3 275.3"/></g><g id="Lines"><polygon class="cls-13" points="300 234.3 285.1 226 285.1 231.9 14.8 231.9 14.8 226 -.2 234.3 14.8 242.6 14.8 236.7 285.1 236.7 285.1 242.6 300 234.3"/></g><g id="Asia"><path class="cls-2" d="M106.3,127.3c-.1,4.3-.4,9.4-.6,16.9h0c0,.1,0,.3,0,.5-5.5,1.1-11.3,2.4-17,.2.3.6-.4,1.5-1.4,2.3-1.3,1-3.1,2-4.5,2.4-1,.3-1.8.3-2.1-.2-.8-1.5-1.7-3.4-2.6-5.4-1.7-3.9-3.4-8.4-4.6-11.5-1.7-4.5-3.2-8.5-3.2-12.2,0-2.9,1.2-5.6,2.4-8.2,2.8-6.4,2.3-7.6,5.7-13.7,1.3-2.4,3.2-6.6,5.7-7.7.5.2,1,.3,1.5.4,4.4,1.2,8.8,2.6,13.1,4.3v.2c1.4,1.9,1.7,4.4,1.7,6.8,0,2.4-.3,4.8.1,7.1,0,.3.2.6.5.7.3,0,.5-.4.6-.7,1-4.5,1-8.7-.6-13.1.7.3,1.5.5,2.3.6.2,0,.5,0,.8,0,.8,3.8,1.5,8.1,1.7,10.3.7,8.8.8,13.6.6,20.1Z"/><line class="cls-7" x1="104" y1="97" x2="104" y2="96.9"/><path class="cls-6" d="M110.8,185.2s0,0,0,0"/><line class="cls-7" x1="105.7" y1="144.2" x2="105.7" y2="144.2"/><path class="cls-5" d="M128.2,223.6c-4.3,1.2-8.1,2-12.4,2.5-.5,0-1,.1-1.5.2-3.5-11.8-2.8-28.5-3.7-41.1h.2c-6.4-11.3-8.2-14.7-14.5-22.6-3.1,10.2-5.6,18.7-9.2,28.7-5.7,12.3-7.1,27.2-12.9,33.2-.2,0-.5-.2-.8-.2-.1,0-.2,0-.3-.1-.1,0-.3,0-.4-.1-3.4-1-7.9-2-11-3.4-.2-.1-.5-.2-.7-.3-.4-6.5,6.5-21,14.5-36.6,1.6-13.7-.9-29.2,2.5-39.8h0c.9,2,1.8,3.9,2.6,5.4.3.5,1.1.5,2.1.2.6,3.7,1.3,5.5,1.9,9.2.2,1.2,1.6,1,2.7,1.5.8.4,3.7-1.3,4-2.2,1.9-5.1-.4-7-4.1-10.9,1-.8,1.7-1.7,1.4-2.3,5.7,2.2,11.5.9,17-.2,0-.2,0-.3,0-.4,1.5,2,2.9,3.9,4.2,5.9,1.5,2.4,2.9,4.7,4.2,7.1,0,0,0,0,0,0,3.9,7.2,7.1,14.8,11,23.4,1.7,14.5,5.1,39.8,3.1,42.9Z"/><path class="cls-2" d="M113.4,146.9s0,0,0,.1c-.9,1.1-2.3,2.4-3.5,3.1-1.3-2-2.6-3.9-4.2-5.9h0c.2-7.5.5-12.6.6-16.9.8,3.4.1,6.1,7.2,17.8.3.5.3,1.2,0,1.7Z"/><path class="cls-7" d="M106.3,127.3c0,0,0-.2,0-.2"/><path class="cls-4" d="M114.1,157.3s0,0,0,0c-1.3-2.4-2.7-4.8-4.2-7.1,1.2-.8,2.5-2.1,3.5-3.1,0,0,0,0,0-.1,7.1,11.2,1.4,11.5.7,10.4Z"/><path class="cls-7" d="M113.4,146.9s0,0,0,0"/><path class="cls-4" d="M91.4,158.2c-.3.8-3.2,2.5-4,2.2-1.1-.5-2.5-.3-2.7-1.5-.6-3.7-1.3-5.5-1.9-9.2,1.4-.4,3.2-1.4,4.5-2.4,3.8,3.9,6,5.8,4.1,10.9Z"/><path class="cls-3" d="M79.9,230.3c-.2.8-.9,1.3-1.7,1.6-.8.3-1.6.3-2.4.3-4.6,0-9.3,0-13.7-1.3-1-.3-2.1-.8-2.5-1.8-.2-.6-.2-1.3,0-1.9.3-2.1,1-4.2,2-6l.2-.4c3,1.3,7.6,2.4,11,3.4.1,0,.3,0,.4.1.1,0,.2,0,.3.1,1.7.5,4.3,1.5,5.3,1.9,1.1.5,1.5,2.8,1.2,4Z"/><path class="cls-3" d="M136.7,231.9c-3.5.1-17.6.6-18.8.3-1.3-.3-2.8-5-2.1-6.1,4.3-.6,8.1-1.3,12.4-2.5v.2c1.4.3,6.9,2,7.8,2.9.9,1,1.3,4,.7,5.2Z"/><path class="cls-6" d="M111.1,75.2h0"/><path class="cls-4" d="M112.5,71c-.5-.9-.3-1.3-1.1-3.1,1.1-6.2.6-9.6-.8-11.4-1.3.4-3.5-.4-4.8,0-2.2.6-7.4,5.2-7.6,7.1,0,.7-.8,1.8-1.3,2.3-.5.5-2.1.6-2.3,0-1.3-1-3.3-.2-4.1,1.3-.8,1.6-.5,3.7.6,5,.3.4.7.8,1,1-.8,2.6-1.9,2.9-4.3,3.9,1.1,1,1.1,2.3,1.4,3.4h0c.6,0,1.2.2,1.8.3,3.5.8,5.5,4.2,8.9,5.5.3.1.8.3,1.3.5,0-.8.3-2.4.3-3.2h0c.6.1,1.3.4,2.2.6,3.7.8,5.2.8,6.3-5.1,0,.2-1.4,1.3-4-2.8,1.3.6,3.1,1,4.5,1,.3-.2.4-1.2.5-2,.6,0,1.1-.3,1.5-.9.5-.8.3-2.4-.1-3.3ZM108.4,71c-.3,0-.5-.9-.5-1.9s.2-1.9.5-1.9.5.9.5,1.9-.2,1.9-.5,1.9ZM110.8,65.2c-.5.4-1.7.4-2.6.3-1.2-.1-1.7-.1-2.8-.5,2-1.5,2.1-1.9,4.2-1.6,0,0,.2,0,.3.1,0,0,0,0,0,0,.4.2.7.4.9.6.3.3.3.7,0,1Z"/><path class="cls-1" d="M110.8,65.2c-.5.4-1.7.4-2.6.3-1.2-.1-1.7-.1-2.8-.5,2-1.5,2.1-1.9,4.2-1.6-.4,0,0,0,.3.1,0,0,0,0,0,0,.4.2.7.4.9.6.3.3.3.7,0,1Z"/><path class="cls-7" d="M101.6,83.5c-3.1-1.2-3.5-2.5-6.2-6.7"/><path class="cls-6" d="M95.3,74.3c-1.1,0-2.2-.5-3.2-1.2"/><path class="cls-6" d="M110.3,75.1c.3,0,.6.1.8.1"/><path class="cls-1" d="M111.1,56.2c-.1,0-.3.2-.5.2-1.3.4-3.5-.4-4.8,0-2.2.6-7.4,5.2-7.6,7.1,0,.7-.8,1.8-1.3,2.3-.5.5-2.1.6-2.3,0-1.3-1-3.3-.2-4.1,1.3-.8,1.6-.5,3.7.6,5,.3.4.7.8,1,1-.8,2.6-1.9,2.9-4.3,3.9-.8.5-4.7-.8-5.3-2.1-1.7-3.2-2.8-10.2-2.7-13.8,0-3.6,3.4-9.4,6.2-11.7,3.9-3.2,12.7-1.4,17.6-.2,3.6.9,8.2,2.7,7.5,6.9Z"/><path class="cls-8" d="M108.9,69c0,1.1-.2,1.9-.5,1.9s-.5-.9-.5-1.9.2-1.9.5-1.9.5.9.5,1.9Z"/><path class="cls-6" d="M110.6,77.3l-.5,1.8c0,.2-1.4,1.3-4-2.8,1.3.6,3.1,1,4.5,1Z"/><path class="cls-7" d="M94.5,67.8c-.8-.3-1.8,0-2.3.7s-.7,1.7-.3,2.4"/><path class="cls-6" d="M92.2,68.6c.9.5,1.6,1.3,2.2,2.2"/><path class="cls-2" d="M105.7,94.7c0,.8-.2,1.6-.9,2-.2.2-.5.2-.8.3-.3,0-.5,0-.8,0-.8,0-1.5-.3-2.3-.6-.5-.2-1.1-.4-1.6-.7-.2-.1-.5-.2-.7-.3-4.3-1.8-8.7-3.1-13.1-4.3-.5-.1-1-.3-1.5-.4-.9-.3-1.7-.7-2.4-1.4-1-1-1.4-2.8-.4-3.9.5-.5,1.2-.8,1.7-1.3.4-.5.6-1.1,1-1.6,1.2-1.9,3.3-2.2,5.3-2,.6,0,1.2.2,1.8.3,3.5.8,5.5,4.2,8.9,5.5.3.1.8.3,1.3.5,1,.3,2.1.7,2.5,1.1.5.4.9.9,1.2,1.5,1.2,2.2,1,2.8.7,5.2Z"/><path class="cls-7" d="M85.8,85.7c6-.9,10.5,6,16.3,6.6"/><path class="cls-6" d="M101.6,109.4c0,.3-.3.8-.6.7-.3,0-.4-.4-.5-.7-.4-2.3-.1-4.8-.1-7.1,0-2.4-.3-4.9-1.8-6.8v-.2c.3,0,.5.2.8.3.5.2,1.1.5,1.6.7,1.6,4.4,1.7,8.6.6,13.1Z"/><path class="cls-6" d="M99.1,153.7c-1,3.2-1.9,6.2-2.8,9"/><path class="cls-7" d="M80.5,118.6q-.2,2.8-.5,5.5"/><path class="cls-7" d="M100.2,131.6c-1.5,2.5-3.4,4.9-5.5,7.1,0,0,.2,0,.2-.1"/><path class="cls-7" d="M91,104.1c-3.5,5.8-8.5,11.1-12,16.9.3,1.1.7,2.2,1,3.2,2.2,6.9,4.4,11.4,8.7,20.8"/></g></svg>