<?xml version="1.0" encoding="UTF-8"?><svg xmlns="http://www.w3.org/2000/svg" width="300" height="300" viewBox="0 0 300 300"><defs><style>.cls-1{fill:#474747;}.cls-1,.cls-2,.cls-3,.cls-4,.cls-5,.cls-6,.cls-7,.cls-8{stroke-width:.5px;}.cls-1,.cls-2,.cls-3,.cls-4,.cls-5,.cls-6,.cls-7,.cls-8,.cls-9{stroke:#000;}.cls-1,.cls-2,.cls-4,.cls-5,.cls-6,.cls-7,.cls-8{stroke-linecap:round;stroke-linejoin:round;}.cls-2{fill:#4a83b7;}.cls-10{stroke:#58595b;stroke-width:.2px;}.cls-10,.cls-3,.cls-9{stroke-miterlimit:10;}.cls-10,.cls-6{fill:#fff;}.cls-3{fill:#1a1a1a;}.cls-4{fill:#9a713f;}.cls-5{fill:#663920;}.cls-7,.cls-9{fill:none;}.cls-11,.cls-12{stroke-width:0px;}.cls-12{fill:#27b04b;}</style></defs><g id="Grid"><rect class="cls-10" x="29.3" y="29.3" width="241.5" height="241.5"/><line class="cls-10" x1="29.3" y1="258.6" x2="270.7" y2="258.6"/><line class="cls-10" x1="29.3" y1="246.6" x2="270.7" y2="246.6"/><line class="cls-10" x1="29.3" y1="234.5" x2="270.7" y2="234.5"/><line class="cls-10" x1="29.3" y1="222.5" x2="270.7" y2="222.5"/><line class="cls-10" x1="29.3" y1="210.4" x2="270.7" y2="210.4"/><line class="cls-10" x1="29.3" y1="198.3" x2="270.7" y2="198.3"/><line class="cls-10" x1="29.3" y1="186.2" x2="270.7" y2="186.2"/><line class="cls-10" x1="29.3" y1="174.2" x2="270.7" y2="174.2"/><line class="cls-10" x1="29.3" y1="162.1" x2="270.7" y2="162.1"/><line class="cls-10" x1="29.3" y1="150" x2="270.7" y2="150"/><line class="cls-10" x1="29.3" y1="137.9" x2="270.7" y2="137.9"/><line class="cls-10" x1="29.3" y1="125.8" x2="270.7" y2="125.8"/><line class="cls-10" x1="29.3" y1="113.8" x2="270.7" y2="113.8"/><line class="cls-10" x1="29.3" y1="101.7" x2="270.7" y2="101.7"/><line class="cls-10" x1="29.3" y1="89.6" x2="270.7" y2="89.6"/><line class="cls-10" x1="29.3" y1="77.5" x2="270.7" y2="77.5"/><line class="cls-10" x1="29.3" y1="65.5" x2="270.7" y2="65.5"/><line class="cls-10" x1="29.3" y1="53.4" x2="270.7" y2="53.4"/><line class="cls-10" x1="29.3" y1="41.4" x2="270.7" y2="41.4"/><line class="cls-10" x1="258.6" y1="29.3" x2="258.6" y2="270.7"/><line class="cls-10" x1="246.6" y1="29.3" x2="246.6" y2="270.7"/><line class="cls-10" x1="234.5" y1="29.3" x2="234.5" y2="270.7"/><line class="cls-10" x1="222.5" y1="29.3" x2="222.5" y2="270.7"/><line class="cls-10" x1="210.4" y1="29.3" x2="210.4" y2="270.7"/><line class="cls-10" x1="198.3" y1="29.3" x2="198.3" y2="270.7"/><line class="cls-10" x1="186.2" y1="29.3" x2="186.2" y2="270.7"/><line class="cls-10" x1="174.2" y1="29.3" x2="174.2" y2="270.7"/><line class="cls-10" x1="162.1" y1="29.3" x2="162.1" y2="270.7"/><line class="cls-10" x1="150" y1="29.3" x2="150" y2="270.7"/><line class="cls-10" x1="137.9" y1="29.3" x2="137.9" y2="270.7"/><line class="cls-10" x1="125.8" y1="29.3" x2="125.8" y2="270.7"/><line class="cls-10" x1="113.8" y1="29.3" x2="113.8" y2="270.7"/><line class="cls-10" x1="101.7" y1="29.3" x2="101.7" y2="270.7"/><line class="cls-10" x1="89.6" y1="29.3" x2="89.6" y2="270.7"/><line class="cls-10" x1="77.5" y1="29.3" x2="77.5" y2="270.7"/><line class="cls-10" x1="65.5" y1="29.3" x2="65.5" y2="270.7"/><line class="cls-10" x1="53.4" y1="29.3" x2="53.4" y2="270.7"/><line class="cls-10" x1="41.4" y1="29.3" x2="41.4" y2="270.7"/><line class="cls-9" x1="23.9" y1="150" x2="276.1" y2="150"/><polygon class="cls-11" points="24.7 152.5 20.4 150 24.7 147.5 24.7 152.5"/><polygon class="cls-11" points="275.3 152.5 279.6 150 275.3 147.5 275.3 152.5"/><line class="cls-9" x1="150" y1="23.9" x2="150" y2="276.1"/><polygon class="cls-11" points="147.5 24.7 150 20.4 152.5 24.7 147.5 24.7"/><polygon class="cls-11" points="147.5 275.3 150 279.6 152.5 275.3 147.5 275.3"/></g><g id="Lines"><polygon class="cls-12" points="192.2 25.7 197.7 27.9 195.6 10.9 182.3 21.6 187.7 23.9 86.1 274.3 80.7 272.1 82.7 289.1 96 278.4 90.6 276.1 192.2 25.7"/></g><g id="Oceania"><path class="cls-4" d="M141.5,149.5c-.3,1.9-.8,3.8-2.1,5.2-1.2,1.5-3.6,1-5.4.3-.4-.1-.9-.5-1.5-.9-2.3-1.9-5.5-5.9-5.5-5.9-3.6-2.4-9-7.8-12.1-10.2-7.2-7.7-10.7-11.3-12.2-17.2h0s0,0,0,0c0-.3-.2-.7-.2-1l-.2-.3c3.2-1.6,7-2.2,10.6-1.5h0c.6,1.4,3.4,4.8,5.9,8.8h0c.8,1.4,1.7,2.8,2.3,4.3,2.4,4.3,6.2,9.3,10.1,12.4,1.8.9,1.4-.5,3.5-.6,2.1,0,4.4-.7,5.8.7,1.4,1.5,1.3,3.8.9,5.9Z"/><path class="cls-4" d="M175.4,66.2c-.3,2-3.3,2.8-5.4,3.5-4.9,3.6-6.6,6.6-9.8,8.4-7.2,6.3-12.6,8.2-16,10.3-.4-3.6-2.6-8.8-4.6-10.1,7.3-2.3,12.1-3.7,17.2-6.8,4.8-2.5,3.6-2,8.4-5.1,1.8-2.2.3-3.6,2.5-5.5,1.2-1.1,5.5-1.1,6.8.5.8,1,1,3.6.8,4.9Z"/><path class="cls-7" d="M102.8,120.8h0"/><path class="cls-2" d="M122.8,98.7c-1,6.8-7.4,15.8-8.6,19.6-.4-.1-.8-.2-1.2-.3-3.6-.7-7.3-.2-10.6,1.5,0,0,0,0,0,0-.2.1-.4.2-.6.3-.4-1.6.9-9.3,3.1-16.8.8-2.6,1.6-5.1,2.6-7.4h.3c1.8-3.5,5.7-5.9,8.6-5.4,2.9.6,5.9,4.6,6.5,8.5Z"/><path class="cls-2" d="M128,118.3h0c-.5,2.4-1,5-1.4,7.9-2.5,1-5.2,1.2-7.7.5h0c-2.5-4-5.3-7.5-5.9-8.7h0c.4,0,.8,0,1.2.2,1.2-3.8,7.6-12.8,8.6-19.6-.6-3.8-3.6-7.9-6.5-8.5-2.9-.5-6.7,1.8-8.6,5.5h-.3c0-.2,0-.3.1-.4,1.9-6.1,3.6-8.7,4.9-10.3,0-.3.3-.5.8-.7h0c-.5.5-1,.9-1.2,1.5-.3.6-.4,1.3,0,1.8.4.6,1.1.8,1.8.7s1.3-.3,2-.5c1.8-.4,3.7-.1,5.4.5,1.7.6,3.3,1.6,4.9,2.5.8.4,1.6.9,2.4.7.8-.2,1.5-1.3.9-1.9h-.3c0-1-.4-2.6-1.1-4,0,0,0,0,0-.1h0c4.1,4.3,5.8,7.4,6.2,10.3.8,5.6-3.6,10.6-6.4,22.6Z"/><path class="cls-1" d="M132.6,154.1c-2,2.3-4.8,5.3-5.7,8.3h0c0,.3-.1.5-.2.8-.6,3.2-2.2,7.7-3.4,10.8-.5.4-.9.6-1.5.9-4.3,2.1-10.2,1.2-15.1-.1,1.3-3.2,2.5-6.5,3.1-10.3-1.7-7.3-6.6-7.3-9.2-14.4-2.6-7.2-3.2-11.3-1-21.6h0c.2-.3,3-7.2,3.2-7.7h0c1.6,5.9,5,9.5,12.2,17.2,3.1,2.5,8.5,7.9,12.1,10.2,0,0,3.2,4,5.5,5.9Z"/><path class="cls-7" d="M102.8,120.8h0"/><path class="cls-7" d="M102.8,120.8h0"/><path class="cls-4" d="M122,175c-5.3,14.8-8.1,15.5-14,27.9-4.6-.2-3.7-.5-6.9-3.3.3-.6.7-1.2.9-1.8,3.8-8.2,1.6-16.1,4.3-22.1.2-.4.3-.7.5-1.1,4.9,1.3,10.8,2.3,15.1.1v.2Z"/><path class="cls-7" d="M101.1,199.6l-.3.5"/><line class="cls-7" x1="100.8" y1="199.4" x2="100.8" y2="199.4"/><path class="cls-1" d="M109.8,214.7c0,1.8-1.2,2.1-3,2.8-1.4.5-3,0-4.3-.5-1.2-.5-5.1-4.6-5.3-6.2-.5-4.1.7-7.5,3.6-11.4,0,0,.2.2.3.3,3.2,2.8,2.3,3.1,6.9,3.3-.9,1.5,1.8,10,1.8,11.8Z"/><path class="cls-1" d="M147.5,123.2c-1.2,5.1-5.4,14.4-6.8,19.9,0,.2,0,.4-.1.5-1.4-1.5-3.8-.8-5.8-.7-2.1,0-1.7,1.4-3.5.6-3.9-3.1-7.8-8.1-10.1-12.4-.7-1.4-1.5-2.9-2.3-4.3,2.6.7,5.3.5,7.7-.5.4-3,.8-5.6,1.4-7.9h0c2.8-3.1,12-9.1,15.2-9,1.7,0,4.3,3,5.3,4.3.8,1,0,6.6-1,9.6Z"/><path class="cls-2" d="M144.2,90.1c-2.3,1.5-3.3,2.8-9.6,5.6h-.2c-.4-2.9-2.1-6-6.2-10.3h0c-.4-1.4-.8-2.2-1.2-3.3h.6c6.1-2.6,10.2-2.8,12-3.8,2,1.3,4.2,6.5,4.6,10.1,0,.6,0,1.2,0,1.7Z"/><path class="cls-7" d="M144.1,88.4h-.1"/><path class="cls-7" d="M113.7,84.1c0,0,0,0,0,.1"/><path class="cls-7" d="M110.8,75.4c-.1-.1-.2-.3-.3-.4"/><path class="cls-4" d="M130.2,62.2c-1-1.5-3-2.9-3.8-5.3-.2-.5-.3-.9-.5-1.3-.2-.5-.6-.9-1-1.5,0,.1-.3.3-.7.7-.2.2-1.3,1.3-1.4,1.4-.4.3-1,0-1.1-.5-.1-.7,2.5-1.8,2.8-1.7.1,0,.2,0,.3,0-.1-.2-.3-.3-.4-.5-2.1-4.4-18.4-7-14.7,12.3.1.6-.1,1.6-.5,2.1-.4.5-1.1.7-1.7.4-.5-.3-1.5,0-1.9.3-.5.4-.7,1.1-.6,1.8,0,.6.3,1.2.7,1.8.3.5,1,1.1,1.7,1.6.7.5,1.5,1,2.1,1.1.3,0,.7,0,1.1,0,0,0,.1,0,.2,0l.2.7c1.5,2.1,3.1,6.2,3,8.6,2.2-.6,7,0,9.3,2.4.8.6,4.8,4.1,5.8,3.8.3,0,.5-.4.5-.9,0-1-.4-2.6-1.1-4,0,0,0,0,0-.1-.4-1.4-.8-2.3-1.2-3.3-.3-.8-.5-1.8-.5-3.2,1.9-.4,4.4-1.6,5.4-4.7,1-3,0-9.3-1.6-11.9ZM114.1,61.7c-.5-.4,2-2.9,2.6-3.5.7-.5,2.2-1.1,1.9.3,0,.5-.8.8-1.2,1.1-.4.2-3.3,2.1-3.3,2.1ZM120.1,64.6c-.3.2-1-.2-1.4-1-.4-.8-.5-1.5-.2-1.7.3-.2,1,.2,1.4,1,.4.7.5,1.5.2,1.7ZM125.2,57.9c.3-.2.9.3,1.3,1,.4.7.6,1.5.3,1.7-.3.2-.9-.3-1.3-1-.4-.7-.6-1.5-.3-1.7ZM128.6,72c-1.8,1.2-4.7-.7-4.8-1.1,1.6-.4,5.4-2.5,6.5-3.5.6.9.6,3.1-1.6,4.5Z"/><path class="cls-7" d="M126.4,78.9c-1.6.3-6.9.2-8.6-.2"/><path class="cls-7" d="M124.9,54.2c0,0,0-.1-.1-.2"/><path class="cls-1" d="M129.7,169.6c-.7,2.1-3.3,2.1-5.5,2.9v.3c.1,0,.2,0,.4,0-.4.4-.8.8-1.2,1.1,1.2-3.1,2.8-7.5,3.4-10.8,0-.2.1-.5.2-.8h.3c1.4,1.9,3.2,5,2.5,7.2Z"/><path class="cls-7" d="M126.6,61.9c1.1,1.4,1.6,2.4,1.8,2.8.9,1.6-3.4,3.7-4,3.6"/><path class="cls-8" d="M120.1,64.6c-.3.2-1-.2-1.4-1-.4-.8-.5-1.5-.2-1.7.3-.2,1,.2,1.4,1,.4.7.5,1.5.2,1.7Z"/><path class="cls-8" d="M126.8,60.6c-.3.2-.9-.3-1.3-1-.4-.7-.6-1.5-.3-1.7.3-.2.9.3,1.3,1,.4.7.6,1.5.3,1.7Z"/><path class="cls-6" d="M128.6,72c-1.8,1.2-4.7-.7-4.8-1.1,1.6-.4,5.4-2.5,6.5-3.5.6.9.6,3.1-1.6,4.5Z"/><path class="cls-3" d="M118.7,58.5c0,.5-.8.8-1.2,1.1-.4.2-3.3,2.1-3.3,2.1-.5-.4,2-2.9,2.6-3.5.7-.5,2.2-1.1,1.9.3Z"/><path class="cls-7" d="M110.6,74.8c1-.2,2.1-.9,2.5-1.5"/><path class="cls-3" d="M124.9,54.1c0,.1-.3.3-.7.7-.2.2-1.3,1.3-1.4,1.4-.4.3-1,0-1.1-.5-.1-.7,2.5-1.8,2.8-1.7.1,0,.2,0,.3,0,.1,0,.2,0,.1.1Z"/><path class="cls-7" d="M124.2,172.8c0,0-.1,0-.2,0"/><path class="cls-5" d="M126,55.6h-.1c-.2-.4-.6-.9-1-1.4,0,0,0-.1-.1-.1-.1-.2-.3-.3-.4-.5-2.1-4.4-18.4-7-14.7,12.3.1.6-.1,1.6-.5,2.1-.4.5-1.1.7-1.7.4-.5-.3-1.5,0-1.9.3-.5.4-.7,1.1-.6,1.8,0,.6.3,1.2.7,1.8.3.5,1,1.1,1.7,1.6h0c-1.2-.2-2.6.4-3.3,1.5-1.8-1.6-2.8-2-4.5-4.8-1.7-2.8-2.4-4-2.3-7.2,0-3.2,2.6-8.7,4.8-11,2.3-2.3,5.8-4.6,9-5.1,3.2-.5,5.4,0,8.5.9,3.1.9,6.5,4.3,6.6,7.5Z"/><path class="cls-5" d="M113.7,84.1c-.1,0-.3,0-.4.1-.4.2-.7.4-.8.7-1.4,1.6-3,4.2-4.9,10.3,0,.1,0,.2-.1.3-1,2.3-1.8,4.8-2.6,7.4-1.7,0-3.1-1.9-2.5-3.5-1.4.8-3.3.2-4.1-1.2-.8-1.4-.2-3.3,1.1-4.1-1.4.2-2.8-.9-3.1-2.3-.3-1.4.2-2.8,1.2-3.9.9-1,2.2-1.7,3.5-2.2-2-.5-2.4-3.3-1.2-5,1.2-1.6,3.3-2.2,5.3-2.6-.8-1-2-2-1.3-3,.7-1.1,2.1-1.7,3.3-1.4h0c.7.5,1.5.9,2.1,1,.3,0,.7,0,1.1,0,0,0,.1,0,.2,0l.2.7c1.5,2.1,3.1,6.2,3,8.6Z"/><path class="cls-1" d="M128.7,91.5c-.8.2-1.7-.2-2.4-.7-1.6-.9-3.2-1.9-4.9-2.5-1.7-.6-3.6-1-5.4-.5-.7.2-1.3.4-2,.5s-1.4-.2-1.8-.7c-.4-.5-.3-1.3,0-1.8.3-.6.8-1,1.2-1.4h0c.1,0,.3-.1.4-.2,2.2-.6,7,0,9.3,2.4.8.6,4.8,4.1,5.8,3.8.3,0,.5-.4.5-.9h.3c.6.6,0,1.8-.9,2Z"/></g></svg>