<?xml version="1.0" encoding="UTF-8"?><svg xmlns="http://www.w3.org/2000/svg" width="300" height="300" viewBox="0 0 300 300"><defs><style>.cls-1{stroke:#58595b;stroke-width:.2px;}.cls-1,.cls-2{fill:#fff;}.cls-1,.cls-3{stroke-miterlimit:10;}.cls-4{fill:#1e2123;}.cls-4,.cls-5,.cls-6,.cls-7,.cls-2,.cls-8,.cls-9,.cls-10{stroke:#010101;stroke-linecap:round;stroke-linejoin:round;stroke-width:.5px;}.cls-5{fill:#3f3f48;}.cls-6{fill:#90cae1;}.cls-7{fill:#9c725e;}.cls-8{fill:#010101;}.cls-9,.cls-3{fill:none;}.cls-3{stroke:#000;}.cls-11,.cls-12{stroke-width:0px;}.cls-12{fill:#27b04b;}</style></defs><g id="Grid"><rect class="cls-1" x="29.3" y="29.3" width="241.5" height="241.5"/><line class="cls-1" x1="29.3" y1="258.6" x2="270.7" y2="258.6"/><line class="cls-1" x1="29.3" y1="246.6" x2="270.7" y2="246.6"/><line class="cls-1" x1="29.3" y1="234.5" x2="270.7" y2="234.5"/><line class="cls-1" x1="29.3" y1="222.5" x2="270.7" y2="222.5"/><line class="cls-1" x1="29.3" y1="210.4" x2="270.7" y2="210.4"/><line class="cls-1" x1="29.3" y1="198.3" x2="270.7" y2="198.3"/><line class="cls-1" x1="29.3" y1="186.2" x2="270.7" y2="186.2"/><line class="cls-1" x1="29.3" y1="174.2" x2="270.7" y2="174.2"/><line class="cls-1" x1="29.3" y1="162.1" x2="270.7" y2="162.1"/><line class="cls-1" x1="29.3" y1="150" x2="270.7" y2="150"/><line class="cls-1" x1="29.3" y1="137.9" x2="270.7" y2="137.9"/><line class="cls-1" x1="29.3" y1="125.8" x2="270.7" y2="125.8"/><line class="cls-1" x1="29.3" y1="113.8" x2="270.7" y2="113.8"/><line class="cls-1" x1="29.3" y1="101.7" x2="270.7" y2="101.7"/><line class="cls-1" x1="29.3" y1="89.6" x2="270.7" y2="89.6"/><line class="cls-1" x1="29.3" y1="77.5" x2="270.7" y2="77.5"/><line class="cls-1" x1="29.3" y1="65.5" x2="270.7" y2="65.5"/><line class="cls-1" x1="29.3" y1="53.4" x2="270.7" y2="53.4"/><line class="cls-1" x1="29.3" y1="41.4" x2="270.7" y2="41.4"/><line class="cls-1" x1="258.6" y1="29.3" x2="258.6" y2="270.7"/><line class="cls-1" x1="246.6" y1="29.3" x2="246.6" y2="270.7"/><line class="cls-1" x1="234.5" y1="29.3" x2="234.5" y2="270.7"/><line class="cls-1" x1="222.5" y1="29.3" x2="222.5" y2="270.7"/><line class="cls-1" x1="210.4" y1="29.3" x2="210.4" y2="270.7"/><line class="cls-1" x1="198.3" y1="29.3" x2="198.3" y2="270.7"/><line class="cls-1" x1="186.2" y1="29.3" x2="186.2" y2="270.7"/><line class="cls-1" x1="174.2" y1="29.3" x2="174.2" y2="270.7"/><line class="cls-1" x1="162.1" y1="29.3" x2="162.1" y2="270.7"/><line class="cls-1" x1="150" y1="29.3" x2="150" y2="270.7"/><line class="cls-1" x1="137.9" y1="29.3" x2="137.9" y2="270.7"/><line class="cls-1" x1="125.8" y1="29.3" x2="125.8" y2="270.7"/><line class="cls-1" x1="113.8" y1="29.3" x2="113.8" y2="270.7"/><line class="cls-1" x1="101.7" y1="29.3" x2="101.7" y2="270.7"/><line class="cls-1" x1="89.6" y1="29.3" x2="89.6" y2="270.7"/><line class="cls-1" x1="77.5" y1="29.3" x2="77.5" y2="270.7"/><line class="cls-1" x1="65.5" y1="29.3" x2="65.5" y2="270.7"/><line class="cls-1" x1="53.4" y1="29.3" x2="53.4" y2="270.7"/><line class="cls-1" x1="41.4" y1="29.3" x2="41.4" y2="270.7"/><line class="cls-3" x1="23.9" y1="150" x2="276.1" y2="150"/><polygon class="cls-11" points="24.7 152.5 20.4 150 24.7 147.5 24.7 152.5"/><polygon class="cls-11" points="275.3 152.5 279.6 150 275.3 147.5 275.3 152.5"/><line class="cls-3" x1="150" y1="23.9" x2="150" y2="276.1"/><polygon class="cls-11" points="147.5 24.7 150 20.4 152.5 24.7 147.5 24.7"/><polygon class="cls-11" points="147.5 275.3 150 279.6 152.5 275.3 147.5 275.3"/></g><g id="Lines"><polygon class="cls-12" points="300.1 54.9 285.1 46.6 285.1 52.5 14.9 52.5 14.9 46.6 0 54.9 14.9 63.2 14.9 57.4 285.1 57.4 285.1 63.2 300.1 54.9"/></g><g id="Africa_Modest"><path class="cls-5" d="M151.9,230.9c-.5-.9-.4,1.3-4.1,1.4-2.9.1-3.7-2.5-4.1-1.6-1.8-13.5-4.2-26.9-4.7-35.1-.6-10.9,0-15.3-2.5-25.4-1.1,9.1-.7,18.3-1.3,26.3-.8,9.8-1.7,20.9-4.2,34.2-.4-.9-1.2,1.7-3.8,1.6-3.5-.1-3.4-2.4-3.9-1.4.5-9-4.1-18.1-2.7-30.8.7-6-3.6-20.3-2.5-26.8,2.9.2,5.8.4,8.8.6,2.1-10.3,3.6-17.2,4.6-24.4,10.5,3,15.7-.1,17.5-.2h0c.2,7.9.8,15.8,1.6,23.5,1.6.1,3.2-.1,4.7-.7h0c.7,6.5-1.8,19-1.5,25.2.5,9.7-2.1,23.9-1.8,33.5Z"/><path class="cls-7" d="M152.4,79c0-.5,0-1,0-1.4h-.2c-1.3-1.7-3.7-2.3-5.8-2.7-5.3-.9-11-1.1-15.9,1.1-1.4.6-2.7,1.2-3.4,2.5-.7,3.5-1,7.2-.9,10.1.4,4.2.5,8.2,3.8,10.9,11,7.8,15.5,4.1,19,0,5-5.8,3.1-14,3.1-14,.5-2.3.5-4.4.4-6.4ZM131.5,82.1h0c.2-.9,6.1-1.9,7.3-.8h0c0,.4-.3.7-.7.8-.3.1-.7.2-1.1.1-1.9-.4-3.7,0-5.6-.1ZM134.7,85.7c0-1,.5-1.8,1-1.8s1,.8,1,1.8-.4,1.8-1,1.8-1-.8-1-1.8ZM142.4,98.7c-1.2.2-3.1-.3-4.2-1.1-1.1-.8-1.1-.3-2.4-2.4.7.7,7.1,2.2,10.3.8-.8,1.6-1.7,2.4-3.6,2.7ZM147.9,87.1c-.5,0-.8-.7-.8-1.5s.4-1.6.8-1.6.8.7.8,1.6-.4,1.5-.8,1.5Z"/><path class="cls-9" d="M131.4,149.6c-.2,0-.3,0-.5-.1"/><path class="cls-9" d="M154.3,115.8c0,.2,0,.3,0,.5"/><path class="cls-9" d="M140.5,163.3c-1.3,1.1-3,3.3-3.7,4"/><path class="cls-9" d="M145.6,90.2c1.5,3.1-2.2,3.3-5.4,2.8"/><line class="cls-9" x1="118" y1="173.3" x2="118" y2="173.3"/><path class="cls-9" d="M136.8,167.3c-.1,1-.3,1.9-.4,2.9"/><path class="cls-9" d="M155.1,172.2c0-.2,0-.4,0-.6"/><path class="cls-9" d="M136.4,170.2c0-.2-.1-.5-.2-.7"/><path class="cls-9" d="M121.4,142.3c-.2,1-.4,2.1-.7,3.1"/><path class="cls-6" d="M157.1,171.1c-.6.4-1.3.8-2,1.1h0c-1.5.6-3.1.9-4.7.7-.8-7.7-1.3-15.6-1.6-23.5-.2-6.9-.2-13.7,0-20.4,2.9-3.1,4.6-8.1,5.4-12.7-.4,9.7-1.3,11.4-1.3,16.5s.3,9.8.4,15.8q1.8,10.9,3.8,22.4Z"/><path class="cls-5" d="M153.9,74.1c-.5-1.7-1.1-3.2-2-4.6-1.4-2.5-3.5-4.4-6.3-6-5.5-3-18.5-1.6-21.2,3.3-.8,1.5-1.5,2.9-2.1,4.4-8.6,19.8-.8,36.2.3,40.8.2,1.1,4,9.9,10.3,15.4,2.4,2.1,5.1,3.7,8.1,4.2,3.3.6,6-.6,8-2.7,2.9-3.1,4.6-8.1,5.4-12.7h0c.4-2.1.6-4,.7-5.6,0-1.7.1-2.5.2-3.7,0,0,0,0,0-.1,0-2,.2-5,.5-14.6.2-4.8-.3-13.5-1.7-18.1ZM148.9,99.4c-3.5,4.1-8,7.8-19,0-3.3-2.6-3.4-6.6-3.8-10.9,0-2.9.2-6.7.9-10.1.8-3.8,2.1-7.3,4.2-8.8,4-2.9,11.7-3,15.8-.1,3.9,2.8,5.1,4.3,5.3,8.1,0,.4,0,.9,0,1.4.1,2.1.1,4.1-.4,6.4,0,0,1.9,8.2-3.1,14Z"/><path class="cls-4" d="M152.4,77.5h-.2c-1.3-1.7-3.7-2.3-5.8-2.7-5.3-.9-11-1.1-15.9,1.1-1.4.6-2.7,1.2-3.4,2.5.8-3.8,2.1-7.3,4.2-8.8,4-2.9,11.7-3,15.8-.1,3.9,2.8,5.1,4.3,5.3,8.1Z"/><path class="cls-8" d="M138.9,81.4c0,.4-.3.6-.7.8-.3.1-.7.2-1.1.1-1.9-.4-3.7,0-5.6-.1h0c.2-.9,6.1-1.9,7.3-.8h0Z"/><path class="cls-10" d="M136.7,85.7c0,1-.4,1.8-1,1.8s-1-.8-1-1.8.5-1.8,1-1.8,1,.8,1,1.8Z"/><path class="cls-2" d="M146,96c-.8,1.6-1.7,2.4-3.6,2.7-1.2.2-3.1-.3-4.2-1.1-1.1-.8-1.1-.3-2.4-2.4.7.7,7.1,2.2,10.3.8Z"/><path class="cls-10" d="M148.7,85.5c0,.9-.4,1.5-.8,1.5s-.8-.7-.8-1.5.4-1.6.8-1.6.8.7.8,1.6Z"/><line class="cls-9" x1="131.5" y1="82.1" x2="131.5" y2="82.1"/><path class="cls-8" d="M151.2,82.3c0,0,.2.1.1.2-1.2-.3-2.4-.4-3.6-.4-.4,0-.8,0-1.1,0s-.7-.2-1-.5h0c.6-.7,4.8-.7,5.4.6l.2.2Z"/><path class="cls-6" d="M158.8,92.1c-.4,4.8-3.3,9.9-3.7,14.7,0-2,.2-5,.5-14.6.2-4.8-.3-13.5-1.7-18.1-.5-1.7-1.1-3.2-2-4.6h.1c-.3-2.2-.4-5.2-.4-9.1.2,0,.4,0,.5,0,2,.1,4,0,6-.4.1,0,.2,0,.4,0,1.3,14.1,1.5,16.5.2,32.1Z"/><path class="cls-9" d="M158.6,60c0,0,0-.1,0-.2"/><path class="cls-9" d="M114.9,60h0"/><path class="cls-2" d="M148.9,149.4h0c-1.8,0-7,3.2-17.5.2.9-6.3,1.3-12.8,1.4-22.1h0c2.4,2.1,5.1,3.7,8.1,4.2,3.3.6,6-.6,8-2.7-.2,6.7-.2,13.5,0,20.4Z"/><path class="cls-6" d="M132.8,127.5h0c0,9.3-.5,15.8-1.4,22.1-1,7.1-2.5,14-4.6,24.4-2.9-.2-5.9-.4-8.8-.6-.7,0-1.3,0-2-.2.5-5.8,5-25.1,5.5-30.9h-.1c1-5.7.9-10.9-.7-17.9-1.1-5.5-3.4-18.3-4.9-23.4-1.1-3.7-2.4-14.5-2.3-17.9.3-8.6,0-11.7,1.4-23.1,2.1.8,4.3,1.2,6.6,1.1,0,3.3.2,4.9.4,10l.4.2c-8.6,19.8-.8,36.2.3,40.8.2,1.1,4,9.9,10.3,15.4Z"/><path class="cls-9" d="M151.7,60.1c0,.1,0,.2,0,.3"/><path class="cls-9" d="M158.8,60c0,0-.1,0-.2,0"/><path class="cls-9" d="M151.7,60.4s0,0-.1,0"/><path class="cls-7" d="M121.4,61.1c-2.2,0-4.5-.3-6.6-1.1,0,0,0,0,0,0v-.2c0,0,0,0,0,0-.5-.9-.6-6.3-.8-7.3-.1-1.1.2-2.2,1.1-2.8.6-.4,1.3-.4,2-.5,1.5,0,2.8-.4,4,.5,1.1.8,1.8,2,1.9,3.3.1,1.3-.6,7.2-1.5,8.2Z"/><path class="cls-7" d="M158.2,60.1c-2,.4-4,.5-6,.4h0c-1.3-1-2.4-7.5-1.4-8.8,1-1.3,2.7-1.9,4.4-1.7,1.1.1,2.2.6,2.8,1.5.9,1.3,1,7.2.2,8.6Z"/><path class="cls-9" d="M158.2,60.1s0,0,0,0"/><path class="cls-9" d="M127,78.4c0,0-.1.2-.2.3"/><path class="cls-9" d="M126.8,78.8s0,0,0,0c0-.1,0-.4.2-.6"/><path class="cls-2" d="M132.8,248.9c-1.1,5.7-7.9,6.4-12.2,2.3-1.2-1.2.6-12.3.8-13.8.3-1.6,1.2-5.1,1.8-6.5.4-1,.4,1.3,3.9,1.4,2.7,0,3.4-2.5,3.8-1.6.6,1.3,2.1,16.6,1.8,18.1Z"/><path class="cls-2" d="M154.7,250.9c-4.6,4-11.9,3.3-13.1-2.3-.3-1.5,1.4-16.6,2-17.9.4-.9,1.2,1.7,4.1,1.6,3.7-.1,3.7-2.3,4.1-1.4.7,1.3,1.6,4.8,1.9,6.4.3,1.5,2.2,12.4.9,13.6Z"/></g></svg>