<?xml version="1.0" encoding="UTF-8"?><svg xmlns="http://www.w3.org/2000/svg" width="300" height="300" viewBox="0 0 300 300"><defs><style>.cls-1{fill:#4b4e58;}.cls-1,.cls-2,.cls-3,.cls-4,.cls-5,.cls-6,.cls-7,.cls-8{stroke-linecap:round;stroke-linejoin:round;stroke-width:.5px;}.cls-1,.cls-2,.cls-3,.cls-4,.cls-5,.cls-6,.cls-7,.cls-8,.cls-9{stroke:#000;}.cls-2{fill:#8295ca;}.cls-3{fill:#52433f;}.cls-10{stroke:#58595b;stroke-width:.2px;}.cls-10,.cls-7{fill:#fff;}.cls-10,.cls-9{stroke-miterlimit:10;}.cls-4{fill:#acafb9;}.cls-5{fill:#c59b7c;}.cls-6{fill:#73809e;}.cls-8,.cls-9{fill:none;}.cls-11,.cls-12{stroke-width:0px;}.cls-12{fill:#27b04b;}</style></defs><g id="Grid"><rect class="cls-10" x="29.3" y="29.3" width="241.5" height="241.5"/><line class="cls-10" x1="29.3" y1="258.6" x2="270.7" y2="258.6"/><line class="cls-10" x1="29.3" y1="246.6" x2="270.7" y2="246.6"/><line class="cls-10" x1="29.3" y1="234.5" x2="270.7" y2="234.5"/><line class="cls-10" x1="29.3" y1="222.5" x2="270.7" y2="222.5"/><line class="cls-10" x1="29.3" y1="210.4" x2="270.7" y2="210.4"/><line class="cls-10" x1="29.3" y1="198.3" x2="270.7" y2="198.3"/><line class="cls-10" x1="29.3" y1="186.2" x2="270.7" y2="186.2"/><line class="cls-10" x1="29.3" y1="174.2" x2="270.7" y2="174.2"/><line class="cls-10" x1="29.3" y1="162.1" x2="270.7" y2="162.1"/><line class="cls-10" x1="29.3" y1="150" x2="270.7" y2="150"/><line class="cls-10" x1="29.3" y1="137.9" x2="270.7" y2="137.9"/><line class="cls-10" x1="29.3" y1="125.8" x2="270.7" y2="125.8"/><line class="cls-10" x1="29.3" y1="113.8" x2="270.7" y2="113.8"/><line class="cls-10" x1="29.3" y1="101.7" x2="270.7" y2="101.7"/><line class="cls-10" x1="29.3" y1="89.6" x2="270.7" y2="89.6"/><line class="cls-10" x1="29.3" y1="77.5" x2="270.7" y2="77.5"/><line class="cls-10" x1="29.3" y1="65.5" x2="270.7" y2="65.5"/><line class="cls-10" x1="29.3" y1="53.4" x2="270.7" y2="53.4"/><line class="cls-10" x1="29.3" y1="41.4" x2="270.7" y2="41.4"/><line class="cls-10" x1="258.6" y1="29.3" x2="258.6" y2="270.7"/><line class="cls-10" x1="246.6" y1="29.3" x2="246.6" y2="270.7"/><line class="cls-10" x1="234.5" y1="29.3" x2="234.5" y2="270.7"/><line class="cls-10" x1="222.5" y1="29.3" x2="222.5" y2="270.7"/><line class="cls-10" x1="210.4" y1="29.3" x2="210.4" y2="270.7"/><line class="cls-10" x1="198.3" y1="29.3" x2="198.3" y2="270.7"/><line class="cls-10" x1="186.2" y1="29.3" x2="186.2" y2="270.7"/><line class="cls-10" x1="174.2" y1="29.3" x2="174.2" y2="270.7"/><line class="cls-10" x1="162.1" y1="29.3" x2="162.1" y2="270.7"/><line class="cls-10" x1="150" y1="29.3" x2="150" y2="270.7"/><line class="cls-10" x1="137.9" y1="29.3" x2="137.9" y2="270.7"/><line class="cls-10" x1="125.8" y1="29.3" x2="125.8" y2="270.7"/><line class="cls-10" x1="113.8" y1="29.3" x2="113.8" y2="270.7"/><line class="cls-10" x1="101.7" y1="29.3" x2="101.7" y2="270.7"/><line class="cls-10" x1="89.6" y1="29.3" x2="89.6" y2="270.7"/><line class="cls-10" x1="77.5" y1="29.3" x2="77.5" y2="270.7"/><line class="cls-10" x1="65.5" y1="29.3" x2="65.5" y2="270.7"/><line class="cls-10" x1="53.4" y1="29.3" x2="53.4" y2="270.7"/><line class="cls-10" x1="41.4" y1="29.3" x2="41.4" y2="270.7"/><line class="cls-9" x1="23.9" y1="150" x2="276.1" y2="150"/><polygon class="cls-11" points="24.7 152.5 20.4 150 24.7 147.5 24.7 152.5"/><polygon class="cls-11" points="275.3 152.5 279.6 150 275.3 147.5 275.3 152.5"/><line class="cls-9" x1="150" y1="23.9" x2="150" y2="276.1"/><polygon class="cls-11" points="147.5 24.7 150 20.4 152.5 24.7 147.5 24.7"/><polygon class="cls-11" points="147.5 275.3 150 279.6 152.5 275.3 147.5 275.3"/></g><g id="Lines"><polygon class="cls-12" points="259.5 87.6 265.8 71.7 249 74.8 252.7 79.3 44.2 251.3 40.5 246.8 34.2 262.7 51 259.6 47.3 255 255.8 83 259.5 87.6"/></g><g id="Latin"><path class="cls-4" d="M135.3,165.4s-2.1,3.9-9.2,3.9c-5.3,4.6-3.5-22.3,0-35.4v-.2c-8,2.6-17.7,5.2-25.5,6.5-5.5,25-16.1,66.9-17.7,69.1,0,0-.1,0-.2,0-4.6,2.7-8.2,2.3-12,0-3.9-2.1,2.4-24.5,6.4-38.8,4.2-15.1-.3-24.9,2-39.5,0-.2.2-4.1.8-7.8,8.5-1,20.3-.6,26.3,3.3,2-3.5,2.7-4.9,3.5-7.2l.5.2c5.3-1.8,14.5-2.2,21.4-1.6,4.3.4,7.7,1.2,8.6,2.5,0,13.8-5.3,29.4-4.9,44.8Z"/><path class="cls-7" d="M87.3,110.4c0,.2-.2.4-.3.6"/><path class="cls-6" d="M118.6,79.8h0s0-.2-.4-.6c0,0,0,.1,0,.2-.3-.3-.7-.8-1.1-1.4-1.6-1.9-3.9-4.7-4.7-5.6-1.4-1.6-5.6-5.7-7.6-4.9-2.4.7-3.7.7-7,2.5-2.1,1-3.7,1.9-5.2,2.8-.4-2.9.8-6,3-7.9,2.2-2,5.5-2.8,8.4-2.1.8.2,1.5.5,2.2.9,2.8,1.5,4.9,4.1,6.9,6.6,1.3,1.6,4,4.8,5.4,6.5.1,1.1.2,2.1.3,3.1Z"/><path class="cls-2" d="M118.6,79.8h0s-.2-.2-.4-.4c-.7,4.5-1.4,8.9-2.1,13.4-.4,2.2-.7,4.5-1.9,6.5-.3-7.2.6-14.4,2.8-21.2-1.6-1.9-3.9-4.7-4.7-5.6-1.4-1.6-5.6-5.7-7.6-4.9-2.4.7-3.7.7-7,2.5-2.1,1-3.7,1.9-5.2,2.8-4.3,2.6-7.4,5.4-16,9.9-2.8,2.5-6.8,3.1-4.3,11.7,1.9,6.5,3.2,11.4,5.9,20.5.1.4.5.6,1,.7,2,.4,6.3-1.2,7.9-4.6,2.6.8,3.2,3.4,3,6.2-.2,2.7-2.6,3.9-5.3,4.2-1.6.2-3-.6-4.2-1.7-.3,1.1-.5,2.4-.8,3.7,8.5-1,20.3-.6,26.3,3.3,2-3.5,2.7-4.9,3.5-7.2.9-2.4,2-5.9,5-13.8,1.1-2.9,2-5.4,2.6-7.9,0,0,0-.1,0-.2,1.5-5.7,1.8-10.8,1.2-17.9ZM87,109.4c-1.5-5.3-2.3-12.6-3.4-17.8,4-1.2,6.9-1.9,10.9-3.1-1.4,3.1-6.3,17.9-7.5,20.9Z"/><path class="cls-7" d="M118.1,79.3c-.7,4.5-1.4,8.9-2.1,13.4-.4,2.2-.7,4.5-1.9,6.5-.3-7.2.6-14.4,2.8-21.2.5.6.9,1,1.1,1.4Z"/><path class="cls-8" d="M94.5,88.5c3.2-1,9.1-2.6,11.8-4.5,1-.7,1.8-1.4,2.5-2"/><path class="cls-7" d="M87.2,110.7c-.1-.3,0-1-.1-1.3v1.3Z"/><path class="cls-7" d="M118,95c-.2,1-.4,1.9-.6,2.6"/><path class="cls-2" d="M131.6,118h0c-6.9-.6-16.1-.1-21.4,1.6l-.5-.2c.9-2.4,2-5.9,5-13.8,1.1-2.9,2-5.4,2.6-7.9-1,5.3-.3,6.3-1.7,13.2,2.6,2.3,12.8,5.7,16,7Z"/><path class="cls-1" d="M90.9,216.5c-2.3,2.4-7.2,4.1-9.9,4.8-5.2,1.3-8.2,2.3-9.6,1.1-4.9-4.2-2.4-11-.8-13,3.9,2.3,7.4,2.7,12,0,0,0,0,0,.2,0,10.3-2.6,12.7,2.3,8,7.1Z"/><path class="cls-3" d="M133.6,45.6c-2.5-.8-7.3-.5-8.7,1.7-.6.9-5.2,16.1-7.8,5.2-.4-.8-1.6-1-2.4-.6-.8.4-1.3,1.2-1.7,2.1-.4.9-.8,1.9-.8,2.9,0,1,.3,2.1,1.1,2.7h-.1c-2,1.2-4.4,1.5-6.7,1h0c-5.4-1.2-3.8-17.9-.3-22.8,3.5-4.9,10.8-4,16.7-3,3,.5,10.5,3.4,13,5,1.2.8-.9,4.2-2.2,5.8Z"/><path class="cls-7" d="M131.2,66.9c-.2.4-1.1,1.1-1.5,1.9-.1,0-.3,0-.5,0-2.2-.5-1.8-2-1.8-3.7.3.2,2,1.1,3.8,1.9Z"/><path class="cls-8" d="M129.7,68.8s0,0,0,0"/><path class="cls-5" d="M134.2,52c.2,0,.3,0,.5.1.7-2.5.2-4.3-1.1-6.5h0c-2.5-.8-7.3-.5-8.7,1.6-.6.9-5.2,16.1-7.8,5.2-.4-.8-1.6-1-2.4-.6-.8.4-1.3,1.2-1.7,2.1-.4.9-.8,1.9-.8,2.9,0,1,.3,2.1,1.1,2.7h-.1c-2,1.2-4.4,1.5-6.7,1h0c0,2.8-.3,2-.1,2.7v.2c2.6,1.5,4.8,4.1,6.8,6.6,1.3,1.6,4,4.8,5.4,6.5,0-1-.2-2.1-.3-3.2-.5-1.7,1.8-2.3,1.8-2.3l.4-.2c2.9,2.8,5,3.1,5.7,3.1,1.8.2,1.5-1.2,2-2.3.5-1,2.1-2.3,2.1-2.6,0-.3-.1-.4-.3-.4s-.3,0-.5,0c-2.2-.5-1.8-2-1.8-3.7.3.2,2,1.1,3.8,1.9.1,0,.3.1.4.2.3-.7.2-1.2.8-2.7,1,0,1.9-.4,1.9-1.4,0-1.7-1.4-4.4-.7-7.9.2-.5.3-.5.4-.9h0c0,0-.2,0-.2,0-.7-.2-1.4-.4-2.1-.4-.5,0-.9,0-.7-.5.4-1.1,2.2-1.3,3.2-1.2ZM131.9,54.8c.4,0,.7.9.5,1.9-.2,1-.7,1.7-1.1,1.6-.4,0-.7-.9-.5-1.9.2-1,.6-1.7,1.1-1.6Z"/><path class="cls-5" d="M90,117.2c-.2,2.7-2.6,3.9-5.3,4.2-1.6.2-3-.6-4.2-1.7-1.2-1.1-1.9-2.5-1.4-4h0c2,.3,6.3-1.2,7.9-4.6,2.6.8,3.2,3.4,3,6.2Z"/><path class="cls-1" d="M145.5,166.7c-.9,4-4.6,6-9.1,9.1-2.2,1.5-5.6,3-8.2,4.3-3.7,1.7-3.2-9.7-2.1-10.8,7.1,0,9.2-3.9,9.2-3.9,2.2-1.1,11-2,10.2,1.3Z"/><path class="cls-8" d="M116,59.8c-.8.6-2,.5-2.8-.2"/><path class="cls-8" d="M132.4,64.4c-.4,0-.8-.2-1.2-.4"/><path class="cls-8" d="M120.2,70.9c-.8-.8-1.7-1.7-2.6-2.9"/><path class="cls-11" d="M132.4,56.7c-.2,1-.7,1.7-1.1,1.6-.4,0-.7-.9-.5-1.9.2-1,.6-1.7,1.1-1.6.4,0,.7.9.5,1.9Z"/><path class="cls-8" d="M92.5,73c0,0,0-.2,0-.3"/><path class="cls-8" d="M118.4,76.7s0,0,0,0"/><path class="cls-8" d="M107.6,112.2c-2.7,4.1-4.4,7.2-8.8,9.2"/><line class="cls-8" x1="133.6" y1="45.7" x2="133.6" y2="45.7"/><path class="cls-7" d="M117.1,77.8c0,0,0,.1,0,.2"/><path class="cls-3" d="M134.8,53.1c-.1.2-.2.5-.3.7,0,.1-.1.2-.2.3,0,0-.2,0-.3,0,0,0-.2,0-.2,0-.7-.2-1.4-.4-2.1-.4-.5,0-.9,0-.7-.5.4-1.1,2.2-1.3,3.2-1.2.2,0,.3,0,.5.1.1,0,.2.2.3.3,0,.2,0,.5-.1.7Z"/><path class="cls-7" d="M101.5,136.2c-.3,1.3-.6,2.7-.9,4.1"/><path class="cls-7" d="M100.6,140.3c0,0-.1,0-.2,0"/><path class="cls-7" d="M131.9,131.7c-1.8.7-3.8,1.4-5.9,2.1"/></g></svg>