<?xml version="1.0" encoding="UTF-8"?><svg xmlns="http://www.w3.org/2000/svg" width="300" height="300" viewBox="0 0 300 300"><defs><style>.cls-1{fill:#262120;}.cls-1,.cls-2,.cls-3,.cls-4,.cls-5,.cls-6,.cls-7,.cls-8,.cls-9{stroke-linecap:round;stroke-linejoin:round;stroke-width:.5px;}.cls-1,.cls-2,.cls-3,.cls-4,.cls-5,.cls-6,.cls-7,.cls-8,.cls-9,.cls-10{stroke:#000;}.cls-2{fill:#2a1a17;}.cls-11{stroke-width:.2px;}.cls-11,.cls-7,.cls-12{fill:#fff;}.cls-11,.cls-12{stroke:#58595b;}.cls-11,.cls-12,.cls-10{stroke-miterlimit:10;}.cls-3{fill:#a6580e;}.cls-4{fill:#b2784d;}.cls-5{fill:#b6d1d8;}.cls-6{fill:#ff89aa;}.cls-8,.cls-10{fill:none;}.cls-13,.cls-14{stroke-width:0px;}.cls-14{fill:#27b04b;}</style></defs><g id="Grid"><rect class="cls-11" x="30" y="29.3" width="241.5" height="241.5"/><line class="cls-11" x1="30" y1="258.6" x2="271.5" y2="258.6"/><line class="cls-11" x1="30" y1="246.6" x2="271.5" y2="246.6"/><line class="cls-11" x1="30" y1="234.5" x2="271.5" y2="234.5"/><line class="cls-11" x1="30" y1="222.5" x2="271.5" y2="222.5"/><line class="cls-11" x1="30" y1="210.4" x2="271.5" y2="210.4"/><line class="cls-11" x1="30" y1="198.3" x2="271.5" y2="198.3"/><line class="cls-11" x1="30" y1="186.2" x2="271.5" y2="186.2"/><line class="cls-11" x1="30" y1="174.2" x2="271.5" y2="174.2"/><line class="cls-11" x1="30" y1="162.1" x2="271.5" y2="162.1"/><line class="cls-12" x1="30" y1="150" x2="271.5" y2="150"/><line class="cls-11" x1="30" y1="137.9" x2="271.5" y2="137.9"/><line class="cls-11" x1="30" y1="125.8" x2="271.5" y2="125.8"/><line class="cls-11" x1="30" y1="113.8" x2="271.5" y2="113.8"/><line class="cls-11" x1="30" y1="101.7" x2="271.5" y2="101.7"/><line class="cls-11" x1="30" y1="89.6" x2="271.5" y2="89.6"/><line class="cls-11" x1="30" y1="77.5" x2="271.5" y2="77.5"/><line class="cls-11" x1="30" y1="65.5" x2="271.5" y2="65.5"/><line class="cls-11" x1="30" y1="53.4" x2="271.5" y2="53.4"/><line class="cls-11" x1="30" y1="41.4" x2="271.5" y2="41.4"/><line class="cls-11" x1="259.4" y1="29.3" x2="259.4" y2="270.7"/><line class="cls-11" x1="247.3" y1="29.3" x2="247.3" y2="270.7"/><line class="cls-11" x1="235.3" y1="29.3" x2="235.3" y2="270.7"/><line class="cls-11" x1="223.2" y1="29.3" x2="223.2" y2="270.7"/><line class="cls-11" x1="211.1" y1="29.3" x2="211.1" y2="270.7"/><line class="cls-11" x1="199" y1="29.3" x2="199" y2="270.7"/><line class="cls-11" x1="186.9" y1="29.3" x2="186.9" y2="270.7"/><line class="cls-11" x1="174.9" y1="29.3" x2="174.9" y2="270.7"/><line class="cls-11" x1="162.8" y1="29.3" x2="162.8" y2="270.7"/><line class="cls-12" x1="150.8" y1="29.3" x2="150.8" y2="270.7"/><line class="cls-11" x1="138.7" y1="29.3" x2="138.7" y2="270.7"/><line class="cls-11" x1="126.6" y1="29.3" x2="126.6" y2="270.7"/><line class="cls-11" x1="114.6" y1="29.3" x2="114.6" y2="270.7"/><line class="cls-11" x1="102.5" y1="29.3" x2="102.5" y2="270.7"/><line class="cls-11" x1="90.4" y1="29.3" x2="90.4" y2="270.7"/><line class="cls-11" x1="78.3" y1="29.3" x2="78.3" y2="270.7"/><line class="cls-11" x1="66.2" y1="29.3" x2="66.2" y2="270.7"/><line class="cls-11" x1="54.2" y1="29.3" x2="54.2" y2="270.7"/><line class="cls-11" x1="42.1" y1="29.3" x2="42.1" y2="270.7"/><line class="cls-10" x1="24.7" y1="150" x2="276.8" y2="150"/><polygon class="cls-13" points="25.4 152.5 21.1 150 25.4 147.5 25.4 152.5"/><polygon class="cls-13" points="276.1 152.5 280.4 150 276.1 147.5 276.1 152.5"/><line class="cls-10" x1="150.8" y1="23.9" x2="150.8" y2="276.1"/><polygon class="cls-13" points="148.3 24.7 150.8 20.4 153.2 24.7 148.3 24.7"/><polygon class="cls-13" points="148.3 275.3 150.8 279.6 153.2 275.3 148.3 275.3"/></g><g id="Lines"><polygon class="cls-14" points="300 234.3 285.1 226 285.1 231.9 14.8 231.9 14.8 226 -.2 234.3 14.8 242.6 14.8 236.7 285.1 236.7 285.1 242.6 300 234.3"/></g><g id="Latin"><path class="cls-1" d="M125.3,190.9c.2,8.3.3,17.1.2,23.8h-.2c-2.6,1.4-5.4,2.6-8.4,3.4-13,3.6-28.8,1.4-42.2-2.8-2.8-.8-5.4-1.8-8-2.8,3.3-8.9,2.2-11.8,3.4-17.9,3.4-11.9,2.7-33.8,6.2-43.7.9,2.3,1.9,4.3,2.8,5.8.2.3.5.4,1,.4s1.3-.2,2-.5l-.5.5c.6,3.5,1,3.3,1.6,6.8.2,1.1,1.7.9,2.8,1.4.8.3,3.8-1.2,4.1-2,1.9-4.7-.4-6.5-4.2-10.2-.4-.8-.8-1.6-1.1-2.4,4.4,2.2,10.6-.3,10.4-1.4-.3-1.4-.2-1.6-.3-2.7h0c.4,0,.8,0,1.1-.2.7-.3,1.2-1.1,1.4-1.9.2-.8.1-1.6.1-2.4,0-.3,0-.6,0-.9,2.1,0,3.5-.6,5.3-1.5.3,3.5,1,6.8,1.8,10.5h0c1.4,1.6,2.8,3.4,4.4,5.4,1.6,2.1,3.3,4.4,5,6.7,7.1,10.1,13.4,21.7,11.3,28.5Z"/><path class="cls-4" d="M90.1,163.2c-.3.8-3.2,2.3-4.1,2-1.1-.5-2.6-.3-2.8-1.4-.6-3.5-1-3.3-1.6-6.8l.5-.5,3.7-3.5c3.9,3.6,6.2,5.4,4.2,10.2Z"/><path class="cls-6" d="M94.8,146.6h0c-.7-.1-1.5-.5-2.2-.9-1.5-.8-3.2-1.9-3.7-3.6-.3-1,0-2,.1-3,1.3-5.8,4.4-11.2,5.1-17.2.7-5.7-.6-12.4-3.9-17.1-3.3-4.7-7.7-2.3-10.6-1.3-1.8,1.3-1.5,1.6-2.8,3.8-3.4,5.7-2.9,6.8-5.8,12.8-1.2,2.5-2.4,5-2.4,7.7s1.6,7.2,3.2,11.4c1.1,2.8,2.8,7.5,4.5,11.5.9,2.3,1.9,4.3,2.8,5.8.2.3.5.4,1,.4s1.3-.2,2-.5c2-.8,4.2-2.5,3.7-3.5-.4-.8-.8-1.6-1.1-2.4,4.4,2.2,10.6-.3,10.4-1.4-.3-1.4-.2-1.6-.3-2.7ZM78.5,131.9c-.3-1.1-.6-2.1-1-3.2.1-.2.3-.4.4-.5,0,0,0,0,0,0,.1-.1.3-.4.3-.4.2-.3.4-.5.6-.8h0c-.2,2.6,0,2.5-.4,5.1Z"/><path class="cls-8" d="M78.9,126.8c3.3-4.3,7.5-9.4,10.2-13.4"/><path class="cls-8" d="M78.5,131.9c1.8,6.1,2.9,11.4,6.3,18.8"/><path class="cls-5" d="M104.8,121c-.3,1.2-.6,2.5-.8,3.6h0c0,.1,0,.3,0,.4,0,0,0,0,0,0-.4,1.9-.7,3.6-.9,5.2-1.5.5-2.2.2-3.8.2h-.1c.4-1.9.8-4,1.1-6.4.9-8.7-1.2-15.8-4.4-21.9h0c1.8,1.4,3.3,2.7,4.8,1.8,2.6,4.2,5.4,12.3,4.1,17.1Z"/><path class="cls-8" d="M104,124.6c0,.1,0,.3,0,.4"/><path class="cls-4" d="M74.8,215.2c-.5.9-1.6,3.3-4.5,9v.3c-2.8-.5-5.3-.5-8-1.8,2.1-4.2,3.6-7.5,4.6-10.3,2.5,1,5.2,1.9,8,2.8Z"/><path class="cls-8" d="M72.6,225.1c-.3,0-.6-.2-.9-.2"/><path class="cls-4" d="M125.6,214.6c0,4.8-.1,8.5-.2,10-2.3,1.8-2.5,2.4-7.3,1.4-.2-3.1-.6-5.7-1-8,3-.8,5.8-1.9,8.4-3.4h.2Z"/><path class="cls-6" d="M112,154.1c-.8.6-2.2,1.2-3,1.6-1.5-2-3-3.8-4.4-5.4h0c-.8-3.7-1.5-7-1.8-10.4-.3-3-.2-6.1.2-9.6.2-1.6.5-3.3.9-5.2-.7,5,5.3,24.8,8.6,27.9.4.4.1.8-.4,1.2Z"/><path class="cls-4" d="M114,162.4c-1.7-2.4-3.3-4.6-5-6.7.8-.4,2.2-1,3-1.6,5.4,4.1,3.4,7.6,2,8.4Z"/><path class="cls-1" d="M79.5,230.2c-.2.7-.9,1.2-1.7,1.5-.8.2-2.8.4-3.6.4-4.7,0-9.5,0-14-1.2-1-.3-1.7-5.4,2-8.2,2.8,1.2,5.2,1.3,8,1.8.5,0,1,.2,1.5.3h0c1.9.5,5.6,1.2,6.6,1.7,1.2.5,1.6,2.6,1.2,3.8Z"/><path class="cls-8" d="M71.7,224.8c-.3,0-.5-.1-.7-.2"/><path class="cls-1" d="M136.2,231.8c-3.6.1-17.9.5-19.2.3-1.3-.3.3-5.1,1-6.1,4.8.9,5,.3,7.3-1.4,1.4.2,9.3,1.5,10.2,2.4.9.9,1.3,3.8.7,4.9Z"/><path class="cls-8" d="M107.7,87.4h0"/><path class="cls-4" d="M108.6,83.8q-.5-.9-.6-3c1.6-6.4,1.3-9.7-.7-11.5-1.2.8-2.4,2-3.9,3-1.9,1.2-3,1.2-4.2,3.5-.5.9-3.3,8.1-4.3,10.7-1.9,4.6-6.6,5.1-8.6,3.7.5,1.1.6,2.6.5,3.7h0c2.6,1.7,6.4,3.6,8.5,7.2.2.3.3.6.5.8h0c1.8,1.4,3.3,2.7,4.8,1.8-.5-.8-1-1.4-1.4-1.9-.5-1-1.6-5.2-.4-7.3,1,.4,1.9.6,3.4,1.4.7.2,1.2.3,1.7.4,2,.4,2-.1,2.9-5.1,0,.2-1.4,1.3-4-2.9,1.3.6,3.2,1,4.6,1,.3-.2.4-1.3.5-2.1.6,0,1.2-.3,1.5-1,.5-.9-.2-1.7-.7-2.6ZM105,83.1c-.3,0-.5-.9-.5-2s.2-2,.5-2,.5.9.5,2-.2,2-.5,2ZM107.5,77.2c-.5.4-1-.2-2-.3-1.3-.1-2.4.5-3.5.1,2-1.5,2.2-2,4.3-1.6,0,0,.2,0,.3.1h0s0,0,0,0c.4.2.7.4,1,.7.3.3.3.7,0,1Z"/><path class="cls-8" d="M94,90.5c2.4,2.8,3.7,3.7,4.8,4.2"/><path class="cls-2" d="M107.5,77.2c-.5.4-1-.2-2-.3-1.3-.1-2.4.5-3.5.1,2-1.5,2.2-2,4.3-1.6-.4,0,0,0,.3.1h0s0,0,0,0c.4.2.7.4,1,.7.3.3.3.7,0,1Z"/><path class="cls-8" d="M106.6,75.6s0,0,0,0"/><path class="cls-8" d="M106.9,87.3c.3,0,.6.1.8.1"/><path class="cls-9" d="M105.5,81.1c0,1.1-.2,2-.5,2s-.5-.9-.5-2,.2-2,.5-2,.5.9.5,2Z"/><path class="cls-7" d="M107.3,89.5l-.5,1.8c0,.2-1.4,1.3-4-2.9,1.3.6,3.2,1,4.6,1Z"/><path class="cls-2" d="M100.2,124c-.3,2.5-.7,4.5-1.1,6.4-.8,3.5-1.6,6.5-1.6,10.9,0,.3,0,.6,0,.9,0,.8,0,1.6-.1,2.4-.2.8-.7,1.5-1.4,1.9-.4.2-.8.2-1.1.1-.7,0-1.5-.5-2.2-.8-1.5-.8-3.2-1.9-3.7-3.6-.3-1,0-2,.1-3,1.3-5.8,4.4-11.2,5.1-17.2.7-5.7-.6-12.4-3.9-17.1-3.3-4.7-7.7-2.3-10.6-1.3-1.4.5-2.5.7-2.8-.5-1-3.6-.3-11.8,3-13.3.6.7,1.5,1.4,2.2,1.7.7.4,1.6.3,2.3,0h0c.2.9,1.1,1.6,2.5,2.5,2.6,1.6,6.4,3.5,8.5,7.2.2.3.3.6.5.8,3.3,6,5.4,13.2,4.4,21.9Z"/><path class="cls-3" d="M102.8,139.8c-1.9.8-3.3,1.4-5.3,1.5,0-4.4.9-7.4,1.6-10.9h.1c1.6,0,2.3.3,3.8-.2-.4,3.6-.4,6.7-.2,9.6Z"/><path class="cls-8" d="M97.5,141.3h0"/><path class="cls-1" d="M85.6,90.4c-.3.5-.7,1-1.3,1.2-.7.3-1.6.4-2.3,0-.7-.3-1.5-1-2.2-1.7-.6-.7-.8-1.5-.4-2.1h0c1.8,2,4.9,2.8,6.1,2.6Z"/><path class="cls-2" d="M107.4,69.2v.2c-1.4.8-2.5,2-4,3-1.9,1.2-3,1.2-4.2,3.5-.5.9-3.3,8.1-4.3,10.7-1.9,4.6-6.6,5.1-8.6,3.7h-.4c0,0-.2,0-.4.1h0c-1.2.2-4.3-.6-6.1-2.6-.4-.4-.7-.9-.9-1.5-1.3-3.4-.2-5.8-.1-9.5,0-3.7,1.9-8.3,4.7-10.7,4-3.3,11.1-4.8,16.1-3.5,2.4.6,5.3,1.3,6.9,3,.9.9,1.4,2.1,1.2,3.6Z"/><path class="cls-2" d="M111.9,79.8c-.2,2.6-.6,5.2-1.4,7.6-.9,2.4-3.7,16.8-6.6,9.1h0c2,.3,2-.2,2.9-5.2l.5-1.8c.3-.2.4-1.3.5-2.1.6,0,1.2-.3,1.5-1,.5-.9-.2-1.7-.7-2.6q-.5-.9-.6-3c1.6-6.4,1.3-9.7-.7-11.5v-.2c.4-1.5-.1-2.7-1.1-3.6,2,.8,4.7,4,5.3,6.5.6,2.5.6,5.2.3,7.8Z"/></g></svg>