<?xml version="1.0" encoding="UTF-8"?><svg xmlns="http://www.w3.org/2000/svg" width="300" height="300" viewBox="0 0 300 300"><defs><style>.cls-1{stroke:#58595b;stroke-width:.2px;}.cls-1,.cls-2,.cls-3,.cls-4,.cls-5,.cls-6,.cls-7,.cls-8,.cls-9,.cls-10,.cls-11,.cls-12{stroke-miterlimit:10;}.cls-1,.cls-13{fill:#fff;}.cls-14,.cls-2,.cls-3,.cls-4,.cls-5,.cls-6,.cls-7,.cls-8,.cls-9,.cls-13,.cls-11,.cls-12{stroke-width:.5px;}.cls-14,.cls-2,.cls-4,.cls-6,.cls-13,.cls-11{stroke:#231f20;}.cls-14,.cls-10,.cls-11,.cls-12{fill:none;}.cls-2{fill:#010101;}.cls-3{fill:#ef3a37;}.cls-3,.cls-5,.cls-7,.cls-8,.cls-9,.cls-10,.cls-12{stroke:#000;}.cls-4{fill:#987447;}.cls-5{fill:#ababab;}.cls-6{fill:#ddbda2;}.cls-7{fill:#ccc;}.cls-8{fill:#cd3543;}.cls-9{fill:#83424f;}.cls-15,.cls-16,.cls-17{stroke-width:0px;}.cls-16{fill:#27b04b;}.cls-17{fill:#dcb1a3;}</style></defs><g id="Grid"><rect class="cls-1" x="29.3" y="29.3" width="241.5" height="241.5"/><line class="cls-1" x1="29.3" y1="258.6" x2="270.7" y2="258.6"/><line class="cls-1" x1="29.3" y1="246.6" x2="270.7" y2="246.6"/><line class="cls-1" x1="29.3" y1="234.5" x2="270.7" y2="234.5"/><line class="cls-1" x1="29.3" y1="222.5" x2="270.7" y2="222.5"/><line class="cls-1" x1="29.3" y1="210.4" x2="270.7" y2="210.4"/><line class="cls-1" x1="29.3" y1="198.3" x2="270.7" y2="198.3"/><line class="cls-1" x1="29.3" y1="186.2" x2="270.7" y2="186.2"/><line class="cls-1" x1="29.3" y1="174.2" x2="270.7" y2="174.2"/><line class="cls-1" x1="29.3" y1="162.1" x2="270.7" y2="162.1"/><line class="cls-1" x1="29.3" y1="150" x2="270.7" y2="150"/><line class="cls-1" x1="29.3" y1="137.9" x2="270.7" y2="137.9"/><line class="cls-1" x1="29.3" y1="125.8" x2="270.7" y2="125.8"/><line class="cls-1" x1="29.3" y1="113.8" x2="270.7" y2="113.8"/><line class="cls-1" x1="29.3" y1="101.7" x2="270.7" y2="101.7"/><line class="cls-1" x1="29.3" y1="89.6" x2="270.7" y2="89.6"/><line class="cls-1" x1="29.3" y1="77.5" x2="270.7" y2="77.5"/><line class="cls-1" x1="29.3" y1="65.5" x2="270.7" y2="65.5"/><line class="cls-1" x1="29.3" y1="53.4" x2="270.7" y2="53.4"/><line class="cls-1" x1="29.3" y1="41.4" x2="270.7" y2="41.4"/><line class="cls-1" x1="258.6" y1="29.3" x2="258.6" y2="270.7"/><line class="cls-1" x1="246.6" y1="29.3" x2="246.6" y2="270.7"/><line class="cls-1" x1="234.5" y1="29.3" x2="234.5" y2="270.7"/><line class="cls-1" x1="222.5" y1="29.3" x2="222.5" y2="270.7"/><line class="cls-1" x1="210.4" y1="29.3" x2="210.4" y2="270.7"/><line class="cls-1" x1="198.3" y1="29.3" x2="198.3" y2="270.7"/><line class="cls-1" x1="186.2" y1="29.3" x2="186.2" y2="270.7"/><line class="cls-1" x1="174.2" y1="29.3" x2="174.2" y2="270.7"/><line class="cls-1" x1="162.1" y1="29.3" x2="162.1" y2="270.7"/><line class="cls-1" x1="150" y1="29.3" x2="150" y2="270.7"/><line class="cls-1" x1="137.9" y1="29.3" x2="137.9" y2="270.7"/><line class="cls-1" x1="125.8" y1="29.3" x2="125.8" y2="270.7"/><line class="cls-1" x1="113.8" y1="29.3" x2="113.8" y2="270.7"/><line class="cls-1" x1="101.7" y1="29.3" x2="101.7" y2="270.7"/><line class="cls-1" x1="89.6" y1="29.3" x2="89.6" y2="270.7"/><line class="cls-1" x1="77.5" y1="29.3" x2="77.5" y2="270.7"/><line class="cls-1" x1="65.5" y1="29.3" x2="65.5" y2="270.7"/><line class="cls-1" x1="53.4" y1="29.3" x2="53.4" y2="270.7"/><line class="cls-1" x1="41.4" y1="29.3" x2="41.4" y2="270.7"/><line class="cls-10" x1="23.9" y1="150" x2="276.1" y2="150"/><polygon class="cls-15" points="24.7 152.5 20.4 150 24.7 147.5 24.7 152.5"/><polygon class="cls-15" points="275.3 152.5 279.6 150 275.3 147.5 275.3 152.5"/><line class="cls-10" x1="150" y1="23.9" x2="150" y2="276.1"/><polygon class="cls-15" points="147.5 24.7 150 20.4 152.5 24.7 147.5 24.7"/><polygon class="cls-15" points="147.5 275.3 150 279.6 152.5 275.3 147.5 275.3"/></g><g id="Lines"><polygon class="cls-16" points="281.1 152.4 292.8 139.9 276 136.6 277.8 142.2 20.7 225.4 18.9 219.8 7.2 232.3 24 235.6 22.2 230 279.3 146.8 281.1 152.4"/></g><g id="USA"><path class="cls-3" d="M83.6,195s2.6,3,5.1,3.3c2.5.3,5.5-.9,6,2.8.6,3.8-2.2,4.7-5.8,5.1-3.6.5-13.3-1.3-14.6-5-1.3-3.8,1.5-7.6,4-6.8,2.5.8,5.2.6,5.2.6Z"/><path class="cls-3" d="M129.3,184.2s-3,1.5-2,5.3c.9,3.9,4.5,3.6,8.4,1.9,3.9-1.7,12.9-2.2,11.5-8.6-1.4-6.5-12.5-.6-12.5-.6l-5.3,1.9Z"/><path class="cls-6" d="M101.3,155.4l-4.4,19.5-12.7,21.3s1.9,1.7-1.6,1.9c-3.5.2-6.1-1.8-4.9-3.9,1.2-2,3.5-9.3,3.6-11.7.1-2.4,3.3-8.5,6.5-9.2,0,0-2-12.6.6-21.7,0,0,9.7-5.8,13,3.9Z"/><path class="cls-6" d="M125.7,143.6s7.9,10.6,8,12.3c.1,1.7.7,25.5,1.4,26.5.7,1,.9,1.3.2,1.9s-5,3.3-6.9.9c0,0-.1-4.1-.6-6.5-.5-2.4-4.5-9.4-4.7-12.1-.1-2.6,1.5-7.3,1.5-7.3l-6.7-6.3s-4.1-10.1,7.8-9.6Z"/><path class="cls-5" d="M91.4,130.2l-5.3,22.2s1.9,4.9,6.8,5.6c4.9.7,10.8-.3,10.8-.3l4.9-18.6-1.5,6.5,11,10.4s3.1-1.6,5.4-4.2c2.3-2.6,4.4-7.3,4.4-7.3l-9.4-15.1-27.1.9Z"/><path class="cls-7" d="M95.9,131.9l-6.2,24.9s1.9,1.3,2.6,1.1l5.3-25.1-1.8-.9Z"/><line class="cls-12" x1="108.5" y1="141.3" x2="121" y2="154.2"/><path class="cls-12" d="M104.6,133.7s-2.6,8.7-8.7,7.2"/><path class="cls-12" d="M115.5,131.8s4,5.3,6.1,2.6"/><path class="cls-7" d="M108.4,133.2l.2,6.1s1.6-.2,1.4-5.9l-1.5-.2Z"/><path class="cls-6" d="M121.8,97.3s-2.9,10.2-4.6,11.9c-1.7,1.7-2.9-3.8-2.9-3.8l.2-11.8,7.3,3.6Z"/><path class="cls-8" d="M110.7,81.6s8.3,1.2,9.8,3.9c1.5,2.7,1.2,11.8,1.2,11.8,0,0-2,1-4.2.3l-.2-4.4s-.5,30.9,5.1,36.5c0,0-8.2,5.5-14.8,5.1-6.7-.3-17.6-2.4-17.6-2.4l4.4-35.8-8.4-6.1s9.6-9.2,11.3-8.4"/><path class="cls-6" d="M97.2,76.5s.2,7.5-1.9,8.7l6.3,4.6,8.6-.6,1.1-3.4-2.4-7.9-11.7-1.5Z"/><path class="cls-9" d="M96.7,82.4s-1.4.5-2.7,1.4c0,0,2.9,7,11.3,6.8,7-.1,8-3.2,5.5-8.5l-1.5-1.2-2.2-.2s5.9,5.9,2.6,7.7c-2.2,1.2-12.1,2.7-12.8-6Z"/><path class="cls-6" d="M96,98.8s7.2,9,9,15.9c0,0,1.7-.2,3.6.2,1.9.3,7.9,3.6,9.4,3.9,1.5.3,8.7-2,9.7-.2,1,1.9,1.2,6.1-.2,7.2-1.4,1-6,1.9-9.4-2.4,0,0-15.9-1-18.1-3.1-2.2-2-12.3-17.6-12.3-17.6,0,0,0-8.2,8.2-3.9Z"/><path class="cls-8" d="M87.4,89.7c-5.5,1.3-3.8,11.4,2,17.5,0,0,3.4-6.2,8.3-7.2,0,0-3.4-11.9-10.3-10.3Z"/><path class="cls-4" d="M123.4,57.9s-5.8,10-3.2,24.6c0,0-7.2,1.1-19.2-3.4,0,0-19.6-15-2.6-32.4,0,0,17.7-.8,24.9,11.2Z"/><path class="cls-6" d="M95.6,76.5s5.1,5.3,8.7,5.5c3.6.2,13-4.7,13.7-10.9.6-6,.3-5.4.3-5.4,0,0,1.7-5.2,1.5-6.5-.2-1.4-.4-9.2-6.2-10.3-5.9-1.1-13-6.1-17.6,7.1-4.6,13.2-.2,20.4-.4,20.4Z"/><path class="cls-4" d="M126.3,63.5s-5.4-30.1-19.2-21.1c0,0-7.4-7.4-16.7,3.8-11.9,14.2-6.5,31.5-4.5,34.4,0,0,9.4,1.4,11.1-.8,0,0-5.9-10.4-1-23.9l7.8.6s2.3-4.2,1-7.2c0,0,2.5,3.3,1.7,7.5,0,0,9.1.2,15.6,3.4,1.7.8,3.2,1.8,4.3,3.1Z"/><path class="cls-14" d="M97.5,45.4s-4.9,3.7-4.6,10.3l3.5.2"/><path class="cls-2" d="M113.7,66.7c-.7,0-1.2-1-1.1-2.2,0-1.2.7-2.1,1.3-2,.7,0,1.1,1,1.1,2.2,0,1.2-.7,2.1-1.3,2"/><path class="cls-2" d="M100.9,66.1c-.7,0-1.2-1-1.1-2.2,0-1.2.7-2.1,1.3-2,.7,0,1.1,1,1.1,2.2,0,1.2-.7,2.1-1.3,2"/><path class="cls-14" d="M116.1,61.2s-.7-2-2.3-.7"/><path class="cls-14" d="M102.3,60s-1.1-2.1-2.7.2"/><path class="cls-13" d="M112.6,74.2s-1.5,1-12.2-1.5c-1.7-.4,4.5,9.4,12.2,1.5Z"/><path class="cls-17" d="M101.4,69.9c0,1.3-1.5,2.2-3.2,2.1-1.7-.1-2.9-1.2-2.9-2.5,0-1.3,1.5-2.2,3.2-2.1,1.7.1,2.9,1.2,2.9,2.5Z"/><path class="cls-17" d="M116.5,70.7c0,1.3-1.5,2.2-3.2,2.1-1.7-.1-2.9-1.2-2.9-2.5,0-1.3,1.5-2.2,3.2-2.1,1.7.1,2.9,1.2,2.9,2.5Z"/><path class="cls-11" d="M107.5,67.6s.5,1,1.2,1c0,0-.3.9-1.4,1.4"/></g></svg>