<?xml version="1.0" encoding="UTF-8"?><svg xmlns="http://www.w3.org/2000/svg" width="300" height="300" viewBox="0 0 300 300"><defs><style>.cls-1{fill:#62524f;}.cls-1,.cls-2,.cls-3,.cls-4,.cls-5,.cls-6{stroke:#010101;stroke-linecap:round;stroke-linejoin:round;stroke-width:.5px;}.cls-7{fill:#fff;stroke:#58595b;stroke-width:.2px;}.cls-7,.cls-8{stroke-miterlimit:10;}.cls-2{fill:#23272c;}.cls-3{fill:#181819;}.cls-4{fill:#f4f4f4;}.cls-5{fill:#010101;}.cls-6,.cls-8{fill:none;}.cls-8{stroke:#000;}.cls-9,.cls-10,.cls-11{stroke-width:0px;}.cls-10{fill:#27b04b;}.cls-11{fill:#231f20;}</style></defs><g id="Grid"><rect class="cls-7" x="29.3" y="29.3" width="241.5" height="241.5"/><line class="cls-7" x1="29.3" y1="258.6" x2="270.7" y2="258.6"/><line class="cls-7" x1="29.3" y1="246.6" x2="270.7" y2="246.6"/><line class="cls-7" x1="29.3" y1="234.5" x2="270.7" y2="234.5"/><line class="cls-7" x1="29.3" y1="222.5" x2="270.7" y2="222.5"/><line class="cls-7" x1="29.3" y1="210.4" x2="270.7" y2="210.4"/><line class="cls-7" x1="29.3" y1="198.3" x2="270.7" y2="198.3"/><line class="cls-7" x1="29.3" y1="186.2" x2="270.7" y2="186.2"/><line class="cls-7" x1="29.3" y1="174.2" x2="270.7" y2="174.2"/><line class="cls-7" x1="29.3" y1="162.1" x2="270.7" y2="162.1"/><line class="cls-7" x1="29.3" y1="150" x2="270.7" y2="150"/><line class="cls-7" x1="29.3" y1="137.9" x2="270.7" y2="137.9"/><line class="cls-7" x1="29.3" y1="125.8" x2="270.7" y2="125.8"/><line class="cls-7" x1="29.3" y1="113.8" x2="270.7" y2="113.8"/><line class="cls-7" x1="29.3" y1="101.7" x2="270.7" y2="101.7"/><line class="cls-7" x1="29.3" y1="89.6" x2="270.7" y2="89.6"/><line class="cls-7" x1="29.3" y1="77.5" x2="270.7" y2="77.5"/><line class="cls-7" x1="29.3" y1="65.5" x2="270.7" y2="65.5"/><line class="cls-7" x1="29.3" y1="53.4" x2="270.7" y2="53.4"/><line class="cls-7" x1="29.3" y1="41.4" x2="270.7" y2="41.4"/><line class="cls-7" x1="258.6" y1="29.3" x2="258.6" y2="270.7"/><line class="cls-7" x1="246.6" y1="29.3" x2="246.6" y2="270.7"/><line class="cls-7" x1="234.5" y1="29.3" x2="234.5" y2="270.7"/><line class="cls-7" x1="222.5" y1="29.3" x2="222.5" y2="270.7"/><line class="cls-7" x1="210.4" y1="29.3" x2="210.4" y2="270.7"/><line class="cls-7" x1="198.3" y1="29.3" x2="198.3" y2="270.7"/><line class="cls-7" x1="186.2" y1="29.3" x2="186.2" y2="270.7"/><line class="cls-7" x1="174.2" y1="29.3" x2="174.2" y2="270.7"/><line class="cls-7" x1="162.1" y1="29.3" x2="162.1" y2="270.7"/><line class="cls-7" x1="150" y1="29.3" x2="150" y2="270.7"/><line class="cls-7" x1="137.9" y1="29.3" x2="137.9" y2="270.7"/><line class="cls-7" x1="125.8" y1="29.3" x2="125.8" y2="270.7"/><line class="cls-7" x1="113.8" y1="29.3" x2="113.8" y2="270.7"/><line class="cls-7" x1="101.7" y1="29.3" x2="101.7" y2="270.7"/><line class="cls-7" x1="89.6" y1="29.3" x2="89.6" y2="270.7"/><line class="cls-7" x1="77.5" y1="29.3" x2="77.5" y2="270.7"/><line class="cls-7" x1="65.5" y1="29.3" x2="65.5" y2="270.7"/><line class="cls-7" x1="53.4" y1="29.3" x2="53.4" y2="270.7"/><line class="cls-7" x1="41.4" y1="29.3" x2="41.4" y2="270.7"/><line class="cls-8" x1="23.9" y1="150" x2="276.1" y2="150"/><polygon class="cls-9" points="24.7 152.5 20.4 150 24.7 147.5 24.7 152.5"/><polygon class="cls-9" points="275.3 152.5 279.6 150 275.3 147.5 275.3 152.5"/><line class="cls-8" x1="150" y1="23.9" x2="150" y2="276.1"/><polygon class="cls-9" points="147.5 24.7 150 20.4 152.5 24.7 147.5 24.7"/><polygon class="cls-9" points="147.5 275.3 150 279.6 152.5 275.3 147.5 275.3"/></g><g id="Lines"><polygon class="cls-10" points="259.5 87.6 265.8 71.7 249 74.8 252.7 79.3 44.2 251.3 40.5 246.8 34.2 262.7 51 259.6 47.3 255 255.8 83 259.5 87.6"/></g><g id="Africa"><path class="cls-6" d="M102.6,139.8c-.1.6-.2,1.2-.4,1.7"/><path class="cls-6" d="M102.2,141.6c-.2,0-.5,0-.7,0"/><path class="cls-6" d="M132.4,133.1c-1.7.6-3.6,1.4-5.7,2.2"/><path class="cls-2" d="M137.8,166.1c-.2.9-.4,1.8-.6,2.7,0,0-7.3,4.7-14.3,4.7,0-13.2.4-25.3,3.8-38.1h0c-7.8,3-17.3,6.4-24.5,6.3-5,23.1-10.1,44.1-15.1,67.1-.2,1-.4,2-.7,3-2.9,1.7-10.8-.8-14.2-2.3-1-.5-1.6-.8-1.5-.9,3.1-14.1,7.2-25.8,7.8-40.2.6-15.4-3.4-20.7-1.1-35,8.1-.6,7.6-1.2,13.9-.5,5.5.6,8.5,1.5,14.2,4,.4.2.8.4,1.3.6,3.5-2.1,6.7-8.4,8.6-17.6h0c4.2-1.4,9.8-1.6,14.6-1.1.1,0,.2,0,.4,0,.1,0,.2,0,.3,0,.1,0,.2,0,.3,0,4.6.6,8.4,1.9,9.4,3.4,0,12.8,0,29.3-2.8,43.9Z"/><path class="cls-6" d="M88.6,112.2c0,.2-.2.4-.3.6"/><path class="cls-4" d="M120.5,93.5c0,0,0,.1,0,.2-1.1,4.1-2.8,7.9-3.2,13.6-.3,4.6-.9,8.7-1.7,12.4-2,9.2-5.2,15.5-8.6,17.6-.5-.2-.9-.4-1.3-.6,4.2-5.1,7.8-11.4,8.9-27.1.9-12.6,6.6-21,3.1-31.8h0c.6,0,1.3,0,1.5-.3h0c0,0,0-.2.1-.2,2.7,7.3,2.4,11.9,1.2,16.2Z"/><path class="cls-6" d="M118.7,75.9s0,0,0,.1c0,0,0,0,0,0,.2.4.3.8.5,1.2h0"/><path class="cls-6" d="M120.9,91.7c-.2.7-.3,1.3-.4,1.8"/><path class="cls-4" d="M130.2,118v.7c-4.9-.5-10.5-.3-14.6,1.1h0c.8-3.7,1.4-7.9,1.7-12.4.4-5.7,2.2-9.5,3.2-13.6-1.3,6.1-.6,8.2-2.1,15.3,2.3,2,8.3,7.1,11.8,8.9Z"/><path class="cls-6" d="M130.2,118c.2.1.5.2.7.3.1,0,.2,0,.3.1"/><path class="cls-3" d="M92.1,216.3c-2.2,2.3-7.1,4.1-9.7,4.7-5.1,1.3-8.1,2.3-9.4,1.1-4.8-4.2-2.4-10.8-.8-12.8,3.3,1.5,11.2,4,14.2,2.3.2-1,.4-2,.7-3,10.2-2.7,9.6,2.9,5,7.6Z"/><line class="cls-6" x1="87.1" y1="208.7" x2="87.1" y2="208.7"/><line class="cls-6" x1="72.3" y1="209.4" x2="72.3" y2="209.4"/><path class="cls-6" d="M118.7,75.9c0,0,0,.1.1.2,0,0,0,0,0,0,.4.6.5,1,.5,1.2h0"/><path class="cls-6" d="M135.5,55.7c0,.1,0,.2,0,.3"/><path class="cls-6" d="M132.1,69.6h0c-.2.5-.4,1-.7,1.7-.1,0-.3,0-.5,0-2.1-.5-4-2.1-4.8-4.2.3.2.6.3.9.5,1.7.5,3.4,1.3,5.1,2Z"/><path class="cls-6" d="M131.4,71.3s0,0,0,0"/><path class="cls-6" d="M118.3,73.7c-1-.6-2.2-1.5-3.4-2.8"/><path class="cls-1" d="M136.3,66c-.2.8-1.2,1.1-2,1-.1,0-.3,0-.4,0v.2c-.6,1.4-.6,2.1-.9,2.8-.3-.1-.6-.2-.9-.4-1.6-.7-3.4-1.5-5.1-2-.3-.2-.6-.4-.9-.5.8,2.1,2.6,3.7,4.8,4.2.2,0,.4,0,.5,0,.2,0,.3,0,.3.4,0,.2-1.1,3-1.8,3.8-.8.9-1.8,1.8-3,1.9-2,0-6.3-2.8-8.3-3.4-.1,0-.3-.1-.4-.2h0c.2,1.6.5,2.2,1,3.8h0c-.2.3-.9.3-1.5.2-.6,0-1.1-.3-1.4-.5-1.9-.9-1.7-.9-3-2.5-1.4-1.6-5.5-5.6-7.4-4.8,1.5-2.1,1.5-3.8,1.5-6.6-3.8-4.5-2.5-13,.9-17.8,3.5-4.8,8.2-6.7,14-5.8,3,.5,8.6,2.7,10.2,5.2,1.6,2.4,4.1,7,3,10.7-1.7-.4-2.7-.6-4.8-1.1.1,0,.3-.2.5-.3h-2.3v.3c-3.7-.2-7.3-.2-11,0,.2.3.4,1.8.3,2.2,3.9.3,7.8.7,11.8,1-.3,1.8-.6,3.7-.5,4.8,1.1.4,3,.9,4.5.9s1,0,1.4-.2c0,1,1.2,1.7,1,2.7Z"/><path class="cls-6" d="M119.2,77.6s0,0,0,0"/><path class="cls-4" d="M117.6,77.9h0c-.6-.2-1.1-.4-1.4-.5-1.9-.9-1.7-.9-3-2.5-1.4-1.6-5.5-5.6-7.4-4.8-2.4.6-3.6.7-6.9,2.4-7.8,3.7-9.5,6.5-20.8,12.5-2.8,2.4-6.7,3.1-4.2,11.5,1.9,6.4,3.2,11.2,5.8,20.2,0,.4.5.6,1,.7,2,.3,6.2-1.2,7.8-4.5,2.5.8,3.2,3.4,2.9,6-.2,2.7-2.5,3.8-5.2,4.1-1.6.2-2.9-.6-4.1-1.7-.7-.6-1.2-1.3-1.4-2.1h0c-1.1,4.1-3.1,13.7-3.2,14.1,8.1-.6,7.6-1.2,13.9-.5,5.5.6,8.5,1.5,14.2,4,4.2-5.1,7.8-11.4,8.9-27.1.9-12.6,6.6-21,3.1-31.8ZM86.2,100.3c-.4-2.3-.8-4.6-1.2-6.5,1.7-.5,3.2-1,4.7-1.4-1.3,3-2.5,5-3.5,7.9Z"/><path class="cls-1" d="M91.3,118.9c-.2,2.7-2.5,3.8-5.2,4.1-1.6.2-2.9-.6-4.1-1.7-.7-.6-1.2-1.3-1.4-2.1-.2-.6-.2-1.2,0-1.8,2,.3,6.2-1.2,7.8-4.5,2.5.8,3.2,3.4,2.9,6Z"/><path class="cls-3" d="M145.8,167.4c-.9,4-4.5,5.9-8.9,8.9-2.1,1.5-5.5,3-8.1,4.2-3.6,1.7-7-6.1-5.9-7.2,7,0,14.3-4.7,14.3-4.7.2-.9.4-1.8.6-2.7,2.2-1.1,8.7-1.9,8,1.4Z"/><line class="cls-6" x1="137.8" y1="166.1" x2="137.7" y2="166.1"/><path class="cls-5" d="M135.5,55.7c-1.7-.4-2.7-.6-4.8-1.1h0c-.3.7-.5,1.9-.8,3.2-.3,1.8-.6,3.7-.5,4.8,1.1.4,3,.9,4.5.9s1,0,1.4-.2c.8-3,1-4.5,1.5-7.3-.5,0-.9-.2-1.3-.3ZM134.9,62.5c-1.2,0-2.8-.2-4-.3,0-2-.1-3.1.3-5.4h.1c1.1,0,3.7,0,4.7.3-.5,2.1-.7,3.6-1.2,5.3Z"/><path class="cls-6" d="M131.4,56.9h-.1c-.4,2.3-.3,3.4-.3,5.3,1.2,0,2.8.2,4,.3.4-1.8.6-3.2,1.2-5.3-1-.3-3.6-.3-4.7-.3ZM133.9,59.6c-.1.7-.4,1.2-.7,1.1-.3,0-.4-.6-.3-1.3.1-.7.4-1.2.7-1.1.3,0,.4.6.3,1.3Z"/><path class="cls-6" d="M117.7,55.4c-.4-.8-1.5-1-2.3-.6s-1.3,1.2-1.7,2c-.4.9-.8,1.9-.8,2.9s.3,2,1.1,2.7,2,.8,2.8.2"/><path class="cls-6" d="M130.1,57.9c0,0-.1,0-.2,0"/><path class="cls-6" d="M129.8,54.8c-.3,0-.7,0-1,0"/><path class="cls-6" d="M131.4,56.1c0,.3-.1.5-.1.8"/><path class="cls-6" d="M131.9,66.5c.7,0,1.3.2,2,.4"/><path class="cls-6" d="M131.1,62.1s0,.1-.1.1"/><path class="cls-11" d="M133.9,59.6c-.1.7-.4,1.2-.7,1.1-.3,0-.4-.6-.3-1.3.1-.7.4-1.2.7-1.1.3,0,.4.6.3,1.3Z"/><path class="cls-5" d="M135.3,55.5c0-1.1-1.3-1.8-2.3-1.7-.6,0-1.2.2-1.8.6"/><path class="cls-5" d="M131.2,54.4c-.2,0-.3.2-.5.3h0c-.3.7-.5,1.9-.8,3.2-3.9-.3-7.8-.7-11.8-1,0-.4,0-1.9-.3-2.2,3.7-.1,7.3-.1,11,0v-.3h2.3Z"/><path class="cls-6" d="M130.7,54.7c-.2.1-.4.2-.6.4"/><path class="cls-6" d="M86.2,100.3s0,0,0,.1"/><path class="cls-6" d="M89.7,92.4c1.9-.5,3.8-1,5.9-1.7,3.1-1,8.9-2.5,11.6-4.5,1-.7,1.8-1.3,2.4-2"/><path class="cls-6" d="M88.6,112.2c-1.1-3.4-1.8-7.8-2.5-11.9"/><path class="cls-6" d="M89.7,92.4c-1.3,3-2.5,5-3.5,7.9-.4-2.3-.8-4.6-1.2-6.5,1.7-.5,3.2-1,4.7-1.4Z"/></g></svg>