<?xml version="1.0" encoding="UTF-8"?><svg xmlns="http://www.w3.org/2000/svg" width="300" height="300" viewBox="0 0 300 300"><defs><style>.cls-1{stroke:#58595b;stroke-width:.2px;}.cls-1,.cls-2{fill:#fff;}.cls-1,.cls-3{stroke-miterlimit:10;}.cls-4{fill:#c7a994;}.cls-4,.cls-5,.cls-6,.cls-7,.cls-2,.cls-8,.cls-9,.cls-10{stroke:#010101;stroke-linecap:round;stroke-linejoin:round;stroke-width:.5px;}.cls-5{fill:#d98f8f;}.cls-6{fill:#899bcf;}.cls-7{fill:#7181a9;}.cls-8,.cls-3{fill:none;}.cls-3{stroke:#000;}.cls-11,.cls-12{stroke-width:0px;}.cls-12{fill:#27b04b;}.cls-9{fill:#f8b3b2;}.cls-10{fill:#f7e7d7;}</style></defs><g id="Grid"><rect class="cls-1" x="29.3" y="29.3" width="241.5" height="241.5"/><line class="cls-1" x1="29.3" y1="258.6" x2="270.7" y2="258.6"/><line class="cls-1" x1="29.3" y1="246.6" x2="270.7" y2="246.6"/><line class="cls-1" x1="29.3" y1="234.5" x2="270.7" y2="234.5"/><line class="cls-1" x1="29.3" y1="222.5" x2="270.7" y2="222.5"/><line class="cls-1" x1="29.3" y1="210.4" x2="270.7" y2="210.4"/><line class="cls-1" x1="29.3" y1="198.3" x2="270.7" y2="198.3"/><line class="cls-1" x1="29.3" y1="186.2" x2="270.7" y2="186.2"/><line class="cls-1" x1="29.3" y1="174.2" x2="270.7" y2="174.2"/><line class="cls-1" x1="29.3" y1="162.1" x2="270.7" y2="162.1"/><line class="cls-1" x1="29.3" y1="150" x2="270.7" y2="150"/><line class="cls-1" x1="29.3" y1="137.9" x2="270.7" y2="137.9"/><line class="cls-1" x1="29.3" y1="125.8" x2="270.7" y2="125.8"/><line class="cls-1" x1="29.3" y1="113.8" x2="270.7" y2="113.8"/><line class="cls-1" x1="29.3" y1="101.7" x2="270.7" y2="101.7"/><line class="cls-1" x1="29.3" y1="89.6" x2="270.7" y2="89.6"/><line class="cls-1" x1="29.3" y1="77.5" x2="270.7" y2="77.5"/><line class="cls-1" x1="29.3" y1="65.5" x2="270.7" y2="65.5"/><line class="cls-1" x1="29.3" y1="53.4" x2="270.7" y2="53.4"/><line class="cls-1" x1="29.3" y1="41.4" x2="270.7" y2="41.4"/><line class="cls-1" x1="258.6" y1="29.3" x2="258.6" y2="270.7"/><line class="cls-1" x1="246.6" y1="29.3" x2="246.6" y2="270.7"/><line class="cls-1" x1="234.5" y1="29.3" x2="234.5" y2="270.7"/><line class="cls-1" x1="222.5" y1="29.3" x2="222.5" y2="270.7"/><line class="cls-1" x1="210.4" y1="29.3" x2="210.4" y2="270.7"/><line class="cls-1" x1="198.3" y1="29.3" x2="198.3" y2="270.7"/><line class="cls-1" x1="186.2" y1="29.3" x2="186.2" y2="270.7"/><line class="cls-1" x1="174.2" y1="29.3" x2="174.2" y2="270.7"/><line class="cls-1" x1="162.1" y1="29.3" x2="162.1" y2="270.7"/><line class="cls-1" x1="150" y1="29.3" x2="150" y2="270.7"/><line class="cls-1" x1="137.9" y1="29.3" x2="137.9" y2="270.7"/><line class="cls-1" x1="125.8" y1="29.3" x2="125.8" y2="270.7"/><line class="cls-1" x1="113.8" y1="29.3" x2="113.8" y2="270.7"/><line class="cls-1" x1="101.7" y1="29.3" x2="101.7" y2="270.7"/><line class="cls-1" x1="89.6" y1="29.3" x2="89.6" y2="270.7"/><line class="cls-1" x1="77.5" y1="29.3" x2="77.5" y2="270.7"/><line class="cls-1" x1="65.5" y1="29.3" x2="65.5" y2="270.7"/><line class="cls-1" x1="53.4" y1="29.3" x2="53.4" y2="270.7"/><line class="cls-1" x1="41.4" y1="29.3" x2="41.4" y2="270.7"/><line class="cls-3" x1="23.9" y1="150" x2="276.1" y2="150"/><polygon class="cls-11" points="24.7 152.5 20.4 150 24.7 147.5 24.7 152.5"/><polygon class="cls-11" points="275.3 152.5 279.6 150 275.3 147.5 275.3 152.5"/><line class="cls-3" x1="150" y1="23.9" x2="150" y2="276.1"/><polygon class="cls-11" points="147.5 24.7 150 20.4 152.5 24.7 147.5 24.7"/><polygon class="cls-11" points="147.5 275.3 150 279.6 152.5 275.3 147.5 275.3"/></g><g id="Lines"><polygon class="cls-12" points="240.9 61.8 243.8 45 228 51.4 232.6 55.1 63.7 266.1 59.1 262.4 56.2 279.3 72 272.8 67.4 269.1 236.3 58.1 240.9 61.8"/></g><g id="Africa_Modest"><path class="cls-10" d="M145.7,146.4c-.3.2-.6.5-.9.8-1.8,1.7-3,3.9-3.3,6.3,0,.6-.1,1.2-.1,1.7-.6-.2-1.4-.4-2.4-.7-4.9-1.4-14.2-4.1-19.8-7.5-.1,0-.2-.1-.3-.2-1.8-1-2,.7-4.8,6.5-.5,1-7.1,5.8-8.5,4.9-2.5-1.6-9.1,6.7-12.8,11.5-.6.8-1.2,1.6-1.6,2.1-.6-.8-4.6-6.9-4.9-7.9-2.7-7-4.4-7,3.4-22.6,7.4-15,10.8-19.4,20.8-32.5.9.1,2.6-.4,5.4-.1,2.8.3,6.8,4.6,7.4,9.1.8,5.7,6.6,7.3,8.2,7.7.5,0,1.2,0,2.1,0-.5.8-1,1.6-1.6,2.3h0c-2.8,3.9-5.8,6.9-9.2,10.1,1.4,1.6,4.1,3.7,5.5,4.1.7.2,1.4.4,2,.5,5.8,1.6,8.9,2.7,15.4,3.8Z"/><path class="cls-4" d="M141.4,85.2h0c-1.7-1.6-12.4-2.3-17.1,1.7-1.2,3-1.7,5.8-1.7,9.6-.2,7,6.3,12.5,9.4,13,6.1.6,9.5-5.5,10.6-11,.6-5.2.3-9.8-1.3-13.2ZM134.6,105.3c-1.1.1-3.2.6-5.4-2.5-.4-.5,6.1.9,8.8-.8-.5,1.8-1.4,3.1-3.4,3.3Z"/><path class="cls-7" d="M102,208.3h0c-4.1-.6-7.3-3.1-8.8-6.2,3.8-6.8,6.4-11.4,9.7-18.8-2.4-5.1-5.9-8.1-10.1-13.6,3.7-4.8,10.2-13.1,12.8-11.5,1,1.5,1.9,2.9,2.6,4.2,6.1,10.2,6.7,14.5,8.5,19.9,1.2,3.6-7,15.4-14.6,25.9Z"/><path class="cls-8" d="M105.5,158.2c-.6-.9-1.2-1.9-1.9-2.9"/><path class="cls-6" d="M102,208.3c-1.1,1.6-2.2,3.1-3.3,4.6-4-.6-6.7-2.5-8.1-6.2.9-1.6,1.7-3.1,2.5-4.5,1.5,3.1,4.8,5.6,8.8,6.2h0Z"/><path class="cls-8" d="M108.1,162.5c0,0-.2,0-.3,0"/><path class="cls-7" d="M154.7,147.2h0c-3.2.2-6.9.2-9.9,0,.3-.3.6-.5.9-.8-6.5-1.1-9.7-2.2-15.4-3.8h0c2.2-.2,4.4-.4,6.5-.4,5.1-.2,10,0,14.9.4h0c2,.9,3.3,3.9,3,4.7Z"/><path class="cls-8" d="M93.2,202.1s0,0,0,0"/><path class="cls-2" d="M137.4,178.5c-3.7,4.7-7,7.6-11,6.8s-5.8-5.1-7.4-8.7c-.5-1.1,2-2.9,3.9-3.5h0c1.7,1.6,5.8,3.4,7.6,3.1h0c2.4,2.1,6.8-1.6,6.8,2.2Z"/><path class="cls-8" d="M109.2,119c1.1,6.7,3.3,17.2,5.3,23.3.5,1.6,2.1,3.1,4.4,4.5"/><path class="cls-8" d="M122.8,138c-.6-.6-1-1.2-1-1.5-.5-6.9-2.2-11.7-2.4-18.1h0"/><path class="cls-8" d="M119.5,118.4h0s0,0,0,0c0,0,0,0,0,0"/><path class="cls-7" d="M139,154.6h0c-.8.4-1.5.7-2.2,1-10,4.2-17.9,4.5-28.6,6.9-.8-1.3-1.7-2.7-2.6-4.2,1.5.9,8.1-3.9,8.5-4.9,2.8-5.7,3-7.4,4.8-6.5.1,0,.2.1.3.2,5.7,3.4,14.9,6.2,19.8,7.5Z"/><path class="cls-10" d="M157.7,136c-.4.2-.6.3-.8.4-.6.3-.6.5-1.4,1.3-1,1.1-1,2.9-.5,4.6,0,.2,0,.4.2.6-1.2,0-2.3-.2-3.5-.3-4.9-.3-9.8-.5-14.9-.4-.8-.6-4.5-11.1-4.8-14.3h0c.5-.7,1-1.5,1.6-2.3,2.5-.4,6.2-1.8,7.8-5.1h0c.3,3.7,1.4,13.5,1.4,13.5,1.8.2,5.6,1.3,14.9,2Z"/><path class="cls-4" d="M165.7,144.7c-3.1,1.4-6.7-3.3-10.7-2.4-.4-1.7-.4-3.5.5-4.6.8-.8.8-1,1.4-1.3,4-.2,13.8-2,13.9.4.3,5-3.8,7.3-5.1,7.9Z"/><path class="cls-4" d="M160.1,151.7c-1.9,4-1.9,4.8-5.4,7.3-1.4,1-2.9.4-4.6-.8-2.3-1.5-5.1-4-8.4-4.7h-.1c.4-2.4,1.5-4.7,3.3-6.3,2.9.2,6.6.3,9.9,0,.5,0,1,0,1.5-.1.6,0,1.3,0,1.8.2.7.4,2.5,3.6,2.1,4.3Z"/><path class="cls-8" d="M142.8,134c-1.7-.2-3.3-.3-4.6,1.6"/><path class="cls-6" d="M135.5,171.8c-2.2,2-3.8,3.6-4.3,4.1-.1.2-.4.3-.7.3-1.8.3-5.9-1.5-7.6-3.2-.1,0-.2-.2-.3-.3,1-1.4,2-2.7,2.9-4,2.5,3,9.9,2.9,9.7,2.8l.2.2Z"/><path class="cls-7" d="M150.1,158.2c-1.4,1.7-9.4,8.9-14.6,13.6l-.2-.2c.2,0-7.2.2-9.7-2.8,3.7-5.1,6.8-9.6,11.2-13.1h0c.7-.4,1.5-.7,2.2-1h0c1,.2,1.9.4,2.4.6,0-.6,0-1.2.1-1.7h.1c3.3.7,6.1,3.2,8.4,4.7Z"/><path class="cls-8" d="M125.6,168.8s0,0,0,0"/><path class="cls-8" d="M137.5,96.9c.8,1.7,1,2.6,0,3.3-.5.3-1.6.4-2.2.4"/><path class="cls-8" d="M137.5,89.4c.6-1,2.2-1.1,3.1-.3"/><path class="cls-2" d="M100,224c-1,2.8-5.2,7.4-8.1,7.4-2.2-.5-4.7-1.6-5.1-8.4-.2-3.1.3-8.9.6-10.9.1-.9,2.7-4.7,3.3-5.4,1.3,3.7,4,5.6,8.1,6.2-1.1,9,2.2,8.3,1.2,11.1Z"/><path class="cls-8" d="M126.9,89.8c.8-.8,2.5-1.1,3.4-.4"/><path class="cls-9" d="M142.1,81.9c-1.4-2.8-3.8-5.2-6.7-6.5-1.2-.5-4.1-.9-5.4-.8-5,.3-14.6,2.9-16.9,10-1.1,3.4-1,10.2-.5,13.8.5,3.5.3,2.3-.6,5.8-.4,1.4-3.2,2.8-2.5,4.1.2.4.4.5.8.6.9.1,2.6-.4,5.4-.1,2.8.3,6.8,4.6,7.4,9.1.8,5.7,6.6,7.3,8.2,7.7.5,0,1.2,0,2.1,0,2.5-.4,6.2-1.8,7.8-5.1.2-.4.4-.9.5-1.4.5-1.8.8-2.3.8-5.4.3-10.1.7-11.8,1.2-17.7.4-4.8.3-9.7-1.8-14ZM142.7,98.4c-1.1,5.5-4.5,11.6-10.6,11-3.1-.4-9.6-6-9.4-13,0-3.8.4-6.6,1.7-9.6.3-.8.8-1.7,1.2-2.6,1.9-3.4,5.7-5.6,10.2-4.4,2.6,1,4.5,2.8,5.6,5.2h0c1.7,3.4,1.9,8,1.3,13.2Z"/><path class="cls-5" d="M141.4,85.2c-1.7-1.6-12.4-2.3-17.1,1.7.3-.8.8-1.7,1.2-2.6,1.9-3.4,5.7-5.6,10.2-4.4,2.6,1,4.5,2.8,5.6,5.2Z"/><path class="cls-11" d="M129.2,96.1c-.6,0-1.2-.8-1.3-1.9,0-1.1.4-2,1-2,.7,0,1.2.8,1.3,1.9,0,1.1-.4,2-1,2Z"/><path class="cls-2" d="M138,102c-.5,1.8-1.4,3.1-3.4,3.3-1.1.1-3.2.6-5.4-2.5-.4-.5,6.1.9,8.8-.8Z"/><path class="cls-11" d="M139.7,94.9c-.5,0-1-.7-1.1-1.8,0-1,.3-1.9.9-1.9.5,0,1,.7,1.1,1.8s-.3,1.9-.8,1.9Z"/></g></svg>