<?xml version="1.0" encoding="UTF-8"?><svg xmlns="http://www.w3.org/2000/svg" width="300" height="300" viewBox="0 0 300 300"><defs><style>.cls-1{fill:#4b618e;}.cls-1,.cls-2,.cls-3,.cls-4,.cls-5,.cls-6,.cls-7,.cls-8,.cls-9,.cls-10,.cls-11{stroke:#010101;}.cls-1,.cls-2,.cls-3,.cls-4,.cls-5,.cls-6,.cls-7,.cls-8,.cls-9,.cls-10,.cls-11,.cls-12{stroke-linecap:round;stroke-linejoin:round;stroke-width:.5px;}.cls-13{stroke:#58595b;stroke-width:.2px;}.cls-13,.cls-8{fill:#fff;}.cls-13,.cls-14{stroke-miterlimit:10;}.cls-2{fill:#131312;}.cls-3{fill:#1c1c1c;}.cls-4{fill:#313d5b;}.cls-5{fill:#7fa2d1;}.cls-6{fill:#8fb7df;}.cls-7{fill:#9c725e;}.cls-9{fill:#010101;}.cls-10,.cls-14{fill:none;}.cls-14{stroke:#000;}.cls-15,.cls-16,.cls-17{stroke-width:0px;}.cls-16{fill:#27b04b;}.cls-17{fill:#292825;}.cls-11,.cls-12{fill:#f2f0f1;}.cls-12{stroke:#231f20;}</style></defs><g id="Grid"><rect class="cls-13" x="29.3" y="29.3" width="241.5" height="241.5"/><line class="cls-13" x1="29.3" y1="258.6" x2="270.7" y2="258.6"/><line class="cls-13" x1="29.3" y1="246.6" x2="270.7" y2="246.6"/><line class="cls-13" x1="29.3" y1="234.5" x2="270.7" y2="234.5"/><line class="cls-13" x1="29.3" y1="222.5" x2="270.7" y2="222.5"/><line class="cls-13" x1="29.3" y1="210.4" x2="270.7" y2="210.4"/><line class="cls-13" x1="29.3" y1="198.3" x2="270.7" y2="198.3"/><line class="cls-13" x1="29.3" y1="186.2" x2="270.7" y2="186.2"/><line class="cls-13" x1="29.3" y1="174.2" x2="270.7" y2="174.2"/><line class="cls-13" x1="29.3" y1="162.1" x2="270.7" y2="162.1"/><line class="cls-13" x1="29.3" y1="150" x2="270.7" y2="150"/><line class="cls-13" x1="29.3" y1="137.9" x2="270.7" y2="137.9"/><line class="cls-13" x1="29.3" y1="125.8" x2="270.7" y2="125.8"/><line class="cls-13" x1="29.3" y1="113.8" x2="270.7" y2="113.8"/><line class="cls-13" x1="29.3" y1="101.7" x2="270.7" y2="101.7"/><line class="cls-13" x1="29.3" y1="89.6" x2="270.7" y2="89.6"/><line class="cls-13" x1="29.3" y1="77.5" x2="270.7" y2="77.5"/><line class="cls-13" x1="29.3" y1="65.5" x2="270.7" y2="65.5"/><line class="cls-13" x1="29.3" y1="53.4" x2="270.7" y2="53.4"/><line class="cls-13" x1="29.3" y1="41.4" x2="270.7" y2="41.4"/><line class="cls-13" x1="258.6" y1="29.3" x2="258.6" y2="270.7"/><line class="cls-13" x1="246.6" y1="29.3" x2="246.6" y2="270.7"/><line class="cls-13" x1="234.5" y1="29.3" x2="234.5" y2="270.7"/><line class="cls-13" x1="222.5" y1="29.3" x2="222.5" y2="270.7"/><line class="cls-13" x1="210.4" y1="29.3" x2="210.4" y2="270.7"/><line class="cls-13" x1="198.3" y1="29.3" x2="198.3" y2="270.7"/><line class="cls-13" x1="186.2" y1="29.3" x2="186.2" y2="270.7"/><line class="cls-13" x1="174.2" y1="29.3" x2="174.2" y2="270.7"/><line class="cls-13" x1="162.1" y1="29.3" x2="162.1" y2="270.7"/><line class="cls-13" x1="150" y1="29.3" x2="150" y2="270.7"/><line class="cls-13" x1="137.9" y1="29.3" x2="137.9" y2="270.7"/><line class="cls-13" x1="125.8" y1="29.3" x2="125.8" y2="270.7"/><line class="cls-13" x1="113.8" y1="29.3" x2="113.8" y2="270.7"/><line class="cls-13" x1="101.7" y1="29.3" x2="101.7" y2="270.7"/><line class="cls-13" x1="89.6" y1="29.3" x2="89.6" y2="270.7"/><line class="cls-13" x1="77.5" y1="29.3" x2="77.5" y2="270.7"/><line class="cls-13" x1="65.5" y1="29.3" x2="65.5" y2="270.7"/><line class="cls-13" x1="53.4" y1="29.3" x2="53.4" y2="270.7"/><line class="cls-13" x1="41.4" y1="29.3" x2="41.4" y2="270.7"/><line class="cls-14" x1="23.9" y1="150" x2="276.1" y2="150"/><polygon class="cls-15" points="24.7 152.5 20.4 150 24.7 147.5 24.7 152.5"/><polygon class="cls-15" points="275.3 152.5 279.6 150 275.3 147.5 275.3 152.5"/><line class="cls-14" x1="150" y1="23.9" x2="150" y2="276.1"/><polygon class="cls-15" points="147.5 24.7 150 20.4 152.5 24.7 147.5 24.7"/><polygon class="cls-15" points="147.5 275.3 150 279.6 152.5 275.3 147.5 275.3"/></g><g id="Lines"><polygon class="cls-16" points="300.1 54.9 285.1 46.6 285.1 52.5 14.9 52.5 14.9 46.6 0 54.9 14.9 63.2 14.9 57.4 285.1 57.4 285.1 63.2 300.1 54.9"/></g><g id="Africa"><path class="cls-7" d="M153.2,80.5c0-.1-.2-.2-.3-.1,0,0,0,0,0,0,0,0,0,0,0,0,0,0,0,0,0,0,0,0-.1,0-.2,0-.3,0-.5.2-.7.4,0,0,0,0,0,0-.2.3-.2.6-.3,1,0,.3,0,.6,0,.9,0,.2.1.3.2.4,0,0,0,0,0,.1,0,.8-.2,1.6-.5,2.8,0,0,0,.3.2.8,0,0,0,.2,0,.2,0,0,0,0,0,0,.2,1,.3,2.6-.1,4.4,0,.4-.2.7-.3,1.1-1.6,4.1-3.1,6.2-4.2,7.4-.9,1.1-1.9,2.2-3,3-.7.5-1.4,1-2.2,1.3h0c-2.5.9-5.7.2-10.5-3.7-.6-.5-1.2-1-1.8-1.5-2.1-2.6-3.1-4.1-4-7.3-.3,0-.5.1-.8,0-1.5-.3-3.2-2.4-3-3.8.2-1.7,2.6-2.7,4-1.8-.1-.4-.2-.8-.3-1.3-.3.2-.6.4-1,.4-.4,0-.8,0-1.1.1-.3,0-.6.2-.9.3,0,0,0,0,0,0-.2-.5-.4-1-.5-1.5,0,0,0,0,0,0,0-.4-.2-.7-.2-1.1h0c-.2-1.1-.3-2.3-.2-3.5h0c0-.6,0-1.2.2-1.7.2-1.1.4-2.1.8-3.1h0s0,0,0,0c.3-.7.6-1.3.9-2,0,0,0,0,0,0,.5-.9,1.1-1.8,1.8-2.6,0,0,0,0,0,0,.4-.5.8-.9,1.3-1.3,0,0,0,0,0,0,.4-.3.7-.6,1.1-.9.3-.2.7-.5,1.1-.7,0,0,0,0,0,0,.7-.4,1.5-.8,2.3-1.1,0,0,0,0,.1,0,1.2-.4,2.4-.7,3.6-.9,0,0,0,0,.1,0,.5,0,1-.1,1.6-.1,0,0,0,0,.1,0,1.8,0,3.5.1,5.2.6,0,0,.1,0,.2,0,.4.1.9.3,1.3.5,0,0,.1,0,.2,0,1.3.5,2.4,1.1,3.5,1.9,0,0,.1,0,.2.1,0,0,.2.1.3.2.6.5,1.1.9,1.6,1.5h0s0,0,.1.1c1,1.1,1.8,2.3,2.4,3.7,0,0,0,0,0,.1.3.6.5,1.2.7,1.9,0,0,0,0,0,0,.3.9.5,1.8.6,2.8,0,0,0,0,0,.1,0,.7.1,1.4.1,2Z"/><path class="cls-17" d="M153.2,80.5c0-.1-.2-.2-.3-.1,0,0,0,0,0,0,0,0,0,0,0,0,0,0,0,0,0,0,0,0-.1,0-.2,0-.3,0-.5.2-.7.4,0,0,0,0,0,0,0,0,0,0,0,0s0,0,0,0c0-.4,0-.9-.3-1.5,0,0,0,0,0,0-.2-.6-.5-1.3-.9-2,0,0,0,0,0-.1-.3-.6-.7-1.2-1.1-1.8,0,0,0,0,0,0-.2-.3-.5-.6-.7-.9,0,0,0-.1-.2-.2-.5-.6-1-1.1-1.6-1.6,0,0,0,0,0,0-.6-.6-1.3-1.1-2-1.5,0,0,0,0-.1,0-.5-.3-.9-.5-1.4-.7,0,0,0,0-.2,0-.9-.4-1.9-.6-2.9-.7,0,0,0,0-.1,0-.1,0-.2,0-.3,0-.7,0-1.3,0-1.9,0,0,0,0,0-.1,0-1,0-1.8.3-2.6.5,0,0,0,0-.1,0-.6.2-1.3.5-2,.8,0,0,0,0-.1,0-.5.2-1,.4-1.6.7-.2,0-.4.2-.6.4,0,0,0,0,0,0-.5.4-1,1-1.5,1.8,0,0,0,0,0,0-.4.5-.7,1.2-1.1,1.8,0,0,0,0,0,0-.2.3-.3.7-.5,1,0,0,0,0,0,0-.3.7-.6,1.4-.9,2.2h0c-.2.5-.3.9-.5,1.4,0,0,0,.1,0,.2,0,.3-.2.6-.3.9,0,0,0,.1,0,.2-.2.8-.3,1.5-.4,2.2,0,0,0,0,0,0,0,.3,0,.7,0,1,0,0,0,0,0,.1-.3.2-.6.4-1,.4-.4,0-.8,0-1.1.1-.3,0-.6.2-.9.3,0,0,0,0,0,0-.2-.5-.4-1-.5-1.5,0,0,0,0,0,0,0-.4-.2-.7-.2-1.1h0c-.2-1.1-.3-2.3-.2-3.5h0c0-.6,0-1.2.2-1.7.2-1.1.4-2.1.8-3.1h0s0,0,0,0c.3-.7.6-1.3.9-2,0,0,0,0,0,0,.5-.9,1.1-1.8,1.8-2.6,0,0,0,0,0,0,.4-.5.8-.9,1.3-1.3,0,0,0,0,0,0,.4-.3.7-.6,1.1-.9.3-.2.7-.5,1.1-.7,0,0,0,0,0,0,.7-.4,1.5-.8,2.3-1.1,0,0,0,0,.1,0,1.2-.4,2.4-.7,3.6-.9,0,0,0,0,.1,0,.5,0,1-.1,1.6-.1,0,0,0,0,.1,0,1.8,0,3.5.1,5.2.6,0,0,.1,0,.2,0,.4.1.9.3,1.3.5,0,0,.1,0,.2,0,1.3.5,2.4,1.1,3.5,1.9,0,0,.1,0,.2.1,0,0,.2.1.3.2.6.5,1.1.9,1.6,1.5h0s0,0,.1.1c1,1.1,1.8,2.3,2.4,3.7,0,0,0,0,0,.1.3.6.5,1.2.7,1.9,0,0,0,0,0,0,.3.9.5,1.8.6,2.8,0,0,0,0,0,.1,0,.7.1,1.4.1,2Z"/><path class="cls-10" d="M130.9,106.3s0,0,0,0"/><path class="cls-10" d="M148.1,86.1c0,.9-.4,1.6-.8,1.6s-.8-.7-.8-1.6.4-1.6.8-1.6.8.7.8,1.6Z"/><path class="cls-10" d="M134.7,86.3c0,1-.4,1.9-1,1.9s-1-.8-1-1.9.4-1.9,1-1.9,1,.8,1,1.9Z"/><path class="cls-10" d="M144.1,91.9c-.3,2.8-3.7,1.5-5.5,1.7"/><path class="cls-8" d="M126.7,249.9c-1,4.7-6.9,5.3-10.6,1.9-1.1-1,.5-10.2.7-11.4.2-1.4,1-4.2,1.6-5.3.4-.8.3,1.1,3.4,1.2,2.3,0,3-2.1,3.3-1.3.5,1,1.9,13.7,1.6,15Z"/><path class="cls-1" d="M163.1,199.7c-.4.3-.9.6-1.3.8-1.2.6-2.6,1.1-4.3,1.5-1.9.4-4.2.8-7,1.1-1.9.2-4,.5-6.4.7-1.8.2-3.7.4-5.8.6h0c-.2,0-.5,0-.7,0-2.1,0-4.5-.3-7.1-.9-2.3-.5-4.7-1.2-7.1-2-2-.6-3.9-1.4-5.8-2.1-1.9-.8-3.7-1.5-5.3-2.2,0,0,.1-1.3.3-3.6.4-4.2,1.2-11.6,2.1-18.7.1-1.1.3-2.3.4-3.4,0-.5.1-1.1.2-1.6.1-.9.2-1.7.4-2.5.7-4.6,1.4-8.4,2.1-10.2,0,0,.5-1.8,1-3.7.5-1.9,1.1-3.9,1.1-3.9,2.1.9,5.8,1.2,9.2,1.3,2.1,0,4.1,0,5.6,0,.1-4.3.1-7.5,0-10.6,4.2.8,5.6.9,9.8.2.1,3.3.3,6.6.4,9.7,3.8.4,5.4,0,8-1.1h0c1.3,2.1,2.9,9.3,4.5,17.6.5,2.8,1.1,5.7,1.6,8.5,1,6,2,11.9,2.7,16.4.6,3.8,1.1,6.7,1.3,7.8Z"/><path class="cls-7" d="M130.5,203.6h0c-.6,8.4-5.4,22.7-5.4,31.3-.3-.8-1,1.4-3.3,1.3-3-.1-3-2-3.4-1.2.2-10.3-3.1-25.5-.8-35.4,1.8.7,3.8,1.4,5.8,2.1,2.4.8,4.8,1.5,7.1,2Z"/><line class="cls-10" x1="117.6" y1="199.6" x2="117.6" y2="199.6"/><path class="cls-7" d="M143.5,117.7c-3.3,1.9-7,1.3-9.8,0-.8-3.8-5.9-9.5-2.9-11.4.1-1.3.4-3.8.4-5.7,4.8,3.9,8,4.5,10.5,3.7,0,.3-.2,2.7,1.1,3.8.2.7.5,4.4.7,9.7Z"/><path class="cls-4" d="M144.6,140.8c-4.2.7-5.5.6-9.8-.2-.1-4.7-.3-8.8,0-15.3,0-.8,0-1.5,0-2.3h0c-.2-1.8-.5-3.6-.9-5.3,2.8,1.3,6.5,1.9,9.8,0,0,1.5.2,3.1.2,4.8.2,5.5.5,12,.8,18.3Z"/><line class="cls-10" x1="134.8" y1="140.6" x2="134.8" y2="140.6"/><path class="cls-10" d="M122.7,86.3c0-.2-.2-.4-.2-.6"/><path class="cls-10" d="M136.9,80.5c-.1.4-.6.8-1.1.8-.5,0-1-.1-1.5-.2-1.4-.3-3.3-.3-4.7.2-.4.2-.8-.3-.5-.7.2-.2.4-.4.6-.7.6-.6,1.4-.9,2.3-1.1,1.3-.3,5.5-.4,4.9,1.5Z"/><path class="cls-10" d="M149.7,81.4c-.2.2-.4.2-.6.2-.2,0-.4-.1-.6-.2-.6-.2-1.3-.2-1.9,0-.5.2-.9.5-1.4.5-.6,0-1.2-.6-1.2-1.2,0-.6.5-1.1,1.1-1.3,1.5-.6,3.2,0,4.3,1,.2.1.3.3.4.5,0,.2,0,.4,0,.6Z"/><path class="cls-7" d="M154.4,234.9c-.3.1-.9,1.3-3.5,1.4-2.1,0-3-1.4-3.4-1.5h0c0-8.6-2.8-22.5-3.4-30.9,2.4-.3,4.5-.5,6.4-.7,2.8-.3,5.1-.7,7-1.1,2.3,9.9-3.3,22.6-3.1,32.9Z"/><path class="cls-10" d="M157.5,202s0,0,0,0"/><path class="cls-10" d="M130.9,106.2s0,0,0,0"/><path class="cls-10" d="M134.6,123s0,0,0,0"/><path class="cls-10" d="M115.8,167.6s0,0,0,0"/><path class="cls-10" d="M114.7,175.1s0,0,0,0"/><line class="cls-10" x1="161.8" y1="200.5" x2="161.8" y2="200.5"/><path class="cls-10" d="M161.9,191.9s0,0,0,0"/><line class="cls-10" x1="118.9" y1="153.8" x2="118.9" y2="153.8"/><path class="cls-12" d="M122,199.7c.8.6,1.6,1,1.4,1.9-2-.6-3.9-1.4-5.8-2.1-1.9-.8-3.7-1.5-5.3-2.2,0,0,.1-1.3.3-3.6h0c1.2-.5,2.2,0,3,.8,0-1-.1-.9,0-1.9.2-1,1.1-2,2.3-2s2.1.8,2.4,1.8c.3,1,0,1.5-.1,2.5,1.5-1.1,4-.5,4.6,1.1.7,1.6-1.1,3.5-2.9,3.7Z"/><path class="cls-11" d="M163.1,199.7c-.4.3-.9.6-1.3.8-.5-.8-.3-1.1-.4-2-.9,1.2-2.9,1.1-3.9-.2-.9-1.3-.1-3.3,1.3-3.7-.9-.5-1.9-1.5-1.8-2.6,0-1,.9-1.9,1.9-1.9,1,0,2.3,1.3,3,1.8.6,3.8,1.1,6.7,1.3,7.8Z"/><path class="cls-11" d="M159.1,175.5c-.8.6-.3.4-1.1.8-.9.5-2.1.3-2.7-.5-.6-.8-.4-1.9.2-2.7s1.1-.8,2-1.3c-1.6-.5-2.4-2.5-1.5-3.8.4-.7.8-1.2,1.6-1.1.5,2.8,1.1,5.7,1.6,8.5Z"/><path class="cls-11" d="M150,157.9c-.2.8-1,1.4-1.9,1.4-.9,0-1.2-.2-2-.5.6,1.3-.3,2.9-1.7,3.2-1.4.2-2.6-1.4-2.5-2.8-.7.6-2,.9-2.8.4-.8-.5-1.1-1.6-.7-2.4.4-.8,2.2-1.1,2.8-1.5-.7-.7-1.5-1.2-1.5-2.3,0-1.1.8-2.2,1.9-2.2,1.7,0,2.7,2.3,2.7,2.3,1-1.9,2.5-2.7,3.8-.7.7,1.1-.2,2.3-1,2.8.9.2.8,0,1.6.3.8.3,1.4,1.2,1.2,2Z"/><path class="cls-11" d="M124.7,174.5c-.8,1.1-2.3.7-3.1.1.2.8.2.8.2,1.6,0,.8-.6,1.7-1.5,1.9-.9.2-1.7-.4-2.1-1.2-.4-.8-.2-1.2-.2-2-.9.9-2.4,1.1-3.3.3.1-1.1.3-2.3.4-3.4.3-.5.6-.7,1-.8-.4-.2-.5-.5-.8-.8.1-.9.2-1.7.4-2.5.3-.2.6-.4.9-.4,1,0,1.9,1.5,2.5,2,.4-.8.6-1.8,1.7-2.2,1-.4,2.4-.1,2.9.9.7,1.5-1.2,3.3-1.2,3.3,2.2.2,3.6,1.3,2.1,3.2Z"/><path class="cls-11" d="M144.5,181.3c.7.8,1.2,2.1.7,3-.5.9-1.7,1.4-2.6,1-1-.4-1.5-2.3-1.9-3-.7.8-1.2,1.8-2.4,1.9-1.2,0-2.5-.7-2.7-1.9-.2-1.9,2.3-3.2,2.3-3.2-2.1-.9-3.3-2.6-1.1-4.2,1.2-.9,2.6,0,3.2.9,0-1,0-.9.2-1.8.2-.9,1.2-1.7,2.1-1.6.9,0,1.6,1,1.8,2,.1.9-.1,1.4-.4,2.3,1.3-.8,3.3,0,3.7,1.6.4,1.5-1.3,3.1-2.8,3Z"/><path class="cls-11" d="M129.2,151.2v.3c0,.6-.1,1-.6,1.4-1.4,1.3-4.1.1-4.1.1.7,2.3-3.6,4.9-5.6.8.5-1.9,1.1-3.9,1.1-3.9,2.1.9,5.8,1.2,9.2,1.3Z"/><path class="cls-11" d="M150.5,203.1c-1.9.2-4,.5-6.4.7-1.8.2-3.7.4-5.8.6h0c-.6-1-.7-2.6.3-3.3,1.5-1.1,3.9.3,3.9.3-.3-2.2.6-3.9,3.1-2.9,1.4.5,1.3,2.1.8,3.1.9-.4.8-.4,1.7-.7.9-.3,2,.1,2.4.9.3.5.3,1,0,1.4Z"/><path class="cls-10" d="M138.4,204.5s0,0,0,0"/><path class="cls-10" d="M150.5,203.1s0,0,0,.1"/><path class="cls-6" d="M149.7,113.5c0,.5-5.2,2-5.8,8.9h-.1c0-1.7-.2-3.3-.2-4.7-.3-5.2-.5-9-.7-9.7-1.2-1-1-3.5-1.1-3.8h0c.8-.3,1.6-.7,2.2-1.3,3.1.4,5.7,3.6,8.1,5.4-2.3.5-5.5,1.4-6.6,2.3,1.3.4,4.4,2,4.2,2.9Z"/><path class="cls-5" d="M153.6,108.5c0,0,0,.1,0,.2.5,8.2-1.7,17.1-1.9,19-.4,3.8-.4,8.2,2.3,21.2-.3.2-.7.3-1,.4-2.6,1.2-4.2,1.5-8,1.1-.2-3.1-.3-6.4-.4-9.7-.3-6.3-.5-12.8-.8-18.3h.1c.6-6.9,5.7-8.5,5.8-8.9.2-.9-2.9-2.5-4.2-2.9,1.1-.9,4.3-1.7,6.6-2.3-2.4-1.8-5-5.1-8.1-5.4,1.1-.9,2-1.9,3-3,1.1-1.3,2.6-3.4,4.2-7.4.1-.4.2-.7.3-1.1.4.1.2.1.6,0,.5-.2,1.3-1,1.5-1.5.2-.5.3-1,.4-1.5.1-.6.2-1.3,0-1.9-.2-.6,0-1.2-.7-1.4-.3,0-.6-.1-.9,0,.2-.7.4-1.3.5-2,.1,0,.2-.2.3-.3.2-.3.3-.6.3-.9,0-.3.1-.6,0-.9,0-.2-.2-.4-.3-.5,0-.7,0-1.4-.1-2,.5-.3.6-1,.4-1.6-.1-.4-.4-.8-.7-1.1,0-4-1.4-11.9-1.3-15.7.2,0,.3,0,.5,0,1.9.1,3.9,0,5.7-.3.1,0,.2,0,.4,0,1.7,12.6,2.2,18,.2,34.1-.6,4.6-4.3,10.1-4.7,14.7Z"/><path class="cls-10" d="M158.1,59.6c0,0,0-.1,0-.2"/><path class="cls-10" d="M116,59.6h0"/><path class="cls-7" d="M154,88.4c0,.5-.2,1-.4,1.5-.2.5-1,1.2-1.5,1.5-.4.2-.2.2-.6,0,.4-1.8.3-3.4.1-4.4,0,0,0-.1,0-.2,0-1,.4-1.5.8-1.7.3-.2.7-.2.9,0,.6.2.5.8.7,1.4.2.6,0,1.3,0,1.9Z"/><path class="cls-3" d="M143.3,70.6c-.3.5-.5.7-1.1.9-.4.1-.9,0-1.3-.2-.7-.5-.6-1.3-.6-2.1,0-.2,0-.4,0-.6-.1-.8-.7-1.5-1.4-2.1-.7-.6-1.4-1-2.1-1.6,0,0-.1,0-.2-.1-.3-.3-.6-.7-.4-1.1.2-.4.7-.6,1.1-.6,1.8-.2,3.6.9,4.6,2.3,0,0,0,0,0,0,.6.9.9,1.8,1.1,2.8,0,.6.1.6.2,1.7,0,.2,0,.4,0,.6Z"/><path class="cls-3" d="M129.3,75.8c-.5,0-.9-.1-1.3-.3-.1,0-.3-.1-.4-.2-1.5-.9-2.9-1.7-4.4-2.6,0,0-.1,0-.2,0-.3-.2-.1.1-.3-.2-.4-.5-.4-1.3,0-1.8,0-.2.2-.3.4-.4.7-.5,1.3-.5,2.1-.2,0,0,0,0,.2,0,.5.3,2.7,2,4,3.4,1,1.1,1.4,2.1.2,2.3Z"/><path class="cls-3" d="M137.9,70.8h0c-.5.6-1.2.7-1.8.3-.5-.3-.8-.8-1-1.3,0,0-.1-.2-.2-.3-.3-.6-.5-1.2-1-1.7-.6-.6-1.4-.9-2.1-1.3-.3-.2-.5-.4-.8-.7-.3-.4-.5-.9-.4-1.3.2-.7,1-1.1,1.7-1.1.8,0,1.4.5,1.9,1,.2.2.3.3.4.5.3.4.6.8.9,1.2.6.7,1.3,1.3,1.7,2.1.2.3.3.7.4,1.1,0,.5,0,1,0,1.5Z"/><path class="cls-3" d="M127.8,78.6c-.4.2-.8.2-1.2.2h0c-1.6,0-3.2-.3-4.7-.9-.2,0-.3,0-.3,0-.2,0-.2,0-.4-.2-.3-.3-.5-.8-.5-1.3,0-.6.2-1.5.8-1.6.3,0,.7,0,1,0,.2,0,.4,0,.6.1.5,0,3.1.8,4.5,1.7,1.1.6,1.6,1.4.3,2Z"/><path class="cls-3" d="M147.4,71.6c-.1.3-.3.5-.5.8-.3.3-.6.4-1,.5-1.5,0-1.2-1.1-1.1-2,0,0,0-.2,0-.2.2-1.1,0-2.1-.6-3.1-.3-.5-.6-1-.8-1.5,0,0,0,0,0,0-.1-.6.3-.6.9-.9.4-.2.9,0,1.2.2.3.2.6.6.8,1,.4.7.7,1.3.9,1.8.2.5.2,1,.3,1.6,0,.7.1,1.4-.1,2Z"/><path class="cls-3" d="M152,72.8c0,.3-.2.6-.4.9-.5.7-1.3,1.2-2.2,1.5,0,0-.2,0-.3,0-.3,0-.5-.4-.5-1.1,0-1.5.5-4.1.5-4.3,0,0,0,0,0,0,0-.2,0-.3.2-.4.3-.3,1,0,1.3.2,1.1.8,1.7,2.1,1.4,3.2Z"/><path class="cls-3" d="M152.9,78.4c0,0-.1,0-.2.1-.4.2-.9.4-1.3.5-.4.1-.8.1-1-.3-.2-.5-.1-1.1.1-1.7.4-.9,1.2-1.7,1.7-1.6.1,0,.2,0,.4.2h0c.3.3.6.7.7,1.1.2.6,0,1.3-.4,1.6Z"/><path class="cls-3" d="M125.7,81.5c-.6.5-1.4.8-1.9,1-.7.2-1.6.6-2.3.6-.2,0-.4,0-.6-.1-.8-.4-1-1.4-.7-2.3.2-.5.5-.9,1.1-1.1.1,0,.2,0,.3,0,.8-.1,3.9,0,4.5.7,0,0,0,0,0,0,.3.5,0,.9-.4,1.3Z"/><path class="cls-3" d="M133.4,71.9c-.5,1-2.1.2-2.7,0-1-.6-2-1.2-2.9-1.8-.5-.4-1-.8-1.4-1.3-.2-.2-.3-.4-.4-.7-.3-.5,0-.9.6-1.3.5-.3,1.2,0,1.7.2.1,0,.2.1.4.2,1.5.7,2.5,1.5,3.6,2.8.2.2.5.5.8.9.3.4.5.9.4,1.2Z"/><path class="cls-3" d="M125.3,84.9c-.3.2-.6.4-1,.4-.4,0-.8,0-1.1.1-.3,0-.6.2-.9.3-.1,0-.2,0-.3.1-.4,0-1,0-1.1-.4-.1-.3,0-.7.3-.9.1-.1.4-.2.6-.4,1-.4,2.5-.8,3.2-.6.2,0,.3,0,.4.1.6.3.4.8,0,1.2Z"/><path class="cls-17" d="M153.5,81.9c0,.3-.1.7-.3.9,0,.1-.2.2-.3.3-.1.7-.3,1.4-.5,2-.4.2-.8.7-.8,1.7,0-.5-.2-.8-.2-.8.3-1.2.4-2,.5-2.8,0,0,.2,0,.3.1.2,0,.4,0,.6-.2.1,0,.2-.2.3-.3.2-.3.3-.6.3-.9,0-.3.1-.6,0-.9,0-.2-.2-.4-.3-.5,0,0,0-.1-.2-.1.1,0,.2,0,.3.1.1.2.2.4.3.5.1.3,0,.6,0,.9Z"/><path class="cls-3" d="M153.4,81.9c0,.3-.1.7-.3.9,0,.1-.2.2-.3.3-.2.1-.4.2-.6.2-.1,0-.2,0-.3-.1,0,0,0,0-.1-.1-.1-.1-.2-.2-.2-.4-.1-.3,0-.6,0-.9,0-.3,0-.7.3-1,0,0,0,0,0,0,0,0,0,0,.1-.1.2-.2.4-.3.7-.3,0,0,0,0,.1,0,0,0,0,0,0,0,0,0,0,0,0,0,0,0,0,0,.1,0,0,0,.1,0,.2.1.1.2.2.4.3.5.1.3,0,.6,0,.9Z"/><path class="cls-9" d="M148.1,86.1c0,.9-.4,1.6-.8,1.6s-.8-.7-.8-1.6.4-1.6.8-1.6.8.7.8,1.6Z"/><path class="cls-9" d="M134.7,86.3c0,1-.4,1.9-1,1.9s-1-.8-1-1.9.4-1.9,1-1.9,1,.8,1,1.9Z"/><path class="cls-2" d="M136.9,80.5c-.1.4-.6.8-1.1.8-.5,0-1-.1-1.5-.2-1.4-.3-3.3-.3-4.7.2-.4.2-.8-.3-.5-.7.2-.2.4-.4.6-.7.6-.6,1.4-.9,2.3-1.1,1.3-.3,5.5-.4,4.9,1.5Z"/><path class="cls-2" d="M149.7,81.4c-.2.2-.4.2-.6.2-.2,0-.4-.1-.6-.2-.6-.2-1.3-.2-1.9,0-.5.2-.9.5-1.4.5-.6,0-1.2-.6-1.2-1.2,0-.6.5-1.1,1.1-1.3,1.5-.6,3.2,0,4.3,1,.2.1.3.3.4.5,0,.2,0,.4,0,.6Z"/><path class="cls-8" d="M145,96.4c-.8,1.5-1.7,2.3-3.6,2.6-1.2.2-3.1-.3-4.2-1-1.1-.7-1.1-.3-2.4-2.3.7.7,7.1,2.1,10.3.7Z"/><path class="cls-5" d="M134.7,151.2c-1.4,0-3.5,0-5.6,0-3.4-.1-7.1-.5-9.2-1.3.2-2.3,2.7-17.9,2.5-20.6-.1-1.2-2.5-15.9-2.5-14.8-1.1-5.3-1.7-10.5-3.1-15.4-1-3.5-2.3-13.9-2.2-17.2.3-8.2,0-11.2,1.3-22.2,2,.8,4.2,1.1,6.3,1.1,0,3.2.2,5,.4,10-.3.5-.3,1.4,0,1.8.2.3,0,0,.3.2,0,0,.1,0,.2,0-.4.7-.7,1.3-.9,2-.3,0-.7,0-1,0-.5.1-.7,1.1-.8,1.6,0,.5.2.9.5,1.3.2.2.3.2.4.2,0,.6-.2,1.1-.2,1.7-.5.2-.8.5-1.1,1.1-.4.8-.2,1.8.7,2.3.2,0,.4.1.6.1,0,.4.2.8.3,1.1-.3.1-.5.2-.6.4-.3.2-.4.6-.3.9.2.4.7.5,1.1.4.1,0,.2,0,.3-.1.3-.1.6-.3.9-.3.4,0,.8,0,1.1-.1.4,0,.8-.2,1-.4,0,.5.1.9.3,1.3-1.5-1-3.8,0-4,1.8-.2,1.4,1.5,3.5,3,3.8.5,2,.7,3.3,1.7,6.4,1.6,1.2,2.1,1.5,3.9,2.6-3.9,1.2-5.5,5.2-8.5,8.3,2.3.2,4.1.8,6.2,1.7-.9.7-3.5,2.4-2.9,3,1,1,9,5.6,9.6,9.2h0c0,.8.1,1.6,0,2.3-.2,6.5,0,10.7,0,15.3,0,3,0,6.3,0,10.6Z"/><line class="cls-10" x1="124.7" y1="91.8" x2="124.7" y2="91.8"/><path class="cls-6" d="M134.6,122.9h0c-.6-3.7-8.6-8.2-9.6-9.2-.6-.6,2-2.2,2.9-3-2.1-.9-3.9-1.5-6.2-1.7,3.1-3.1,4.6-7.1,8.5-8.3h0c.3-.1.7-.2,1-.2,0,1.9-.3,4.4-.4,5.7-3.1,1.9,2.1,7.6,2.9,11.4.4,1.7.7,3.5.9,5.3Z"/><path class="cls-10" d="M152.8,75.7c0,.2,0,.4,0,.5"/><path class="cls-10" d="M151.5,59.7c0,0,0,.2,0,.3"/><path class="cls-10" d="M158.3,59.6c0,0-.1,0-.2,0"/><path class="cls-10" d="M151.5,60s0,0-.1,0"/><path class="cls-7" d="M122.3,60.6c-2.1,0-4.3-.3-6.3-1.1,0,0,0,0,0,0v-.2c-.6-.9-.6-6-.8-7-.1-1,.2-2.2,1.1-2.7.5-.4,1.2-.4,1.9-.4,1.5,0,2.7-.4,3.9.4,1,.7,1.7,1.9,1.8,3.2.1,1.2-.6,7-1.5,7.9Z"/><path class="cls-7" d="M157.7,59.7c-1.9.4-3.8.5-5.7.3h0c-1.3-.9-2.3-7.2-1.4-8.5.9-1.3,2.6-1.8,4.2-1.6,1.1.1,2.2.6,2.7,1.5.8,1.3.9,7,.2,8.3Z"/><path class="cls-8" d="M157.2,251.8c-4.1,3.3-10.6,2.8-11.7-1.9-.3-1.3,1.2-13.9,1.8-15,0-.1.1-.2.2-.2.4,0,1.3,1.6,3.4,1.5,2.6,0,3.1-1.2,3.5-1.4,0,0,.2,0,.3.2.6,1.1,1.5,4,1.7,5.3.2,1.2,2,10.4.8,11.4Z"/><path class="cls-10" d="M146.5,141.7c1.6,1.4,3.2,2.8,4.8,4.2.1,0,.2.2.3.3,0,.3-.3.6-.6.8-.5-.4-1-.8-1.5-1.2"/><path class="cls-10" d="M129.5,140.4c-1.8,2-3.5,4-5.3,6,.4.2.7.4,1.1.6.5-1,1.3-1.9,2.3-2.6"/></g></svg>