<?xml version="1.0" encoding="UTF-8"?><svg xmlns="http://www.w3.org/2000/svg" width="300" height="300" viewBox="0 0 300 300"><defs><style>.cls-1{fill:#385076;}.cls-1,.cls-2,.cls-3,.cls-4,.cls-5,.cls-6,.cls-7,.cls-8,.cls-9,.cls-10,.cls-11{stroke:#010101;stroke-linecap:round;stroke-linejoin:round;stroke-width:.5px;}.cls-12{stroke:#58595b;stroke-width:.2px;}.cls-12,.cls-8{fill:#fff;}.cls-12,.cls-13{stroke-miterlimit:10;}.cls-2{fill:#194892;}.cls-3{fill:#231f20;}.cls-4{fill:#181819;}.cls-5{fill:#1a1a1a;}.cls-6{fill:#73533f;}.cls-7{fill:#72b2e1;}.cls-9{fill:#ea6040;}.cls-10{fill:#e9c26e;}.cls-11,.cls-13{fill:none;}.cls-13{stroke:#000;}.cls-14,.cls-15{stroke-width:0px;}.cls-15{fill:#27b04b;}</style></defs><g id="Grid"><rect class="cls-12" x="29.3" y="29.3" width="241.5" height="241.5"/><line class="cls-12" x1="29.3" y1="258.6" x2="270.7" y2="258.6"/><line class="cls-12" x1="29.3" y1="246.6" x2="270.7" y2="246.6"/><line class="cls-12" x1="29.3" y1="234.5" x2="270.7" y2="234.5"/><line class="cls-12" x1="29.3" y1="222.5" x2="270.7" y2="222.5"/><line class="cls-12" x1="29.3" y1="210.4" x2="270.7" y2="210.4"/><line class="cls-12" x1="29.3" y1="198.3" x2="270.7" y2="198.3"/><line class="cls-12" x1="29.3" y1="186.2" x2="270.7" y2="186.2"/><line class="cls-12" x1="29.3" y1="174.2" x2="270.7" y2="174.2"/><line class="cls-12" x1="29.3" y1="162.1" x2="270.7" y2="162.1"/><line class="cls-12" x1="29.3" y1="150" x2="270.7" y2="150"/><line class="cls-12" x1="29.3" y1="137.9" x2="270.7" y2="137.9"/><line class="cls-12" x1="29.3" y1="125.8" x2="270.7" y2="125.8"/><line class="cls-12" x1="29.3" y1="113.8" x2="270.7" y2="113.8"/><line class="cls-12" x1="29.3" y1="101.7" x2="270.7" y2="101.7"/><line class="cls-12" x1="29.3" y1="89.6" x2="270.7" y2="89.6"/><line class="cls-12" x1="29.3" y1="77.5" x2="270.7" y2="77.5"/><line class="cls-12" x1="29.3" y1="65.5" x2="270.7" y2="65.5"/><line class="cls-12" x1="29.3" y1="53.4" x2="270.7" y2="53.4"/><line class="cls-12" x1="29.3" y1="41.4" x2="270.7" y2="41.4"/><line class="cls-12" x1="258.6" y1="29.3" x2="258.6" y2="270.7"/><line class="cls-12" x1="246.6" y1="29.3" x2="246.6" y2="270.7"/><line class="cls-12" x1="234.5" y1="29.3" x2="234.5" y2="270.7"/><line class="cls-12" x1="222.5" y1="29.3" x2="222.5" y2="270.7"/><line class="cls-12" x1="210.4" y1="29.3" x2="210.4" y2="270.7"/><line class="cls-12" x1="198.3" y1="29.3" x2="198.3" y2="270.7"/><line class="cls-12" x1="186.2" y1="29.3" x2="186.2" y2="270.7"/><line class="cls-12" x1="174.2" y1="29.3" x2="174.2" y2="270.7"/><line class="cls-12" x1="162.1" y1="29.3" x2="162.1" y2="270.7"/><line class="cls-12" x1="150" y1="29.3" x2="150" y2="270.7"/><line class="cls-12" x1="137.9" y1="29.3" x2="137.9" y2="270.7"/><line class="cls-12" x1="125.8" y1="29.3" x2="125.8" y2="270.7"/><line class="cls-12" x1="113.8" y1="29.3" x2="113.8" y2="270.7"/><line class="cls-12" x1="101.7" y1="29.3" x2="101.7" y2="270.7"/><line class="cls-12" x1="89.6" y1="29.3" x2="89.6" y2="270.7"/><line class="cls-12" x1="77.5" y1="29.3" x2="77.5" y2="270.7"/><line class="cls-12" x1="65.5" y1="29.3" x2="65.5" y2="270.7"/><line class="cls-12" x1="53.4" y1="29.3" x2="53.4" y2="270.7"/><line class="cls-12" x1="41.4" y1="29.3" x2="41.4" y2="270.7"/><line class="cls-13" x1="23.9" y1="150" x2="276.1" y2="150"/><polygon class="cls-14" points="24.7 152.5 20.4 150 24.7 147.5 24.7 152.5"/><polygon class="cls-14" points="275.3 152.5 279.6 150 275.3 147.5 275.3 152.5"/><line class="cls-13" x1="150" y1="23.9" x2="150" y2="276.1"/><polygon class="cls-14" points="147.5 24.7 150 20.4 152.5 24.7 147.5 24.7"/><polygon class="cls-14" points="147.5 275.3 150 279.6 152.5 275.3 147.5 275.3"/></g><g id="Lines"><polygon class="cls-15" points="192.2 25.7 197.7 27.9 195.6 10.9 182.3 21.6 187.7 23.9 86.1 274.3 80.7 272.1 82.7 289.1 96 278.4 90.6 276.1 192.2 25.7"/></g><g id="Africa"><path class="cls-6" d="M141.9,149.8c-.3,1.8-.8,3.7-2,5.2-.9,1.1-2.5,1.1-4.1.7-.4-.1-.9-.2-1.3-.4-2-.7-6.9-6.8-6.9-6.8-2.3-1.5-5.6-3.9-8.3-6.2-1.5-1.3-2.8-2.7-3.7-3.9,1-3.3,2.6-4.8,5.9-6.5.6,1,1.2,2,1.9,3,1.3,1.8,2.8,3.6,4.3,5.2,1.3,1.3,2.7,2.6,4,3.6,1.8.9,1.4-.5,3.4-.6s4.4-.7,5.8.7c1.4,1.5,1.3,3.8.9,5.8Z"/><path class="cls-6" d="M175.4,67.2c-.2,2-4.1,2.2-6.1,2.9-4.8,3-6.7,5.8-9.6,7.8-.2-2.2-.9-5.2-3.2-6.5,5.4-2.5,4.3-2,8.9-4.1,1.8-2.2.3-3.6,2.5-5.5,1.2-1,5.5-1.1,6.8.5.8,1,1,3.6.8,4.8Z"/><path class="cls-7" d="M121.9,131.8c-.1,0-.2.1-.3.2h0c-3.3,1.7-4.9,3.2-5.9,6.5,0,.3-.2.5-.2.8-.6-.7-1.2-1.3-1.8-1.9-1.6-1.7-3-3.1-4.3-4.4h.1c.4-3.9,3.5-6.6,8.1-8.4h0c1.4,2.1,3,4.6,4.3,7.3Z"/><path class="cls-9" d="M129.8,109.4h-.2c-2.1-7.4-4.1-14.2-6.2-21.5,0,0,0-.1,0-.2,1,.7,5,.6,5.2-1.9,0,.1,0,.3,0,.5h0c.8,3.1,1.3,6.2,1.6,9.3.4,4.5.2,9.2-.4,13.8Z"/><path class="cls-7" d="M129.8,109.4c-.2,1.6-.4,3.1-.7,4.7-2.6-5.3-4.7-10.5-5.9-16.1-.2-1-.4-1.9-.5-2.9-.6-4-.9-6.6-3.9-7.7-1.7-.6-5.5-1.3-7.8.9h0c.6-.9,1.3-1.7,2.1-2.5,1.4-1.9,9.1-.7,10.2,2.2h0c2.1,7.3,4.1,14.1,6.2,21.4h.2Z"/><path class="cls-2" d="M123.2,98c1.2,5.7,3.3,10.8,5.9,16.1-.4,2.1-.8,4.3-1.3,6.4-1.2,4.8-2.7,9.6-4.3,14.5h0c-.7-1-1.3-2-1.9-3h0c.1,0,.2-.1.3-.2-1.3-2.8-2.9-5.3-4.3-7.4-1.5-2.3-2.7-4.1-3-5.3-.3-1.4,4.8-12,6-20.5"/><path class="cls-2" d="M107.2,130.6c-1.8-.8-3.5-1.3-5.3-2.2,0,0,0,0,0,0,0-.3.9-5,.9-5.3h0s0,0,0,0c.9,2.9,2.3,5.1,4.5,7.5Z"/><path class="cls-1" d="M125.9,168.5c-.4,1.4-.7,2.8-1.1,4.1-3.5,11.8-8.1,20-13.4,31.1-.2,0-.5,0-.8,0-4-.4-7.9-2-11.1-4.4-.3-.2-.6-.5-.9-.8,2.5-11.9,10.8-18.7,12.7-30.6-1.7-7.3-5.2-11.2-8.4-17.9-2.5-5.2-4-11.2-2.8-16.7h0c4.8,1.5,8.5,2.7,13.3,4.2.6.6,1.2,1.2,1.8,1.9,0-.3.2-.6.2-.8.8,1.2,2.2,2.5,3.7,3.9h0c1.7,5.4,3.5,12,4.9,17.9.7,3,1.3,5.8,1.7,8.3Z"/><path class="cls-11" d="M102.8,123.1s0,0,0,0"/><path class="cls-4" d="M110.6,203.8c-.9,1.5-.2,8.9-.2,10.7,0,1.8-1.2,2.1-3,2.7-1.4.5-2.9,0-4.3-.5-1.2-.5-5-4.5-5.2-6.1-.5-4.7.5-6.8,1.6-11.4,3.1,2.4,7,4.1,11.1,4.4h0Z"/><path class="cls-1" d="M147.8,123.8c-1.2,5.3-5.7,14.9-6.9,20.2-1.3-1.4-3.7-.8-5.8-.7s-1.6,1.4-3.4.6c-1.4-1.1-2.7-2.3-4-3.6-1.6-1.6-3.1-3.4-4.3-5.2h0c1.7-4.8,3.2-9.7,4.3-14.5h0c1.8-2.8,12.3-10.6,15.7-10.5,1.7,0,4.3,2.9,5.3,4.2.8,1,0,6.5-1,9.5Z"/><path class="cls-2" d="M154.3,83.6s0,0,0,0c-3.8,2.4-6.1,2.8-8.5,4.3-2.3,1.4-9.6,3.2-15.6,7.7h0c-.2-3.2-.8-6.3-1.6-9.3h0c0-.2,0-.3,0-.5h0c-.4-2-.4-1.8-.6-3h0c6-2.4,12.4-3.6,14.2-4.6,3.4-1.9,4.8-2.5,7.5-3.9,3.7,1.4,4.7,8.9,4.6,9.2Z"/><path class="cls-11" d="M156.5,71.4c-.2,0-.3.2-.5.2"/><path class="cls-11" d="M159.7,77.9c-.1.1-.3.2-.4.3"/><path class="cls-10" d="M120.1,47.9c-7.7,2.1-18.1,10.4-23.6,17.1-1.1-2-2.6-6.3-.8-7.7,7.4-5.8,10-7.4,17.1-12.2,1.1-.8,3.5-.8,4.5.2,1.2,1.1,2,1.9,2.8,2.6Z"/><path class="cls-8" d="M122.8,50.9c-9.1,3.5-18,9.5-23.9,17.9-1-1.4-1.6-2.2-2.4-3.7,5.5-6.7,15.9-15,23.6-17.1.9.9,1.7,1.7,2.8,3Z"/><path class="cls-10" d="M124.7,54.5c-.2.2-.5.3-1,.5-4.9,2.1-9.6,5.6-13.3,8.9-4.7,4.2-8,8.1-8.5,8.7,0,0,0,0,0,0-1.3-1.8-2.2-3-2.9-3.9,6-8.3,14.9-14.4,23.9-17.9.5.6,1,1.2,1.6,2.1.6.8.7,1.2.3,1.5Z"/><path class="cls-2" d="M120.6,98.6c-1.2,8.5-6.3,19.1-6,20.5.2,1.2,1.5,3,3,5.3h0c-4.6,1.9-7.7,4.6-8.1,8.3h-.1c-.7-.7-1.4-1.4-2-2.1h0c-2.2-2.5-3.6-4.7-4.5-7.5-.1-.4-.2-.9-.4-1.4-.2-.9.2-4.2.9-8.4h-.1c1.4-10.4,3.3-19,7.8-25.1h0c2.3-2.2,6.1-1.5,7.8-.9,3,1.1,3.3,3.7,3.9,7.7.2,1,.3,2,.5,2.9"/><path class="cls-6" d="M130.7,63.3c-1-1.5-3-2.9-3.8-5.3-.1-.3-.2-.6-.3-.9-.3.3-.8.8-1.1.9-.6.3-2.1.7-2.2-.2-.1-.6,1.8-2,2.3-2.2-.2-.3-.5-.6-.8-1h0c-.2,0-.5.2-1,.4-4.9,2.1-9.6,5.6-13.3,8.9.4.5.8,1.7,1,2.3.1.6,0,1.6-.5,2.1-.4.5-1.1.7-1.7.4-.6-.3-1.4,0-1.9.3-.5.4-.7,1.1-.6,1.7s.3,1.2.7,1.8c.6.9,2.7,2.4,3.7,2.6.4,0,.8,0,1.1,0h0c.6,1.5,1,2.2.7,3.8h-.3c1.5,2.1.8,4.2.5,6.8,1.4-1.9,9.1-.7,10.2,2.2h0c0,0,0-.1,0-.2,1,.7,5,.6,5.2-1.9h0c-.4-2-.4-1.8-.6-3-.1-.7-.3-1.8-.6-3.9,1.9-.4,4.1-.7,5.1-3.8,1-3-.1-9.2-1.8-11.8ZM116.1,62.9c-.2-.3-.2-.7.1-1l2.4-1.8c.8-.7,2.1-.6,1.5.5-.5.9-3.5,2.6-3.7,2.6-.1,0-.2-.2-.4-.4ZM120.6,65.6c-.3.2-.9-.2-1.4-1-.4-.7-.5-1.5-.2-1.7.3-.2.9.2,1.4,1,.4.7.5,1.5.2,1.7ZM125.7,59c.3-.2.9.3,1.3,1s.6,1.5.3,1.6c-.3.2-.9-.3-1.3-1-.4-.7-.6-1.5-.3-1.6ZM129.1,73c-1.8,1.2-4.7-.6-4.8-1.1,1.6-.4,5.3-2.5,6.4-3.4.6.9.6,3.1-1.6,4.5Z"/><path class="cls-11" d="M118.4,78.9c1.6.4,7.4.4,9,0"/><path class="cls-5" d="M113,79h-.3c0,0,0,0,0,0-4.1-.2-8-2.5-10.7-6.3.6-.6,3.8-4.5,8.5-8.7.4.5.8,1.7,1,2.3.1.6,0,1.6-.5,2.1-.4.5-1.1.7-1.7.4-.6-.3-1.4,0-1.9.3-.5.4-.7,1.1-.6,1.7s.3,1.2.7,1.8c.6.9,2.7,2.4,3.7,2.6.4,0,.8,0,1.1,0h0c.6,1.5,1,2.2.7,3.8Z"/><path class="cls-11" d="M101.9,72.6l-.2-.2"/><path class="cls-1" d="M135.8,155.7c-.5,2.1-3,8-3.5,8.4-.7.5-1.8.4-2.6.2-2.4-.7-3.6-2.6-5.5-4.1-1.4-6-3.2-12.5-4.9-17.8h0c2.7,2.3,6.1,4.7,8.3,6.2,0,0,4.8,6.1,6.9,6.8.4.1.9.3,1.3.4Z"/><path class="cls-11" d="M124.1,160.2c-.1,0-.2-.2-.4-.3"/><path class="cls-4" d="M130.2,169.7c-.7,2.1-3.2,2.1-5.4,2.9.4-1.3.8-2.7,1.1-4.1-.4-2.5-1-5.3-1.7-8.3,1.9,1.5,3.1,3.5,5.5,4.1,1.4,1.8,1.2,3.3.5,5.4Z"/><path class="cls-11" d="M124.8,172.6s0,0,0,0"/><path class="cls-11" d="M128.6,86.4c0,0,0,0,0-.1"/><path class="cls-7" d="M113.6,137.3c-4.8-1.5-8.5-2.7-13.3-4.1h0c.3-1.6.9-3.2,1.7-4.7,0,0,0,0,0,0,1.8.8,3.5,1.3,5.3,2.2h0c.6.7,1.3,1.5,2,2.2,1.2,1.3,2.7,2.8,4.3,4.4Z"/><path class="cls-11" d="M107.3,130.7s0,0,0,0"/><path class="cls-11" d="M129.2,114.3c0,0,0-.1,0-.2"/><path class="cls-11" d="M126.1,63.6c.9.6,2.1.7,2.7,2.1s-2.1,3.1-2.7,3"/><path class="cls-3" d="M120.6,65.6c-.3.2-.9-.2-1.4-1-.4-.7-.5-1.5-.2-1.7.3-.2.9.2,1.4,1,.4.7.5,1.5.2,1.7Z"/><path class="cls-3" d="M127.2,61.6c-.3.2-.9-.3-1.3-1-.4-.7-.6-1.5-.3-1.6.3-.2.9.3,1.3,1s.6,1.5.3,1.6Z"/><path class="cls-8" d="M129.1,73c-1.8,1.2-4.7-.6-4.8-1.1,1.6-.4,5.3-2.5,6.4-3.4.6.9.6,3.1-1.6,4.5Z"/><path class="cls-5" d="M120.2,60.6c-.5.9-3.5,2.6-3.7,2.6-.1,0-.2-.2-.4-.4-.2-.3-.2-.7.1-1l2.4-1.8c.8-.7,2.1-.6,1.5.5Z"/><path class="cls-11" d="M113.7,74.2c-.3.6-.8,1-1.4,1.1"/><path class="cls-5" d="M126.6,57.1c-.3.3-.8.8-1.1.9-.6.3-2.1.7-2.2-.2-.1-.6,1.8-2,2.3-2.2.4.5.7,1,.9,1.5Z"/><path class="cls-11" d="M126.7,56.8c0,0,0,.2-.1.3-.2-.5-.5-.9-.9-1.5,0,0,0,0,.1,0,.3,0,.9.9,1,1.2Z"/><path class="cls-7" d="M154.3,83.6c.2-.3-.8-7.9-4.6-9.2,1.4-.8,3.3-1.7,6-3.3.3,0,.5.2.8.4,2.2,1.3,3,4.2,3.2,6.5,0,.6,0,1.1,0,1.6-2.1,1.8-3.9,3.1-5.5,4.1Z"/><path class="cls-11" d="M108.3,96c-2.2,5-3.9,11.9-4.9,17.3"/><path class="cls-11" d="M137.8,122.3c-3.4,7-5.6,10.6-10,17.9"/></g></svg>