<?xml version="1.0" encoding="UTF-8"?><svg xmlns="http://www.w3.org/2000/svg" width="300" height="300" viewBox="0 0 300 300"><defs><style>.cls-1{fill:#484848;}.cls-1,.cls-2,.cls-3,.cls-4,.cls-5,.cls-6,.cls-7,.cls-8,.cls-9{stroke:#010101;stroke-linecap:round;stroke-linejoin:round;stroke-width:.5px;}.cls-2{fill:#2b2c2b;}.cls-10{stroke-width:.2px;}.cls-10,.cls-8,.cls-11{fill:#fff;}.cls-10,.cls-11{stroke:#58595b;}.cls-10,.cls-11,.cls-12{stroke-miterlimit:10;}.cls-3{fill:#231f20;}.cls-4{fill:#546774;}.cls-5{fill:#8ec6ec;}.cls-6{fill:#8d6562;}.cls-7{fill:#6b8e5f;}.cls-9,.cls-12{fill:none;}.cls-12{stroke:#000;}.cls-13,.cls-14{stroke-width:0px;}.cls-14{fill:#27b04b;}</style></defs><g id="Grid"><rect class="cls-10" x="30" y="29.3" width="241.5" height="241.5"/><line class="cls-10" x1="30" y1="258.6" x2="271.5" y2="258.6"/><line class="cls-10" x1="30" y1="246.6" x2="271.5" y2="246.6"/><line class="cls-10" x1="30" y1="234.5" x2="271.5" y2="234.5"/><line class="cls-10" x1="30" y1="222.5" x2="271.5" y2="222.5"/><line class="cls-10" x1="30" y1="210.4" x2="271.5" y2="210.4"/><line class="cls-10" x1="30" y1="198.3" x2="271.5" y2="198.3"/><line class="cls-10" x1="30" y1="186.2" x2="271.5" y2="186.2"/><line class="cls-10" x1="30" y1="174.2" x2="271.5" y2="174.2"/><line class="cls-10" x1="30" y1="162.1" x2="271.5" y2="162.1"/><line class="cls-11" x1="30" y1="150" x2="271.5" y2="150"/><line class="cls-10" x1="30" y1="137.9" x2="271.5" y2="137.9"/><line class="cls-10" x1="30" y1="125.8" x2="271.5" y2="125.8"/><line class="cls-10" x1="30" y1="113.8" x2="271.5" y2="113.8"/><line class="cls-10" x1="30" y1="101.7" x2="271.5" y2="101.7"/><line class="cls-10" x1="30" y1="89.6" x2="271.5" y2="89.6"/><line class="cls-10" x1="30" y1="77.5" x2="271.5" y2="77.5"/><line class="cls-10" x1="30" y1="65.5" x2="271.5" y2="65.5"/><line class="cls-10" x1="30" y1="53.4" x2="271.5" y2="53.4"/><line class="cls-10" x1="30" y1="41.4" x2="271.5" y2="41.4"/><line class="cls-10" x1="259.4" y1="29.3" x2="259.4" y2="270.7"/><line class="cls-10" x1="247.3" y1="29.3" x2="247.3" y2="270.7"/><line class="cls-10" x1="235.3" y1="29.3" x2="235.3" y2="270.7"/><line class="cls-10" x1="223.2" y1="29.3" x2="223.2" y2="270.7"/><line class="cls-10" x1="211.1" y1="29.3" x2="211.1" y2="270.7"/><line class="cls-10" x1="199" y1="29.3" x2="199" y2="270.7"/><line class="cls-10" x1="186.9" y1="29.3" x2="186.9" y2="270.7"/><line class="cls-10" x1="174.9" y1="29.3" x2="174.9" y2="270.7"/><line class="cls-10" x1="162.8" y1="29.3" x2="162.8" y2="270.7"/><line class="cls-11" x1="150.8" y1="29.3" x2="150.8" y2="270.7"/><line class="cls-10" x1="138.7" y1="29.3" x2="138.7" y2="270.7"/><line class="cls-10" x1="126.6" y1="29.3" x2="126.6" y2="270.7"/><line class="cls-10" x1="114.6" y1="29.3" x2="114.6" y2="270.7"/><line class="cls-10" x1="102.5" y1="29.3" x2="102.5" y2="270.7"/><line class="cls-10" x1="90.4" y1="29.3" x2="90.4" y2="270.7"/><line class="cls-10" x1="78.3" y1="29.3" x2="78.3" y2="270.7"/><line class="cls-10" x1="66.2" y1="29.3" x2="66.2" y2="270.7"/><line class="cls-10" x1="54.2" y1="29.3" x2="54.2" y2="270.7"/><line class="cls-10" x1="42.1" y1="29.3" x2="42.1" y2="270.7"/><line class="cls-12" x1="24.7" y1="150" x2="276.8" y2="150"/><polygon class="cls-13" points="25.4 152.5 21.1 150 25.4 147.5 25.4 152.5"/><polygon class="cls-13" points="276.1 152.5 280.4 150 276.1 147.5 276.1 152.5"/><line class="cls-12" x1="150.8" y1="23.9" x2="150.8" y2="276.1"/><polygon class="cls-13" points="148.3 24.7 150.8 20.4 153.2 24.7 148.3 24.7"/><polygon class="cls-13" points="148.3 275.3 150.8 279.6 153.2 275.3 148.3 275.3"/></g><g id="Lines"><polygon class="cls-14" points="300 234.3 285.1 226 285.1 231.9 14.8 231.9 14.8 226 -.2 234.3 14.8 242.6 14.8 236.7 285.1 236.7 285.1 242.6 300 234.3"/></g><g id="Africa"><path class="cls-5" d="M104.5,120.7c-6.1-1.7-12.8-6.4-16.9-11.2h0c-2.2,2.9-4.6,5.8-6.6,8.8-.5.8-1,1.6-1.5,2.4.3,1.1.7,2.2,1,3.2,2.3,6.9,4.4,11.5,8.7,20.9.3.6-.4,1.5-1.4,2.3-1.3,1-3.1,2-4.5,2.4-1,.3-1.8.3-2.1-.2-.8-1.5-1.7-3.4-2.6-5.4-1.7-4-3.5-8.4-4.6-11.6-1.7-4.5-3.2-8.6-3.2-12.3,0-2.9,1.2-5.6,2.4-8.3,2.8-6.4,3.5-8.2,6.8-14.4,1.3-2.4,2.6-6.3,5.2-7.5.3-.4,2.4-1.7,3.5-2.6,0,0,.5-2.4.5-3.2,0,0,0,0,.1,0,3.4,1,7.6,2.9,11,4.3.3.1-.3,2.8,0,2.9.4.1.7,0,1.1,0,0,0,0,0,0,0,2.4,9.7,3.4,19.6,3.2,29.4Z"/><path class="cls-5" d="M106.7,127.1c-.1,4.3-.4,9.4-.6,17,0,.1,0,.3,0,.4-1.5.3-3,.6-4.5.9h0c1.2-5.9,2-11.7,2.5-17.6.2-2.3.3-4.7.3-7,.2-9.8-.8-19.7-3.2-29.4,0,0,0,0,0,0,.5-.1,1.1-.3,1.7-.3,1.3,3.7,2.9,12.5,3.2,16,.7,8.9.8,13.6.6,20.2Z"/><path class="cls-8" d="M111.3,185.2s0,0,0,0"/><path class="cls-8" d="M106.1,144.1s0,0,0,0"/><path class="cls-7" d="M104.5,120.7c0,2.4-.2,4.7-.3,7-5.4-1.6-10.7-6-16.5-10.5h0c0-2.8,0-5.5,0-7.7,4.1,4.8,10.8,9.5,16.9,11.2Z"/><path class="cls-5" d="M101.6,145.3h0c-4.2.8-8.4,1.1-12.6-.5-4.3-9.4-6.5-14-8.7-20.9h0q.3-2.8.5-5.5h0c2.1-3,4.4-5.9,6.6-8.9h0c.1,2.3.1,4.9,0,7.7h0c5.8,4.6,11.1,9,16.5,10.5-.5,5.9-1.3,11.8-2.5,17.5Z"/><path class="cls-4" d="M128.7,223.8c-4.3,1.2-8.2,2-12.5,2.5-.5,0-1,.1-1.4.2-2.1-12.5-2.8-28.6-3.7-41.2h.2c-6.4-11.4-8.2-14.8-14.5-22.7-3.1,10.3-5.7,18.8-9.2,28.8-5.7,12.4-8.4,22-13,33.4-.4-.1-.8-.2-1.2-.4-.1,0-.2,0-.3,0-3.4-1-8-2.1-11-3.4-.2,0-.5-.2-.7-.3,3.3-6.8,6.6-21.1,14.5-36.8,1.6-13.8-.9-29.4,2.6-40h0c.9,2,1.8,3.9,2.6,5.4.3.5,1.1.5,2.1.2.6,3.7,1.3,5.5,1.9,9.2.2,1.2,1.6,1,2.7,1.5.8.4,3.7-1.3,4-2.2,1.9-5.1-.3-7.1-4.2-11,1-.8,1.7-1.7,1.4-2.3,4.2,1.6,8.5,1.3,12.6.6,1.5-.2,3-.6,4.5-.9,0-.1,0-.3,0-.4,1.5,2,2.9,4,4.2,5.9,1.5,2.4,2.9,4.7,4.2,7.1,0,0,0,0,0,0,4,7.3,7.1,14.9,11.1,23.5,1.7,14.6.6,28.6,3.1,43.1Z"/><path class="cls-5" d="M115.1,145.3c-.3.4-.7.9-1.2,1.4-1.1,1.2-2.5,2.6-3.6,3.3-1.3-2-2.7-3.9-4.2-5.9.2-7.6.5-12.7.6-17,.8,3.5.6,5.6,8.4,18.2Z"/><path class="cls-8" d="M106.7,127.1c0,0,0-.2,0-.2"/><path class="cls-6" d="M114.5,157.2s0,0,0,0c-1.3-2.4-2.7-4.8-4.2-7.1,1.1-.7,2.5-2.1,3.6-3.3,6.8,11,1.4,11.6.7,10.5Z"/><path class="cls-8" d="M113.9,146.7c0,0-.1-.2-.2-.3"/><path class="cls-6" d="M91.8,158.1c-.3.8-3.2,2.5-4,2.2-1.1-.5-2.5-.3-2.7-1.5-.6-3.7-1.3-5.5-1.9-9.2,1.4-.4,3.3-1.4,4.5-2.4,3.8,3.9,6.1,5.9,4.2,11Z"/><path class="cls-1" d="M80.2,230.5c-.2.8-.9,1.4-1.7,1.6-.8.3-1.6.3-2.4.3-4.6,0-9.3,0-13.7-1.3-1-.3-2.1-.8-2.5-1.8-.2-.6-.2-1.3,0-1.9.3-2.1,1-4.2,2-6.1l.2-.4c3,1.3,7.6,2.4,11,3.4,0,0,.2,0,.3,0,1.6.5,4.7,1.6,5.7,2.1,1.1.5,1.5,2.8,1.2,4Z"/><path class="cls-1" d="M137.2,232.1c-3.6.1-17.6.6-18.9.3-1.3-.3-2.8-5-2.1-6.1,4.3-.6,8.2-1.4,12.5-2.5v.2c1.5.3,6.9,2,7.8,2.9.9,1,1.3,4.1.7,5.2Z"/><path class="cls-6" d="M114.2,70.9c-.5-.9-1.5-2.3-2.4-3.5,1.5-6,.6-10.6-.8-12.5-1.2.8-4.8.9-6.1.3-1.3-.6-3.5-1.1-4.8-.3-1.2.7-.9,6.6-1.2,8.6,0,.7-.2,1.5-.7,2-.5.5-2.1.6-2.3,0-1.3-1-3.3-.2-4.1,1.3-.8,1.6-.5,3.7.6,5,.3.4.7.8,1,1h0c-.8,2.6-3.3,3.6-5.8,4.6h0c1.3,1.5,2.4,2.8,2.1,4.7,0,.4-.3,1.3-.4,2,3.4,1,7.6,2.9,11,4.3.3.1-.3,2.8,0,2.9.4.1.7,0,1.1,0,0-.4.1-1.5.2-2.9h0c.2-2.2.4-4.8.4-5.2.9.3,2,.5,3.2.9,3.7.8,4.6.8,5.7-5.2,0,.2-1.8,1-4.4-3.1,1.3.6,3.2,1.2,4.6,1.2.3-.2.3-1.5.4-2.3h0c1.1,0,2.4-.6,2.8-1.3.5-.9.3-1.7-.1-2.6ZM108.9,70.5c-.3,0-.5-.9-.5-1.9s.2-2,.5-2,.5.9.5,2-.2,1.9-.5,1.9ZM111.3,64.7c-.5.4-1.7.4-2.6.3-1.2-.1-1.7-.1-2.8-.5.9-1.2,2.1-1.9,4.2-1.6,0,0,.2,0,.3.1,0,0,0,0,0,0,.4.2.7.4.9.7.3.3.3.7,0,1Z"/><path class="cls-2" d="M111.1,54.9c-1.2.8-4.8.9-6.1.3-1.3-.6-3.5-1.1-4.8-.3-1.2.7-.9,6.6-1.2,8.6,0,.7-.2,1.5-.7,2-.5.5-2.1.6-2.3,0-1.3-1-3.3-.2-4.1,1.3-.8,1.6-.5,3.7.6,5,.3.4.7.8,1,1h0c-.8,2.6-3.3,3.6-5.8,4.6h0c-.9-.9-2-1.9-2.6-3.1-1.7-3.2-3.6-8.4-3.5-12,0-3.6,3.5-8.6,6.2-10.8,3.9-3.2,10.7-2.5,15.6-1.3,3.6.9,5.5,1.8,7.8,4.8Z"/><path class="cls-8" d="M89.2,84.1c0,.3-.1.6-.2.8"/><path class="cls-9" d="M94.4,77.7c2.7,3.7,3.7,4.4,7.5,5.5"/><line class="cls-8" x1="104.5" y1="120.7" x2="104.4" y2="120.7"/><path class="cls-8" d="M90.5,87.6c2,1.2,4.1,2.1,6.3,2.8"/><path class="cls-5" d="M101.1,91l.2-2.5c.3-.3.8-.3,1.1,0s.5.6.5,1.1,0,.8-.1,1.2l-1.7.3Z"/><path class="cls-8" d="M96.6,74.1c-1.1,0-2.3-.5-3.2-1.2"/><path class="cls-2" d="M111.3,64.7c-.5.4-1.7.4-2.6.3-1.2-.1-1.7-.1-2.8-.5.9-1.2,2.1-1.9,4.2-1.6-.4,0,0,.1.3.1.4.2.7.4,1,.7.3.3.3.7,0,1Z"/><path class="cls-8" d="M110.4,63.1s0,0,0,0"/><path class="cls-8" d="M111.5,74.7c-.3,0-.6,0-.8,0"/><path class="cls-3" d="M109.4,68.5c0,1.1-.2,1.9-.5,1.9s-.5-.9-.5-1.9.2-2,.5-2,.5.9.5,2Z"/><path class="cls-8" d="M111.2,77l-.3,1.9c0,.2-1.8,1-4.4-3.1,1.3.6,3.2,1.2,4.6,1.2Z"/><path class="cls-9" d="M95.8,67.5c-.8-.3-1.8,0-2.3.7s-.7,1.7-.3,2.4"/><path class="cls-8" d="M93.5,68.3c.9.5,1.6,1.3,2.2,2.2"/><path class="cls-8" d="M91.4,103.8c-1.2,2-2.5,3.9-3.9,5.7"/><path class="cls-8" d="M99.5,153.6c-1,3.2-1.9,6.2-2.8,9"/></g></svg>