<?xml version="1.0" encoding="UTF-8"?><svg xmlns="http://www.w3.org/2000/svg" width="300" height="300" viewBox="0 0 300 300"><defs><style>.cls-1,.cls-2,.cls-3,.cls-4,.cls-5,.cls-6,.cls-7,.cls-8,.cls-9,.cls-10,.cls-11,.cls-12,.cls-13,.cls-14,.cls-15,.cls-16{stroke-linecap:round;stroke-linejoin:round;stroke-width:.5px;}.cls-1,.cls-2,.cls-3,.cls-4,.cls-5,.cls-9,.cls-10,.cls-12,.cls-16{stroke:#010101;}.cls-1,.cls-8{fill:#4b3c63;}.cls-2{fill:#4a3b33;}.cls-3{fill:#292222;}.cls-4{fill:#788c9e;}.cls-17{stroke:#58595b;stroke-width:.2px;}.cls-17,.cls-9,.cls-11{fill:#fff;}.cls-17,.cls-18{stroke-miterlimit:10;}.cls-5,.cls-6{fill:#c49a7e;}.cls-6,.cls-7,.cls-8,.cls-11,.cls-14,.cls-15{stroke:#231f20;}.cls-7{fill:#6c5e54;}.cls-10{fill:#eadfd8;}.cls-12,.cls-13,.cls-14,.cls-18{fill:none;}.cls-13,.cls-18{stroke:#000;}.cls-19,.cls-20{stroke-width:0px;}.cls-20{fill:#27b04b;}</style></defs><g id="Grid"><rect class="cls-17" x="29.3" y="29.3" width="241.5" height="241.5"/><line class="cls-17" x1="29.3" y1="258.6" x2="270.7" y2="258.6"/><line class="cls-17" x1="29.3" y1="246.6" x2="270.7" y2="246.6"/><line class="cls-17" x1="29.3" y1="234.5" x2="270.7" y2="234.5"/><line class="cls-17" x1="29.3" y1="222.5" x2="270.7" y2="222.5"/><line class="cls-17" x1="29.3" y1="210.4" x2="270.7" y2="210.4"/><line class="cls-17" x1="29.3" y1="198.3" x2="270.7" y2="198.3"/><line class="cls-17" x1="29.3" y1="186.2" x2="270.7" y2="186.2"/><line class="cls-17" x1="29.3" y1="174.2" x2="270.7" y2="174.2"/><line class="cls-17" x1="29.3" y1="162.1" x2="270.7" y2="162.1"/><line class="cls-17" x1="29.3" y1="150" x2="270.7" y2="150"/><line class="cls-17" x1="29.3" y1="137.9" x2="270.7" y2="137.9"/><line class="cls-17" x1="29.3" y1="125.8" x2="270.7" y2="125.8"/><line class="cls-17" x1="29.3" y1="113.8" x2="270.7" y2="113.8"/><line class="cls-17" x1="29.3" y1="101.7" x2="270.7" y2="101.7"/><line class="cls-17" x1="29.3" y1="89.6" x2="270.7" y2="89.6"/><line class="cls-17" x1="29.3" y1="77.5" x2="270.7" y2="77.5"/><line class="cls-17" x1="29.3" y1="65.5" x2="270.7" y2="65.5"/><line class="cls-17" x1="29.3" y1="53.4" x2="270.7" y2="53.4"/><line class="cls-17" x1="29.3" y1="41.4" x2="270.7" y2="41.4"/><line class="cls-17" x1="258.6" y1="29.3" x2="258.6" y2="270.7"/><line class="cls-17" x1="246.6" y1="29.3" x2="246.6" y2="270.7"/><line class="cls-17" x1="234.5" y1="29.3" x2="234.5" y2="270.7"/><line class="cls-17" x1="222.5" y1="29.3" x2="222.5" y2="270.7"/><line class="cls-17" x1="210.4" y1="29.3" x2="210.4" y2="270.7"/><line class="cls-17" x1="198.3" y1="29.3" x2="198.3" y2="270.7"/><line class="cls-17" x1="186.2" y1="29.3" x2="186.2" y2="270.7"/><line class="cls-17" x1="174.2" y1="29.3" x2="174.2" y2="270.7"/><line class="cls-17" x1="162.1" y1="29.3" x2="162.1" y2="270.7"/><line class="cls-17" x1="150" y1="29.3" x2="150" y2="270.7"/><line class="cls-17" x1="137.9" y1="29.3" x2="137.9" y2="270.7"/><line class="cls-17" x1="125.8" y1="29.3" x2="125.8" y2="270.7"/><line class="cls-17" x1="113.8" y1="29.3" x2="113.8" y2="270.7"/><line class="cls-17" x1="101.7" y1="29.3" x2="101.7" y2="270.7"/><line class="cls-17" x1="89.6" y1="29.3" x2="89.6" y2="270.7"/><line class="cls-17" x1="77.5" y1="29.3" x2="77.5" y2="270.7"/><line class="cls-17" x1="65.5" y1="29.3" x2="65.5" y2="270.7"/><line class="cls-17" x1="53.4" y1="29.3" x2="53.4" y2="270.7"/><line class="cls-17" x1="41.4" y1="29.3" x2="41.4" y2="270.7"/><line class="cls-18" x1="23.9" y1="150" x2="276.1" y2="150"/><polygon class="cls-19" points="24.7 152.5 20.4 150 24.7 147.5 24.7 152.5"/><polygon class="cls-19" points="275.3 152.5 279.6 150 275.3 147.5 275.3 152.5"/><line class="cls-18" x1="150" y1="23.9" x2="150" y2="276.1"/><polygon class="cls-19" points="147.5 24.7 150 20.4 152.5 24.7 147.5 24.7"/><polygon class="cls-19" points="147.5 275.3 150 279.6 152.5 275.3 147.5 275.3"/></g><g id="Lines"><polygon class="cls-20" points="300.1 54.9 285.1 46.6 285.1 52.5 14.9 52.5 14.9 46.6 0 54.9 14.9 63.2 14.9 57.4 285.1 57.4 285.1 63.2 300.1 54.9"/></g><g id="Asia"><path class="cls-5" d="M149,86.7h0c0,.5,0,1-.1,1.6,0,1.1-1.3,2-2.8,2-1.6,0-2.7,0-4.1,0-1,0-2-.7-2.1-1.4,0-.5-.1-1-.2-1.5h-.2c-1,0-1,0-2.8,0h-.2c0,.5-.1,1-.2,1.5,0,.7-1.2,1.4-2.1,1.4-1.4,0-2.5,0-4.1,0-1.5,0-2.8-.9-2.8-2,0-.8-.1-1.6-.2-2.2h0c-.9,0-1.9,0-2.6-.2-.5-.1-1-.4-1.1-.8-.6-.2-1.2,0-1.5.7-.4.9-.5,2.4.2,4.6.5,1.5,1.4,2.3,2.2,2.6.6.2,1.1.3,1.5.3.9,2.8,2.2,5,3.1,6,.7.5,1.3,1,1.9,1.5,5.2,4,6.2,4.5,7.8,4.5s1.6-.4,2.6-1.1c1.2-.9,2.4-2.1,3.4-3.4.8-.9,1.4-1.9,1.9-2.7.6-1,1.1-2.3,1.6-3.8.2-.7.5-1.5.8-2.2,0-.2.7-2.7,1-5.5-.2,0-.4,0-.6,0ZM132.9,96.5c3.5.9,9.2.8,10,.5-2.1,3.8-6.2,4.2-10-.5Z"/><path class="cls-8" d="M149.4,84l-1.3-.3c-2.4-.5-4.8-.5-7.2-.2l-1.5.2h0c0,.7,0,1.3.2,1.8,0,.7.1,1.2.2,1.8,0,.5.1,1,.2,1.5,0,.7,1.2,1.4,2.1,1.4,1.4,0,2.5,0,4.1,0,1.5,0,2.7-.9,2.8-2,0-.6,0-1.1.1-1.6h0c.3,0,.5,0,.6,0,0-.8.2-1.5.2-2.3-.1-.1-.2-.2-.4-.3ZM148,88.3c0,.7-.8,1.2-1.7,1.2-1.5,0-2.7,0-4,0-.7,0-1.3-.4-1.4-1-.2-1.3-.3-2.2-.5-3.9,1.3-.3,5.1-.3,7.8.3,0,.3,0,2.1-.2,3.4Z"/><path class="cls-11" d="M140.4,84.7c.1,1.6.3,2.6.5,3.9,0,.5.7.9,1.4,1,1.4,0,2.5,0,4,0,.9,0,1.7-.5,1.7-1.2.1-1.3.2-3,.2-3.4-2.7-.6-6.5-.5-7.8-.3ZM144.4,88.4c-.4,0-.7-.7-.7-1.7s.3-1.6.7-1.6.7.7.7,1.6-.3,1.7-.7,1.7Z"/><path class="cls-14" d="M141.3,92.9c-.7,1.8-3.5,1.6-4.5,1.1"/><path class="cls-14" d="M124.3,85.8c-.4-.3-.7-.6-1.1-.7"/><path class="cls-14" d="M125.7,93.3c-.2-.7-.5-1.5-.6-2.2"/><path class="cls-14" d="M128.2,161.2c-.2-.1-.3-.2-.4-.3"/><path class="cls-14" d="M146.1,162.2s0,0,0,0"/><path class="cls-7" d="M154.1,236c-.7.8-1.3,1.4-1.9,2-2.5,2.2-4.5,2-9,.6-.9-.3-1.9-.6-3-1,0-3.8-3.2-58-3.2-62.3h-.3c0,0,0,0,0,0-2.1,13.5-6.8,54.2-7.5,63.4-.7.3-1.5.4-2.3.5-2.7.2-5.8-.6-8-1.7-1.2-.6-2.1-1.4-2.5-2.1,0,0,.2-37.1,3.6-64.5,1.8.4,5,.4,6.8.6.6-3.5,1.1-6.9,1.5-10.3,2.7,1.5,16.2,1.6,17.9,1,0,2.9,0,5.8,0,8.6s5.6,0,5.6,0h0c.3,2.4.5,4.1.7,6.8.6,7.6,1.6,47.8,1.6,58.4Z"/><path class="cls-14" d="M137.2,171.8c-.2.7-.4,1.9-.6,3.5"/><path class="cls-6" d="M139.6,118.9c-.7,0-7.8-6.5-9-13.7h-.2c0-.9.3-2.9.3-4.3,5.2,4,6.2,4.5,7.8,4.5s1.6-.4,2.6-1.1l.6.2c.2,1.3.5,2.7.7,4,0,0,0,0,0,0t0,0c.5,6.3-2.2,10.4-2.9,10.4Z"/><path class="cls-14" d="M130.4,105.1c0,0,0,.1,0,.2"/><path class="cls-11" d="M143,97c-2.1,3.8-6.2,4.2-10-.5,3.5.9,9.2.8,10,.5Z"/><path class="cls-15" d="M145,86.8c0,.9-.3,1.7-.7,1.7s-.7-.7-.7-1.7.3-1.6.7-1.6.7.7.7,1.6Z"/><path class="cls-12" d="M150.2,85.9s0,0,0,0"/><path class="cls-12" d="M124.4,86.4v-.5"/><path class="cls-12" d="M148.2,84.9h0"/><path class="cls-12" d="M149.3,84.2c0,.4-.2,1.3-.3,2.5"/><path class="cls-12" d="M127.8,84.9h0"/><path class="cls-12" d="M144.5,100.8h0"/><path class="cls-5" d="M149.6,80.8c.4-4.2-.7-7.6-3.5-7.8-.8,0-11.9.5-15.5,1-1.5.6-2.8,1.4-4.2,2.6-1.5,2.5-2.4,5.3-2.2,8.2.9-.3,2.2-.7,2.5-.8h.4c2.9-.8,6-.8,8.9-.3h.7c0,.8-.1,1.4-.2,1.9h0s2.6,0,2.6,0h.1c0-.5-.1-1.1-.2-1.8h0s1.5-.2,1.5-.2c2.4-.4,4.8-.3,7.2.2l1.3.3c.2,0,.3.2.4.3,0-1.2,0-2.5-.2-3.5ZM134.4,82.3c-3.1-.9-6.7.4-7-.6.1-1,2.1-1.6,2.7-1.7,1.3-.4,3.6,0,4.7.8-.2.7,0,1.4-.4,1.6ZM141.3,82c-.7-1.9,1.1-2,2.8-2,1.8,0,3.4,1.3,3.8,2.2-1.8-.5-5.1-.6-6.6-.2Z"/><path class="cls-1" d="M136.1,83.7c-2.9-.5-6-.5-8.9.2h-.4c-.3.2-1.6.6-2.5.9,0,.3,0,.6,0,1,0,0,0,.1,0,.2.8.2,1.7.1,2.6.2h0c0,.6.1,1.4.2,2.2,0,1.1,1.3,2,2.8,2,1.5,0,2.7,0,4.1,0,1,0,2-.7,2.1-1.4,0-.5.1-1.1.2-1.6,0-.5.1-1.1.2-1.7,0-.5.1-1.1.2-1.8h-.7ZM135.2,88.5c0,.5-.6.9-1.3,1-1.4,0-2.5,0-4,0-.9,0-1.7-.5-1.7-1.2-.1-1.3-.2-3-.2-3.4,3.2-.8,6.3-.6,7.8-.3-.1,1.6-.3,2.6-.5,3.9Z"/><path class="cls-9" d="M127.8,84.9c0,.3,0,2.1.2,3.4,0,.7.8,1.2,1.7,1.2,1.5,0,2.7,0,4,0,.7,0,1.3-.4,1.3-1,.2-1.3.4-2.2.5-3.9-1.5-.3-4.7-.5-7.8.3ZM132,88.5c-.4,0-.7-.8-.7-1.7s.3-1.7.7-1.7.7.7.7,1.7c0,.9-.3,1.7-.7,1.7Z"/><path class="cls-16" d="M132.7,86.8c0,.9-.3,1.7-.7,1.7s-.7-.8-.7-1.7.3-1.7.7-1.7.7.7.7,1.7Z"/><path class="cls-1" d="M139.7,87.4h-.2c-1,0-1,0-2.8,0h-.2c0-.6.1-1.1.2-1.7h0s2.6,0,2.6,0h.1c0,.6.1,1.2.2,1.8Z"/><path class="cls-3" d="M147.9,82.3c-1.8-.5-5.1-.6-6.6-.2-.7-1.9,1.1-2,2.8-2,1.8,0,3.4,1.3,3.8,2.2Z"/><path class="cls-3" d="M134.8,80.7c-.2.7,0,1.4-.4,1.6-3.1-.9-6.7.4-7-.6.1-1,2.1-1.6,2.7-1.7,1.3-.4,3.6,0,4.7.8Z"/><path class="cls-3" d="M151.7,85.9c-.2-.2-1.1,0-1.4,0,0-.3.1-1.1-.4-1.6,0-1.2,0-2.5-.2-3.5.4-4.2-.7-7.6-3.5-7.8-.8,0-11.9.5-15.5,1-1.5.6-2.8,1.4-4.2,2.6-1.5,2.5-2.4,5.3-2.2,8.2-.6.2-1,.3-1,.3h0c-.6-.2-1.2,0-1.5.7-.2-3.4-2.3-10.2.3-13.6.5-.6,1.1-1.1,1.9-1.5,1.8-.8,1.6-9.3,21.1-8.2,6.6.4,7.3,6.1,7.3,10.3s-.2,3.8,0,4.2c1.6,2.7,0,7-.8,8.9Z"/><path class="cls-4" d="M150.2,103.1c-3.2,2.7-6.2,6-6.7,12.6-.3-2.4-.7-4.8-1.1-7.2h0s0,0,0,0c0-1.3-.3-2.6-.7-4l-.6-.2c1.2-.9,2.4-2.1,3.4-3.4,2.4,0,3.8,1.3,5.7,2.3Z"/><path class="cls-5" d="M147.9,94.4c.2-.7.5-1.5.8-2.2,0-.2.7-2.7,1-5.5.7,0,.4,0,.6-.6,0,0,0,0,0-.1.3,0,1.3-.2,1.4,0,.2.2.3.5.4.8.5,2.2-1.1,7.6-4.2,7.6Z"/><path class="cls-4" d="M158.9,94.3c-.6,4.6-4.6,10.2-4.9,14.8-1.8,8.7-2.6,13.9-2.8,15.8h0c0,3,0,6-.4,11-.9,11.3.6,22.1.4,29.6.2,2.2.4,3.9.5,5.4h0s-5.6,1.7-5.6,0c0-2.9,0-5.7,0-8.6-.1-15.5-.6-31.2-2.6-46.6.5-6.5,3.5-9.8,6.7-12.6-1.9-1-3.3-2.2-5.7-2.3.8-.9,1.4-1.9,1.9-2.7.6-1,1.1-2.3,1.6-3.8,3,0,4.7-5.4,4.2-7.6,0-.3-.2-.6-.4-.8.7-1.9,2.4-6.2.8-8.9-.3-.4,0-2.2,0-4.2h.1c0-3.8-.6-9.8-.6-13.6.2,0,.4,0,.5,0,2,.1,4,0,6-.3.1,0,.2,0,.4,0,1.8,12.5,2.1,19.6,0,35.6Z"/><path class="cls-12" d="M158.8,58.7c0,0,0-.1,0-.2"/><line class="cls-12" x1="115.1" y1="58.7" x2="115.1" y2="58.7"/><path class="cls-4" d="M131.3,114.9h-.1c-.4-4.9-4.3-10.1-9.1-11.1,1.3-3.3,5.1-2.5,8.6-3,0,1.4-.2,3.5-.3,4.3h.2c.6,3.2.8,6.4.8,9.8Z"/><path class="cls-10" d="M146.1,162.3c-1.7.6-15.1.5-17.9-1,1.3-9.1,2.2-17.6,2.4-26.4.2-7.8.7-14.2.7-19.9,0-3.4-.2-6.6-.8-9.8,1.2,7.2,8.3,13.7,9,13.7s3.3-4.1,2.9-10.4c.4,2.4.7,4.8,1.1,7.2,2,15.4,2.5,31.1,2.6,46.6Z"/><path class="cls-4" d="M131.3,114.9c0,5.8-.4,12.1-.7,19.9-.2,8.8-1.1,17.3-2.4,26.4-.5,3.3-1,6.7-1.5,10.3-1.8-.2-5-.3-6.8-.6-.8-.2-1.3-.4-1.3-.7,0-3.7,2.1-15.6,2.9-20.8.2-3.1,1-12.2.9-13.6-.1-1.3-.9-11-1.5-12.4-.1-1.2-1.7-9.6-1.7-8.6-1.1-5.2-1.7-10.4-3.2-15.2-1.1-3.5-2.4-13.8-2.3-17.1.3-8.2,0-12.9,1.5-23.8,2.1.8,4.3,1.1,6.6,1.1,0,3.2.1,7.5.3,12.4-2.6,3.4-.4,10.2-.3,13.6-.4.9-.5,2.4.2,4.6.5,1.5,1.4,2.3,2.2,2.6.5,2,.5,2.6,1.6,5.7,1.7,1.1,3,1.1,4.9,2.1-3.5.6-7.3-.3-8.6,3,4.8.9,8.8,6.2,9.1,11.1h.1Z"/><path class="cls-12" d="M152.5,73c0,0,0-.2,0-.3"/><path class="cls-12" d="M152,59.1c0-.1,0-.2,0-.3"/><path class="cls-12" d="M159,58.7c0,0-.1,0-.2,0"/><path class="cls-12" d="M152,59.1c0,0,0,0-.1,0"/><path class="cls-5" d="M121.7,59.7c-2.2,0-4.5-.3-6.6-1.1,0,0,0,0,0,0v-.2c-.6-.9-.7-6-.8-7-.1-1,.2-2.1,1.1-2.7.6-.4,1.3-.4,2-.4,1.5,0,2.8-.4,4,.4,1.1.7,1.8,1.9,1.9,3.1.1,1.2-.6,6.9-1.5,7.8Z"/><path class="cls-5" d="M158.4,58.8c-2,.3-4,.5-6,.3h0c-1.3-.9-2.4-7.1-1.4-8.4,1-1.3,2.7-1.8,4.3-1.6,1.1.1,2.2.6,2.8,1.4.8,1.3,1,6.9.2,8.2Z"/><path class="cls-2" d="M127.7,250.1c-.9,4.7-6.8,5.2-10.5,1.9-1.1-1,.5-10.1.7-11.3.1-.8.5-2.1.8-3.3,2.2,1.1,5.4,1.9,8,1.7.5,4.1,1.1,10.2.9,11Z"/><path class="cls-12" d="M126.8,239.1c0,0,0-.2,0-.2"/><path class="cls-2" d="M153.7,252c-4,3.3-10.6,2.8-11.6-1.9-.2-.9.5-7.4,1.1-11.5,4.4,1.4,6.5,1.5,9-.6.3,1,.6,2,.7,2.7.2,1.2,2,10.3.8,11.3Z"/><line class="cls-12" x1="143.2" y1="238.6" x2="143.2" y2="238.6"/><path class="cls-12" d="M152.1,238s0,0,0,0"/><line class="cls-13" x1="126.8" y1="84" x2="126.8" y2="84"/><path class="cls-12" d="M127,86.2c-.1-1-.2-1.7-.3-2"/><path class="cls-14" d="M151.2,124.9c0-1.7,0-3.3,0-5.3"/></g></svg>