<?xml version="1.0" encoding="UTF-8"?><svg xmlns="http://www.w3.org/2000/svg" width="300" height="300" viewBox="0 0 300 300"><defs><style>.cls-1{fill:#4b505f;}.cls-1,.cls-2,.cls-3,.cls-4,.cls-5,.cls-6,.cls-7,.cls-8,.cls-9{stroke-linecap:round;stroke-linejoin:round;stroke-width:.5px;}.cls-1,.cls-2,.cls-3,.cls-4,.cls-5,.cls-6,.cls-7,.cls-8,.cls-9,.cls-10{stroke:#000;}.cls-11{stroke:#58595b;stroke-width:.2px;}.cls-11,.cls-7{fill:#fff;}.cls-11,.cls-10{stroke-miterlimit:10;}.cls-2{fill:#acb4c3;}.cls-3{fill:#363d4c;}.cls-4{fill:#42495a;}.cls-5{fill:#313131;}.cls-6{fill:#876554;}.cls-8,.cls-10{fill:none;}.cls-12,.cls-13{stroke-width:0px;}.cls-13{fill:#27b04b;}</style></defs><g id="Grid"><rect class="cls-11" x="29.3" y="29.3" width="241.5" height="241.5"/><line class="cls-11" x1="29.3" y1="258.6" x2="270.7" y2="258.6"/><line class="cls-11" x1="29.3" y1="246.6" x2="270.7" y2="246.6"/><line class="cls-11" x1="29.3" y1="234.5" x2="270.7" y2="234.5"/><line class="cls-11" x1="29.3" y1="222.5" x2="270.7" y2="222.5"/><line class="cls-11" x1="29.3" y1="210.4" x2="270.7" y2="210.4"/><line class="cls-11" x1="29.3" y1="198.3" x2="270.7" y2="198.3"/><line class="cls-11" x1="29.3" y1="186.2" x2="270.7" y2="186.2"/><line class="cls-11" x1="29.3" y1="174.2" x2="270.7" y2="174.2"/><line class="cls-11" x1="29.3" y1="162.1" x2="270.7" y2="162.1"/><line class="cls-11" x1="29.3" y1="150" x2="270.7" y2="150"/><line class="cls-11" x1="29.3" y1="137.9" x2="270.7" y2="137.9"/><line class="cls-11" x1="29.3" y1="125.8" x2="270.7" y2="125.8"/><line class="cls-11" x1="29.3" y1="113.8" x2="270.7" y2="113.8"/><line class="cls-11" x1="29.3" y1="101.7" x2="270.7" y2="101.7"/><line class="cls-11" x1="29.3" y1="89.6" x2="270.7" y2="89.6"/><line class="cls-11" x1="29.3" y1="77.5" x2="270.7" y2="77.5"/><line class="cls-11" x1="29.3" y1="65.5" x2="270.7" y2="65.5"/><line class="cls-11" x1="29.3" y1="53.4" x2="270.7" y2="53.4"/><line class="cls-11" x1="29.3" y1="41.4" x2="270.7" y2="41.4"/><line class="cls-11" x1="258.6" y1="29.3" x2="258.6" y2="270.7"/><line class="cls-11" x1="246.6" y1="29.3" x2="246.6" y2="270.7"/><line class="cls-11" x1="234.5" y1="29.3" x2="234.5" y2="270.7"/><line class="cls-11" x1="222.5" y1="29.3" x2="222.5" y2="270.7"/><line class="cls-11" x1="210.4" y1="29.3" x2="210.4" y2="270.7"/><line class="cls-11" x1="198.3" y1="29.3" x2="198.3" y2="270.7"/><line class="cls-11" x1="186.2" y1="29.3" x2="186.2" y2="270.7"/><line class="cls-11" x1="174.2" y1="29.3" x2="174.2" y2="270.7"/><line class="cls-11" x1="162.1" y1="29.3" x2="162.1" y2="270.7"/><line class="cls-11" x1="150" y1="29.3" x2="150" y2="270.7"/><line class="cls-11" x1="137.9" y1="29.3" x2="137.9" y2="270.7"/><line class="cls-11" x1="125.8" y1="29.3" x2="125.8" y2="270.7"/><line class="cls-11" x1="113.8" y1="29.3" x2="113.8" y2="270.7"/><line class="cls-11" x1="101.7" y1="29.3" x2="101.7" y2="270.7"/><line class="cls-11" x1="89.6" y1="29.3" x2="89.6" y2="270.7"/><line class="cls-11" x1="77.5" y1="29.3" x2="77.5" y2="270.7"/><line class="cls-11" x1="65.5" y1="29.3" x2="65.5" y2="270.7"/><line class="cls-11" x1="53.4" y1="29.3" x2="53.4" y2="270.7"/><line class="cls-11" x1="41.4" y1="29.3" x2="41.4" y2="270.7"/><line class="cls-10" x1="23.9" y1="150" x2="276.1" y2="150"/><polygon class="cls-12" points="24.7 152.5 20.4 150 24.7 147.5 24.7 152.5"/><polygon class="cls-12" points="275.3 152.5 279.6 150 275.3 147.5 275.3 152.5"/><line class="cls-10" x1="150" y1="23.9" x2="150" y2="276.1"/><polygon class="cls-12" points="147.5 24.7 150 20.4 152.5 24.7 147.5 24.7"/><polygon class="cls-12" points="147.5 275.3 150 279.6 152.5 275.3 147.5 275.3"/></g><g id="Lines"><polygon class="cls-13" points="240.9 61.8 243.8 45 228 51.4 232.6 55.1 63.7 266.1 59.1 262.4 56.2 279.3 72 272.8 67.4 269.1 236.3 58.1 240.9 61.8"/></g><g id="Latin"><path class="cls-1" d="M105.9,153.9c1.8,2.6,3.2,4.9,4.5,6.9h0c5,8.2,6.5,12,7.8,16.2.2.8.5,1.5.8,2.3,1.4,4-1.1,6.4-4.6,12.4t0,0s0,0,0,0h0c-3.8-.5-8.4-5.3-9.9-9.1-2.7-5.7-6.8-11.3-11.3-18-3.1-4.6-8-8.7-3.2-19.4,2.4,2.3,11.7,4.1,14.6,5.9.4.2,1,.4,1.7.6,0,0,.2,0,.3,0"/><path class="cls-1" d="M106.4,151.7c1.8.4,3.9.5,4.6.4.8,0,2.7-1.6,3.9-3.3,2.1-3,3-4.4,3.3-5h0c5.5,4.5,20.8,7.2,24.5,8.3-1.6.7-3.2,1.4-4.8,2-9.1,3.4-18.1,4.6-27.6,6.7h0c-1.2-2-2.7-4.3-4.5-6.9"/><path class="cls-6" d="M140.7,87.6c-1.7-1.7-2.5-2.4-4.9-2.4-3,0-4.4-.2-7,.3-.9.2-5,.6-5.5,5.4-.2,1.9-1.1,2.7-1.1,4.6,0,.5,0,.9-.2,1.3-.2.4-.8.6-1.2.4-.3-.2-.3-.6-.4-1,0-.3-.4-.6-.7-.6-.7-.3-1.5,0-1.9.6-.4.6-.5,1.4-.4,2.2.1.9.5,1.8,1.2,2.6.3.4.7.8,1.2,1h.2c.5,3,2.7,5.7,5.1,7.6,2.1,1.7,4.4,2.9,5.8,3.1h0c1.5.2,2.8,0,3.9-.6h0c1.8-.9,3.1-2.5,4-4.1.5-.8.8-1.5,1.2-2.2,1.2-2.5,1.6-2.8,2.1-5.6.3-1.3.4-2.7.5-4,.1-3.9-.7-7.4-2-8.6ZM125.5,92.4c0-.2,0-.3.1-.5.2-.1.4-.2.6-.3,1.1-.4,2.4-.6,3.7-.6.7,0,.7,0,.9.4.2.3.4.7,0,.9-.3.1-.7,0-1.1,0-1.4-.2-2.9-.2-4.3,0ZM127.8,97c0-1,.4-1.9,1-2,.6,0,1.2.8,1.3,1.8,0,1-.4,1.9-1,2-.6,0-1.2-.8-1.3-1.8ZM134,108c-1.1,0-3.1.5-5.2-2.4-.4-.5,7.3-.2,8.5-.8-.5,1.8-1.4,3-3.3,3.2ZM139.3,98c-.5,0-1-.8-1.1-1.8,0-1,.3-1.9.8-1.9.5,0,1,.8,1.1,1.8s-.3,1.9-.8,1.9ZM141.6,92.3c-.1,0-.3,0-.5,0-1.1-.1-2.3-.1-3.4,0-.2,0-.5,0-.7,0-.4,0-.5-.3-.5-.5,0-.3,0-.5.5-.6.4,0,1.2,0,1.6,0,1,0,2,.3,2.8.7.1,0,.2.1.3.2,0,0,0,.2,0,.2Z"/><path class="cls-8" d="M92.3,140.4c-.1.2-.2.4-.3.6"/><path class="cls-6" d="M98.9,214c0-.2,0-.5,0-.7-.5-.5-1.2-.7-1.9-.6-1,.2-1.9,1-2.9.8-.6-.1-1.1-.6-1.3-1.2-.2-.6-.3-1.2-.4-1.8v-.2c.3-.6.8-1.7,1.4-3.1,1.9-4.3,4.8-11.1,5.6-12.8,2.4-7.5,0-2.6,4.9-11.8,1.5,3.8,6,8.6,9.9,9.1-3.9,5.5-13.5,18.5-15.3,22.2Z"/><path class="cls-1" d="M110.3,160.8h-.3"/><path class="cls-1" d="M155.3,146.1h0c-3.1.2-6.7.2-9.5,0-5-.8-7.6-2.9-11.1-4.7,1.1-.1,2.2-.2,3.2-.3,5-.4,8.8-.4,13.3,0,2,.9,4.4,4.4,4.2,5.1Z"/><path class="cls-6" d="M151.2,156.9c-4.3,3.8-17.9,14.7-21.1,17.8h0c0,0-4-1.2-5-1.4,5-6.5,7.7-14.7,13-19h0c1.6-.7,3.2-1.3,4.8-2.1,3.4.7,6.1,3.2,8.4,4.7Z"/><path class="cls-3" d="M137.7,178.8c-3.6,4.6-6.7,7.3-10.6,6.6-3.9-.7-5.6-4.9-7.1-8.5,0,0,0,0,0-.1-.3-1.4,3.7-4,5.2-3.5,1,.2,4.9,1.5,5,1.5h0c1.8,5.2,7.6-.4,7.6,4Z"/><path class="cls-8" d="M130.1,174.7s0,0,0,0"/><path class="cls-8" d="M121.2,118.2s0,0,0,0"/><path class="cls-8" d="M124.2,136.6s0,0,0,0"/><path class="cls-4" d="M143.5,129.9c-3,.5-5.8,1.5-8.4,3.1-.4.2-.7.4-1.1.7-.7-2.5-1.2-4-1.3-5.2,1.1-1.5,2.1-3.4,3.2-5.8h.2c1.1-2.7.9-5.4-1.2-7.2-.9-.8-2.4-.7-3.2-.8,2.2-.5,1.7-1.3,3.2-2.5h0c1.8-.9,3.1-2.5,4-4.1h.1c0,0,2.8,4.5,3.1,8.5.2,2.4.9,9.3,1.4,13.4Z"/><path class="cls-8" d="M138,141.2s0,0-.1-.1"/><path class="cls-6" d="M166.1,143.6c-3,1.4-6.5-2.4-10.4-2.3-1.6-.1-3.1-.2-4.5-.3-4.5-.3-8.3-.3-13.3,0-.7-.7-2.5-3.8-2.8-8.1,2.6-1.5,5.5-2.5,8.4-3.1.2,2,.4,3.3.4,3.3,1.7.2,4.6,1.7,13.7,2.4,3.9-.2,13.3-2,13.5.4.3,4.8-3.7,7-5,7.6Z"/><path class="cls-6" d="M160.6,150.3c-1.9,3.9-1.9,4.7-5.2,7.1-1.3.9-2.6.4-4.2-.6-2.3-1.5-5.1-4.1-8.4-4.7-3.7-1-18.9-3.7-24.5-8.3-.9-.8-1.6-1.6-1.9-2.5-.6-1.9-.9-3.8-1.5-6.2h0c2.6-1.3,5.5-1.9,8.4-1.7,0,.7.1,1.5.2,2.2,0,.3.3.6.7.9,1.3,1.1,4,2.4,5.3,2.7,2,.5,3.7,1.2,5.1,2,3.5,1.8,6.2,3.9,11.1,4.7,2.8.2,6.4.3,9.5,0,.5,0,1,0,1.5-.1.6,0,1.2,0,1.7.2.7.4,2.4,3.5,2.1,4.2Z"/><path class="cls-8" d="M143.9,133.2c-1.7-.2-3.2-.2-4.5,1.5"/><path class="cls-3" d="M100.2,225c-1,2.7-5,7.1-7.9,7.2-2.2-.5-4.5-1.5-4.9-8.2-.2-3,.3-8.6.5-10.5.1-.9,1.4-2.8,2-3.5.9-.9,2.6-2.7,3.9-2.7-.6,1.4-1.1,2.6-1.4,3.1v.2c0,.6,0,1.2.3,1.8.2.6.7,1.1,1.3,1.2,1,.2,1.9-.6,2.9-.8.7-.1,1.4,0,1.9.6,0,.2,0,.5,0,.7h0c-.8,8,2.2,8.4,1.3,11Z"/><path class="cls-2" d="M118.3,143.8h0c-.3.7-1.2,2.1-3.3,5.1-1.2,1.7-3.1,3.2-3.9,3.3-.7,0-2.9,0-4.6-.4,0,0-.2,0-.3,0-.7-.2-1.3-.4-1.7-.6-2.9-1.8-12.2-3.5-14.6-5.9.6-1.3,1.3-2.7,2.2-4.2,11.6-14.9,10.3-19.7,18.1-32.2.4.2.8.1,1.1-.2-1,2.9-2.9,8,2.2,27.4.5-.3,1-.6,1.6-.9.6,2.4.9,4.4,1.5,6.2.3.9.9,1.7,1.9,2.5Z"/><path class="cls-8" d="M138.2,101.7c-.6,2.1-4.1,2.1-5.9,1.5"/><path class="cls-8" d="M131.2,112.7c0,0-.1,0-.2,0"/><path class="cls-8" d="M120.1,102c-.1-.5-.1-1.1-.1-1.6"/><path class="cls-6" d="M134.9,112.1c-1.5,1.3-1,2-3.2,2.5-.3-.1-.5-.2-.8-.3h0c-2-.9-5-3.6-5.6-4.8,2.1,1.7,4.4,2.9,5.8,3.1h0c1.5.2,2.8,0,3.9-.6Z"/><path class="cls-8" d="M119.9,95.6s0,0-.1,0"/><path class="cls-8" d="M119.8,95.6s0,0-.1,0"/><path class="cls-5" d="M141.6,92.3c-.1,0-.3,0-.5,0-1.1-.1-2.3-.1-3.4,0-.2,0-.5,0-.7,0-.4,0-.5-.3-.5-.5,0-.3,0-.5.5-.6.4,0,1.2,0,1.6,0,1,0,2,.3,2.8.7.1,0,.2.1.3.2,0,0,0,.2,0,.2Z"/><path class="cls-5" d="M130.8,92.4c-.3.1-.7,0-1.1,0-1.4-.2-2.9-.2-4.3,0,0-.2,0-.3.1-.5.2-.1.4-.2.6-.3,1.1-.4,2.4-.6,3.7-.6.7,0,.7,0,.9.4.2.3.4.7,0,.9Z"/><path class="cls-9" d="M139.3,98c-.5,0-1-.8-1.1-1.8,0-1,.3-1.9.8-1.9.5,0,1,.8,1.1,1.8s-.3,1.9-.8,1.9Z"/><path class="cls-9" d="M129,98.7c-.6,0-1.2-.8-1.3-1.8,0-1,.4-1.9,1-2,.6,0,1.2.8,1.3,1.8,0,1-.4,1.9-1,2Z"/><path class="cls-7" d="M137.3,104.8c-.5,1.8-1.4,3-3.3,3.2-1.1,0-3.1.5-5.2-2.4-.4-.5,7.3-.2,8.5-.8Z"/><path class="cls-5" d="M144.7,88.8c-.3.5-.7,1-.9,1.6-.4,1-.2,2.1-.1,3.1,0,1-.2,2.2-1,2.7.1-3.9-.7-7.4-2-8.6-1.7-1.7-2.5-2.4-4.9-2.4-3,0-4.4-.2-7,.3-.9.2-5,.6-5.5,5.4-.2,1.9-1.1,2.7-1.1,4.6,0,.5,0,.9-.2,1.3-.2.4-.8.6-1.2.4-.3-.2-.3-.6-.4-1,0-.3-.4-.6-.7-.6-.7-.3-1.5,0-1.9.6-.4.6-.5,1.4-.4,2.2.1.9.5,1.8,1.2,2.6-.1,0-.3,0-.4,0-.3-.2-1-1.3-1-1.5-.2-.7,0-1.3-.5-2-.7-1.2-2-2.4-1.6-3.9.2-.6.7-1.1.9-1.8.7-1.8-1-4,0-5.6.4-.6,1.2-1,1.6-1.6.8-1.3,0-3.1.8-4.4.6-.8,1.8-1,2.8-1,1,0,2.1.3,3.1.1,1.6-.4,2.7-1.8,4.2-2.2,2.2-.5,4.2,1.2,6.4,1.5,1.1.2,2.2,0,3.3,0,1.1,0,2.3.3,3,1.1,1.4,1.5.8,4.2,2.2,5.7.5.5,1.2.9,1.4,1.6.2.6,0,1.2-.3,1.8Z"/><path class="cls-8" d="M142.6,96.2s0,0,0,0"/><path class="cls-8" d="M118.3,100.9s0,0,.1,0"/><path class="cls-4" d="M130.8,114.4c-1.6-.4-3.7-.1-5.2-1.8-2.4-2.5-5.3-4.6-8.1-5.3-2.3-.6-4.6-.4-6.4,1.3-.4.4-.8.4-1.1.2-1-.4-1.7-2.1-.9-2.9.4-.4,1.8-2.2,2.2-2.6,2.3-2,4-2.7,7-2.4.1,0,.3,0,.4,0,.3.4.7.8,1.2,1h.2c.5,3,2.7,5.7,5.1,7.6.7,1.2,3.6,3.9,5.6,4.8Z"/><path class="cls-4" d="M131.7,114.6c-2.2-.5-9,1.9-10.3,3.4t0,0s0,0,0,0c.5-4.6-1.7-10.1-3.8-10.9,2.8.8,5.7,2.8,8.1,5.3,1.6,1.6,3.6,1.4,5.2,1.8h0c.3.1.6.2.8.3Z"/><path class="cls-2" d="M136.1,122.4h-.2c-1.1,2.5-2.2,4.4-3.2,5.9-2.9,4.2-5.7,5.7-8.4,8.2-.4-.3-.7-.7-.7-.9,0-.8-.1-1.5-.2-2.2-.6-5.6-1.9-9.8-2.1-15.3,0,0,0,0,0,0t0,0c1.3-1.5,8.2-3.9,10.3-3.4.8,0,2.3,0,3.2.8,2,1.8,2.2,4.5,1.2,7Z"/><path class="cls-4" d="M123.3,133.4c-2.9-.2-5.8.4-8.4,1.7h0c-.5.3-1.1.6-1.6.9-5.1-19.4-3.2-24.5-2.2-27.4,1.8-1.7,4-2,6.4-1.3,2,.8,4.2,6.3,3.8,10.9.1,5.4,1.4,9.7,2.1,15.3Z"/><path class="cls-8" d="M123.4,133.4h0"/><path class="cls-8" d="M143.6,129.9c0,0-.1,0-.2,0"/></g></svg>