<?xml version="1.0" encoding="UTF-8"?><svg xmlns="http://www.w3.org/2000/svg" width="300" height="300" viewBox="0 0 300 300"><defs><style>.cls-1{stroke:#58595b;stroke-width:.2px;}.cls-1,.cls-2{fill:#fff;}.cls-1,.cls-3{stroke-miterlimit:10;}.cls-4{fill:#cb9686;}.cls-4,.cls-5,.cls-6,.cls-7,.cls-8,.cls-2,.cls-9,.cls-10{stroke-linecap:round;stroke-linejoin:round;stroke-width:.5px;}.cls-4,.cls-5,.cls-6,.cls-7,.cls-8,.cls-2,.cls-9,.cls-10,.cls-3{stroke:#000;}.cls-5{fill:#423b38;}.cls-6{fill:#1d273d;}.cls-7{fill:#ea1e79;}.cls-8{fill:#e9f3f6;}.cls-9{fill:#003580;}.cls-10,.cls-3{fill:none;}.cls-11,.cls-12{stroke-width:0px;}.cls-12{fill:#27b04b;}</style></defs><g id="Grid"><rect class="cls-1" x="29.3" y="29.3" width="241.5" height="241.5"/><line class="cls-1" x1="29.3" y1="258.6" x2="270.7" y2="258.6"/><line class="cls-1" x1="29.3" y1="246.6" x2="270.7" y2="246.6"/><line class="cls-1" x1="29.3" y1="234.5" x2="270.7" y2="234.5"/><line class="cls-1" x1="29.3" y1="222.5" x2="270.7" y2="222.5"/><line class="cls-1" x1="29.3" y1="210.4" x2="270.7" y2="210.4"/><line class="cls-1" x1="29.3" y1="198.3" x2="270.7" y2="198.3"/><line class="cls-1" x1="29.3" y1="186.2" x2="270.7" y2="186.2"/><line class="cls-1" x1="29.3" y1="174.2" x2="270.7" y2="174.2"/><line class="cls-1" x1="29.3" y1="162.1" x2="270.7" y2="162.1"/><line class="cls-1" x1="29.3" y1="150" x2="270.7" y2="150"/><line class="cls-1" x1="29.3" y1="137.9" x2="270.7" y2="137.9"/><line class="cls-1" x1="29.3" y1="125.8" x2="270.7" y2="125.8"/><line class="cls-1" x1="29.3" y1="113.8" x2="270.7" y2="113.8"/><line class="cls-1" x1="29.3" y1="101.7" x2="270.7" y2="101.7"/><line class="cls-1" x1="29.3" y1="89.6" x2="270.7" y2="89.6"/><line class="cls-1" x1="29.3" y1="77.5" x2="270.7" y2="77.5"/><line class="cls-1" x1="29.3" y1="65.5" x2="270.7" y2="65.5"/><line class="cls-1" x1="29.3" y1="53.4" x2="270.7" y2="53.4"/><line class="cls-1" x1="29.3" y1="41.4" x2="270.7" y2="41.4"/><line class="cls-1" x1="258.6" y1="29.3" x2="258.6" y2="270.7"/><line class="cls-1" x1="246.6" y1="29.3" x2="246.6" y2="270.7"/><line class="cls-1" x1="234.5" y1="29.3" x2="234.5" y2="270.7"/><line class="cls-1" x1="222.5" y1="29.3" x2="222.5" y2="270.7"/><line class="cls-1" x1="210.4" y1="29.3" x2="210.4" y2="270.7"/><line class="cls-1" x1="198.3" y1="29.3" x2="198.3" y2="270.7"/><line class="cls-1" x1="186.2" y1="29.3" x2="186.2" y2="270.7"/><line class="cls-1" x1="174.2" y1="29.3" x2="174.2" y2="270.7"/><line class="cls-1" x1="162.1" y1="29.3" x2="162.1" y2="270.7"/><line class="cls-1" x1="150" y1="29.3" x2="150" y2="270.7"/><line class="cls-1" x1="137.9" y1="29.3" x2="137.9" y2="270.7"/><line class="cls-1" x1="125.8" y1="29.3" x2="125.8" y2="270.7"/><line class="cls-1" x1="113.8" y1="29.3" x2="113.8" y2="270.7"/><line class="cls-1" x1="101.7" y1="29.3" x2="101.7" y2="270.7"/><line class="cls-1" x1="89.6" y1="29.3" x2="89.6" y2="270.7"/><line class="cls-1" x1="77.5" y1="29.3" x2="77.5" y2="270.7"/><line class="cls-1" x1="65.5" y1="29.3" x2="65.5" y2="270.7"/><line class="cls-1" x1="53.4" y1="29.3" x2="53.4" y2="270.7"/><line class="cls-1" x1="41.4" y1="29.3" x2="41.4" y2="270.7"/><line class="cls-3" x1="23.9" y1="150" x2="276.1" y2="150"/><polygon class="cls-11" points="24.7 152.5 20.4 150 24.7 147.5 24.7 152.5"/><polygon class="cls-11" points="275.3 152.5 279.6 150 275.3 147.5 275.3 152.5"/><line class="cls-3" x1="150" y1="23.9" x2="150" y2="276.1"/><polygon class="cls-11" points="147.5 24.7 150 20.4 152.5 24.7 147.5 24.7"/><polygon class="cls-11" points="147.5 275.3 150 279.6 152.5 275.3 147.5 275.3"/></g><g id="Lines"><polygon class="cls-12" points="259.5 87.6 265.8 71.7 249 74.8 252.7 79.3 44.2 251.3 40.5 246.8 34.2 262.7 51 259.6 47.3 255 255.8 83 259.5 87.6"/></g><g id="Oceania"><path class="cls-9" d="M136.9,158.7s-1.2.4-3.2.9c0,0-.2,0-.2,0-2.1.4-5,.8-8.2.9-.2,0-.3,0-.5,0-2-5.6-1.5-11.6,1.9-24.4v-.2c-7.9,2.6-17.3,5.1-24.9,6.4-5.4,24.4-13.1,57-13.9,55.2-.5.3-1,.5-1.5.7-.6.2-1.2.4-1.8.5-3.2.5-6.4-.4-9.1-1.8-.4-.2-.7-.4-1.1-.6-3.8-2,.4-10.2,4.3-24.2,4.1-14.8-.3-24.4,1.9-38.7,0-.2.2-4,.7-7.6,8.3-1,18.2-2.3,24.1,1.6,1-1.6,1.5-3,1.9-4.1l.4.2c5.5-1.8,16.5-2.8,24.2-2.4,4.3.2,7.7.8,8.4,2,0,13.5-3.9,20.5-3.5,35.7Z"/><path class="cls-10" d="M102.6,138.4c-.3,1.3-.6,2.6-.9,4"/><path class="cls-10" d="M101.7,142.3c0,0-.2,0-.3,0"/><path class="cls-10" d="M132.3,133.9c-1.8.7-3.7,1.3-5.7,2"/><path class="cls-4" d="M134.6,51c-.2-.4-.4-.9-.7-1.3h0c-2.4-.8-7.7-1.3-9.2,3.2-.1.3-.4,1-.8,1.7.3.4.4,1.1.2,1.6-.2.5-.8,1.2-1.3,1-.2.6-.4,1.1-.9,1.6-.4.4-1.1.7-1.6.4-.4-.2-.6-.6-.5-1-.4.5-1.1.7-1.6.4-.7-.3-1-1.2-.7-1.8h0s0,0-.1-.1c-.4,0-.9-.2-1.1-.6,0,0,0-.1,0-.2-.3-.1-.6-.2-.8,0-.8.4-1.3,1.2-1.7,2-.4.9-.8,1.9-.8,2.8s.3,2,1.1,2.7h-.1c-1.3.8-2.8,1.1-4.2,1.2h-.2v.3c-.8,1.4,1,6.6,1.8,7.8,2.1,3,3.4,7.8,3.3,11.8h.1c3.1,10.7,6.3,6.3,5.9,2t0,0c-.5-2.3-1.4-5-1.9-9.4-.5-1.7,1.8-2.3,1.8-2.3l.4-.2c2.8,2.7,4.9,3,5.6,3.1,1.8.2,1.4-1.2,2-2.3.5-1,2-2.3,2-2.5,0-.3-.1-.4-.3-.4s-.3,0-.5,0c-2.1-.5-1.7-1.9-1.8-3.6.3.2,2,1.1,3.8,1.9.1,0,.2,0,.4.2.3-.7.2-1.2.8-2.6.9,0,1.8-.4,1.8-1.4,0-1.7-1.4-4.3-.7-7.8.2-.5.4-1.3.5-1.7-.1,0-.2,0-.3,0-.7,0-1.3,0-2,0-.4,0-.9.2-.8-.2.3-.8,2-1.2,2.9-1.3.3,0,.6,0,.7.1.1-2,.2-3.4-.4-4.8ZM132.3,58.7c.4,0,.6.9.5,1.8-.2.9-.6,1.6-1.1,1.6-.4,0-.6-.9-.5-1.8s.6-1.6,1.1-1.6Z"/><path class="cls-8" d="M120.8,93c-.2,1.2-1.1,2.9-2.2,4.9-2.3,4.2-5.7,9.3-7.2,12.2-3.5,7.1-2.8,9.4-4,13.2-.4,1.2-.9,2.5-1.9,4.1-5.9-3.9-15.9-2.5-24.1-1.6.2-1.3.5-2.6.7-3.7,1.2,1.1,2.5,1.8,4.1,1.7,2.7-.3,4.9-1.4,5.2-4.1.2-2.4-1.5-5.6-3.7-6.7h0c7.2-10,7.9-20.7,9.2-23.7h0c1.1-.4,2.1-.8,2.9-1.1,2.1-.8,9.2-3.7,10.2-4.4h1.1c-.2,1.5-.4,3-.5,4.3-.2,4.3-2.2,8.2-2.2,12.3,0,2.2-.6,4.3,1.5,4.8,3.7,1.5,3.7-12.5,4.7-19.4,0-.4.1-.9.1-1.4h.1c3.1,10.7,6.3,6.3,5.9,2,.5,2.1.7,4,.2,6.7Z"/><path class="cls-10" d="M110,83.9h0"/><path class="cls-4" d="M132,120.6v.5c-7.8-.4-18.8.6-24.2,2.4l-.4-.2c1.2-3.7.5-6,4-13.2,1.4-2.9,4.8-8,7.2-12.2h.1c-1.9,7.8-.7,7.9-2.3,15.8,2.6,2.2,12.5,5.6,15.7,6.8Z"/><path class="cls-4" d="M85.6,212.5c.4,2-.5,4.1-1.9,5.5-1.5,1.4-3.5,2.1-5.5,2.4-2.2.3-4.5.1-6.6-.5h-.2c0-2.7,1.5-6.3,2.1-7.8,2.1-5,.7-10.7,1.8-15,2.7,1.4,5.9,2.4,9.1,1.8l2-.6c-1.7,3.4-4.7,10.7-4.6,14.5,1.2-.3,2.5-.5,3.7-.6v.3Z"/><path class="cls-10" d="M75.4,196.8s0,0,0,.1"/><path class="cls-4" d="M94.3,212.4h0c-.5.6-1,1.2-1.7,1.6-.7.4-1.6.6-2.3.2-.7-.4-1.2-1.6-.8-2.3h0c1.2-.2,2.2-.4,2.8-.8,1.3-.9,1.9-.1,1.9,1.3Z"/><path class="cls-6" d="M94.3,212.4c0,1.3-.8,3.2-2.2,4.6-2.2,2.3-7.1,4-9.6,4.7-5.1,1.3-7.7,1.5-9.4,1.1-1.3-.3-1.7-1.5-1.6-3h.2c2.1.7,4.4.9,6.6.5,2-.3,4-1,5.5-2.4,1.5-1.4,2.3-3.5,1.9-5.5v-.3c1.4-.1,2.8-.2,4-.3h0c-.5.7,0,2,.8,2.4.7.4,1.6.2,2.3-.2.7-.4,1.2-1,1.7-1.6Z"/><path class="cls-10" d="M120.6,86.4c0,0,0-.1,0-.2"/><path class="cls-5" d="M135,50.9h-.4c-.2-.3-.4-.7-.7-1.2h0c-2.4-.8-7.7-1.3-9.2,3.2-.1.3-.4,1-.8,1.7,0,0,0-.1-.1-.2-.4-.4-1-.4-1.6-.5,0-.5.4-.8.2-1.4-.5-1.7-3.1-1.2-3.3,0,0,0-1.5-.7-2.1.3-.8,1.2,0,2,.2,1.9-.4.2-1.1.7-1.1,1.2-.3-.1-.6-.2-.8,0-.8.4-1.3,1.2-1.7,2-.4.9-.8,1.9-.8,2.8s.3,2,1.1,2.7h-.1c-1.3.8-2.8,1.1-4.2,1.2h-.2c-.7,0-1.5,0-2.2-.2h0c-.5-.2-.9-.6-1.3-.9-4.3-4.1-3.3-14.3-.2-18.6,3.4-4.8,11.8-6.7,17.6-5.7,3,.5,11.6,4.8,11.6,11.8Z"/><path class="cls-10" d="M135,55.9s0,0,0,.1"/><line class="cls-10" x1="134.5" y1="57.3" x2="134.5" y2="57.3"/><path class="cls-2" d="M131.7,70.5h0c-.2.5-1.1,1-1.5,1.8-.1,0-.3,0-.5,0-2.1-.5-1.7-1.9-1.8-3.6.3.2,2,1.1,3.8,1.9Z"/><path class="cls-4" d="M111,84h-1.1c-1,.7-8.1,3.6-10.2,4.4-.8.3-1.8.6-2.9,1-4.2,1.4-10,3.2-13.1,4.2,1.2,5.4,1.5,14,3.2,19.3.2,0,.5.2.7.3,2.2,1.1,3.9,4.2,3.7,6.7-.2,2.7-2.5,3.8-5.2,4.1-1.6.2-2.9-.6-4.1-1.7-1.2-1.1-1-5-.5-6.5-2.6-8.9-5.8-11.9-7.7-18.3-2.4-8.4,1.4-9,4.2-11.5,11.4-5.9,14.8-6.8,22.5-10.5,3.2-1.7,4.3-1,6.6-1.6,1.1.5,2.3.7,3,1.7,1.4,2.3,1.2,5.4.8,8.5Z"/><path class="cls-10" d="M107.2,73.8s0,0,0,0"/><path class="cls-4" d="M138.8,172.6c-.2.3-.5.5-.8.8-3.6,2.6-7.5,4.7-11.6,6.2h0c-.9-2.9-.4-8.1.3-8.8-.6-3.1-.8-6.7-1.4-9.8v-.4c3.3,0,6.2-.5,8.2-.9v.6c-.8,2.4-.8,6,1.1,7.7.8.7,1.9.8,3,.6v.5c.5.5,1,1,1.3,1.6.3.6.3,1.4,0,1.9Z"/><path class="cls-4" d="M145.7,168c0,0,0,.1,0,.2,0,0,0,.1,0,.2-.3.5-1,.8-1.5.9-.6,0-1.2-.2-1.8-.6-.5-.4-1.2-1-1.8-1.3,3.1-1.4,5.8-3.3,5.1.6Z"/><path class="cls-6" d="M145.6,168.4c-.8,3.8-4.5,5.8-8.8,8.7-2.1,1.5-5.5,3-8.1,4.2-1.2.5-1.9-.3-2.4-1.7h0c4.1-1.6,8.1-3.7,11.6-6.3.3-.2.6-.4.8-.8.4-.6.3-1.3,0-1.9-.3-.6-.8-1.1-1.2-1.6v-.5c.9-.2,1.9-.6,2.9-1.1.6.3,1.2.9,1.8,1.3.5.4,1.1.7,1.8.6.5,0,1.2-.4,1.5-.9Z"/><path class="cls-10" d="M133.8,159.8c0,.1-.1.3-.2.4"/><path class="cls-10" d="M116.8,63.6c-.8.6-2,.5-2.8-.2"/><path class="cls-10" d="M132.8,68.1c-.4,0-.8-.2-1.2-.4"/><path class="cls-10" d="M120.9,74.4c-.8-.8-1.6-1.7-2.5-2.9"/><path class="cls-11" d="M132.8,60.5c-.2.9-.6,1.6-1.1,1.6-.4,0-.6-.9-.5-1.8s.6-1.6,1.1-1.6c.4,0,.6.9.5,1.8Z"/><path class="cls-10" d="M134,49.7h0"/><path class="cls-5" d="M135.1,56.5c0,.2-.1.3-.2.5,0,0,0,.2-.2.2,0,0-.1,0-.2,0-.1,0-.2,0-.3,0-.7,0-1.3,0-2,0-.4,0-.9.2-.8-.2.3-.8,2-1.2,2.9-1.3.3,0,.6,0,.7.1,0,0,0,0,0,0,.1.1,0,.3,0,.5Z"/><path class="cls-10" d="M109.7,64.7c0,0-.1.1-.2.2"/><path class="cls-5" d="M114.6,84.4c0,.5,0,1-.1,1.4-.9,6.9-.9,20.9-4.7,19.4-2.1-.4-1.4-2.6-1.5-4.8,0-4,1.9-7.9,2.2-12.3,0-1.3.3-2.8.5-4.2.4-3,.6-6.2-.8-8.5-.6-1-1.9-1.2-3-1.7-.6-.3-1.2-.6-1.5-1.2-.9-2-1.5-6.5.2-9h0c.4.3.8.6,1.3.9h0c.7.1,1.4.2,2.2.2v.3c-.8,1.4,1,6.6,1.8,7.8,2.1,3,3.4,7.8,3.3,11.8Z"/><path class="cls-10" d="M94.4,212.3s0,0,0,0"/><path class="cls-10" d="M145.7,168c0,.1,0,.3,0,.4"/><path class="cls-7" d="M124.1,56.2c-.2.5-.8,1.2-1.3,1-.2.6-.4,1.1-.9,1.6-.4.4-1.1.7-1.6.4-.4-.2-.6-1.1-.5-1.5-.4.5-1.1,1.1-1.6.9-.7-.3-1-1.2-.7-1.8h0c0,0,.4-.4.4-.4,0,0-.5.3-.5.3-.4,0-.9-.2-1.1-.6,0,0,0-.1,0-.2,0-.5.6-1,1.1-1.2-.3.1-1-.7-.2-1.9.6-1,2.1-.3,2.1-.3.2-1.2,2.7-1.7,3.3,0,.2.7-.1.9-.2,1.4.6,0,1.2,0,1.6.5,0,0,0,.1.1.2.3.4.4,1.1.2,1.6Z"/></g></svg>