<?xml version="1.0" encoding="UTF-8"?><svg xmlns="http://www.w3.org/2000/svg" width="300" height="300" viewBox="0 0 300 300"><defs><style>.cls-1{stroke:#58595b;stroke-width:.2px;}.cls-1,.cls-2,.cls-3,.cls-4,.cls-5,.cls-6,.cls-7,.cls-8,.cls-9,.cls-10,.cls-11,.cls-12{stroke-miterlimit:10;}.cls-1,.cls-13{fill:#fff;}.cls-14,.cls-2,.cls-3,.cls-4,.cls-5,.cls-6,.cls-7,.cls-8,.cls-9,.cls-13,.cls-11,.cls-12{stroke-width:.5px;}.cls-14,.cls-2,.cls-4,.cls-6,.cls-13,.cls-11{stroke:#231f20;}.cls-14,.cls-10,.cls-11,.cls-12{fill:none;}.cls-2{fill:#010101;}.cls-3{fill:#ef3a37;}.cls-3,.cls-5,.cls-7,.cls-8,.cls-9,.cls-10,.cls-12{stroke:#000;}.cls-4{fill:#987447;}.cls-5{fill:#ababab;}.cls-6{fill:#ddbda2;}.cls-7{fill:#ccc;}.cls-8{fill:#cd3543;}.cls-9{fill:#83424f;}.cls-15,.cls-16,.cls-17{stroke-width:0px;}.cls-16{fill:#27b04b;}.cls-17{fill:#dcb1a3;}</style></defs><g id="Grid"><rect class="cls-1" x="29.3" y="29.3" width="241.5" height="241.5"/><line class="cls-1" x1="29.3" y1="258.6" x2="270.7" y2="258.6"/><line class="cls-1" x1="29.3" y1="246.6" x2="270.7" y2="246.6"/><line class="cls-1" x1="29.3" y1="234.5" x2="270.7" y2="234.5"/><line class="cls-1" x1="29.3" y1="222.5" x2="270.7" y2="222.5"/><line class="cls-1" x1="29.3" y1="210.4" x2="270.7" y2="210.4"/><line class="cls-1" x1="29.3" y1="198.3" x2="270.7" y2="198.3"/><line class="cls-1" x1="29.3" y1="186.2" x2="270.7" y2="186.2"/><line class="cls-1" x1="29.3" y1="174.2" x2="270.7" y2="174.2"/><line class="cls-1" x1="29.3" y1="162.1" x2="270.7" y2="162.1"/><line class="cls-1" x1="29.3" y1="150" x2="270.7" y2="150"/><line class="cls-1" x1="29.3" y1="137.9" x2="270.7" y2="137.9"/><line class="cls-1" x1="29.3" y1="125.8" x2="270.7" y2="125.8"/><line class="cls-1" x1="29.3" y1="113.8" x2="270.7" y2="113.8"/><line class="cls-1" x1="29.3" y1="101.7" x2="270.7" y2="101.7"/><line class="cls-1" x1="29.3" y1="89.6" x2="270.7" y2="89.6"/><line class="cls-1" x1="29.3" y1="77.5" x2="270.7" y2="77.5"/><line class="cls-1" x1="29.3" y1="65.5" x2="270.7" y2="65.5"/><line class="cls-1" x1="29.3" y1="53.4" x2="270.7" y2="53.4"/><line class="cls-1" x1="29.3" y1="41.4" x2="270.7" y2="41.4"/><line class="cls-1" x1="258.6" y1="29.3" x2="258.6" y2="270.7"/><line class="cls-1" x1="246.6" y1="29.3" x2="246.6" y2="270.7"/><line class="cls-1" x1="234.5" y1="29.3" x2="234.5" y2="270.7"/><line class="cls-1" x1="222.5" y1="29.3" x2="222.5" y2="270.7"/><line class="cls-1" x1="210.4" y1="29.3" x2="210.4" y2="270.7"/><line class="cls-1" x1="198.3" y1="29.3" x2="198.3" y2="270.7"/><line class="cls-1" x1="186.2" y1="29.3" x2="186.2" y2="270.7"/><line class="cls-1" x1="174.2" y1="29.3" x2="174.2" y2="270.7"/><line class="cls-1" x1="162.1" y1="29.3" x2="162.1" y2="270.7"/><line class="cls-1" x1="150" y1="29.3" x2="150" y2="270.7"/><line class="cls-1" x1="137.9" y1="29.3" x2="137.9" y2="270.7"/><line class="cls-1" x1="125.8" y1="29.3" x2="125.8" y2="270.7"/><line class="cls-1" x1="113.8" y1="29.3" x2="113.8" y2="270.7"/><line class="cls-1" x1="101.7" y1="29.3" x2="101.7" y2="270.7"/><line class="cls-1" x1="89.6" y1="29.3" x2="89.6" y2="270.7"/><line class="cls-1" x1="77.5" y1="29.3" x2="77.5" y2="270.7"/><line class="cls-1" x1="65.5" y1="29.3" x2="65.5" y2="270.7"/><line class="cls-1" x1="53.4" y1="29.3" x2="53.4" y2="270.7"/><line class="cls-1" x1="41.4" y1="29.3" x2="41.4" y2="270.7"/><line class="cls-10" x1="23.9" y1="150" x2="276.1" y2="150"/><polygon class="cls-15" points="24.7 152.5 20.4 150 24.7 147.5 24.7 152.5"/><polygon class="cls-15" points="275.3 152.5 279.6 150 275.3 147.5 275.3 152.5"/><line class="cls-10" x1="150" y1="23.9" x2="150" y2="276.1"/><polygon class="cls-15" points="147.5 24.7 150 20.4 152.5 24.7 147.5 24.7"/><polygon class="cls-15" points="147.5 275.3 150 279.6 152.5 275.3 147.5 275.3"/></g><g id="Lines"><polygon class="cls-16" points="240.9 61.8 243.8 45 228 51.4 232.6 55.1 63.7 266.1 59.1 262.4 56.2 279.3 72 272.8 67.4 269.1 236.3 58.1 240.9 61.8"/></g><g id="USA"><path class="cls-6" d="M160.4,145.4c-3.2-3.5-3.3-5.9-3.3-5.9l-14.8-8.7-12.6-11.8,5.8-5.6s9.5,8.9,10.2,11.3c0,0,2.6-1.1,13.9,11.4,0,0,2.3-.7,3.8.3,1.4.9,3.6,0,4.2-.3,0,0,.6,1.1,0,1.5-.6.5-1.8,1.8-4.4,1.4l2,.5-4.6,5.8Z"/><path class="cls-3" d="M87.2,207s5.1,1.4,6.1,1.3c1-.1,1.6-1.8,4-1.6,2.4.2,6.7,2.4,2.4,8.8,0,0-.6,1.4-2.7,1.6-2.2.2-13,1.1-17.4-2.8,0,0-.7-8.2,3.9-7.9l3.8.7Z"/><path class="cls-6" d="M106.4,165.8l-4.4,18.2s-11.5,19.5-12.6,23.8c0,0,.5-1,1.4,0,0,0-.5,2.7-5.1,1.8-4.7-.9-3-3.1-3-3.1,0,0,2.3-3.8,2.6-5.9.3-2.2,1.9-15.6,7.1-19.1l.7-18.8s10.5-3.8,13.4,3.1Z"/><path class="cls-3" d="M120.9,176.6s3-.3,4-.6c1-.2,3.3-3.6,4.2-3.8.9-.1,6.7,1.3,3.8,8.6,0,0-2.4,3.5-7.2,4.3,0,0-4.1,3.8-5.3,4-1.3.2-6.5.8-6.6-3.2-.1-4,.3-4.9,3.3-7.3,3-2.4,3.9-2.2,3.9-2.2Z"/><path class="cls-6" d="M119.4,142l10.8,1.7-3.5,11.7s-10.4,2.4-11.7.9c-1.4-1.5,4.4-14.3,4.4-14.3Z"/><path class="cls-6" d="M120.7,142.3c1.1.5,11.7-.8,13.9,1.9,2.2,2.7,2.7,2.6-1.9,11.5-4.7,8.9-10.4,20.9-10.4,20.9,0,0,1.4,2.3-.2,3.4-1.6,1.1-7,2.8-6.5-.3.1-.7,3.2-9.7,3.5-12.3.3-2.6.6-14.2,8-17.7"/><path class="cls-5" d="M112.5,140.2s6,.9,10.7,1.3c0,0-5.8,6.1-6.1,16l-9.9.5s-.9-15.5,5.3-17.7Z"/><path class="cls-12" d="M118.4,149.1s-5-1.2-10.2,4.3"/><path class="cls-12" d="M113.3,141.1s-3.4,5.2-3.6,9.4"/><path class="cls-5" d="M92.9,143l-4.7,19.3s4,3.6,8.9,4.7c4.9,1,9.9-.1,9.9-.1,0,0,3.5-27.8,5.3-29l-19.5,5.1Z"/><path class="cls-7" d="M100.5,143.5s-4.1,20.5-3.4,23.4h1.9s-1.5-2.7,3.2-23.6h-1.7Z"/><path class="cls-12" d="M108.1,141s-1.8,11.7-7.5,10.7"/><path class="cls-6" d="M169.9,140.2s-3.7.3-4.8,1c-1.1.8-4.4,3.2-2.3,6.3,0,0,2.4.6,4.6-1.7,2.2-2.3,3.6-5.3,2.4-5.6Z"/><path class="cls-8" d="M99.9,107.7s-6.3,30-10.4,34.8c0,0,1.7,5.1,4.6,4.8,2.9-.3,21.5-8.7,24.1-6.7,0,0,2.9-29.9,4.9-32.4v.3s-1.1,4.2-1.1,4.2l7.2,7.5s4.6-1.2,7.8-6.9l-7-10.5s-3.3-4.2-11.7-3.4l-12.8-3.8-5.6,12.3Z"/><path class="cls-6" d="M112.2,113.4l6.9,10.8s2.7,1,4.1,1.9c1.4.9,9.8,7.9,10.6,8.2.8.3,3-2,5.1-1.2,2.2.8,3.2,2.6,3.2,2.6,0,0,.5,1.4-3.4-.2,0,0,7.4,3,4.4,6.8-3,3.9-10.2-3.1-10.2-3.1l-16.2-7.4-11.8-14.8s2-6.1,7.3-3.6Z"/><path class="cls-6" d="M120,97.1s.5,4.6,1.4,5.2c.9.7-6.6,9.1-15.5-6.8-11.6-20.9,7.3-6.8,7.3-6.8l6.8,8.4Z"/><path class="cls-8" d="M105.4,97.2s-7.9,5.5-6.7,9.6c1.2,4.1,7,13,7,13,0,0,0-.7,2.6-3.1,2.6-2.4,5.8-2,5.8-2l-5.5-10.1"/><path class="cls-9" d="M108.1,95.8s3.9,9.7,9.6,9.2c5.6-.5,2.2-3.8,3.1-3.9l-.5-1.7,2,1.9s1.2,6.1-5.1,4.9c-6.3-1.2-10.6-9-10.6-9l1.5-1.4Z"/><path class="cls-4" d="M134.2,73.9s-5.1,10.4-1.6,24.8c0,0-7.1,1.6-19.4-2.2,0,0-20.5-13.7-4.6-32.2,0,0,17.7-1.9,25.6,9.6Z"/><path class="cls-6" d="M107.7,94.2s5.4,5,9,5,12.7-5.5,12.9-11.7c.2-6,0-5.4,0-5.4,0,0,1.4-5.3,1.1-6.6-.3-1.3-.9-9.2-6.9-9.8-5.9-.7-13.3-5.3-17.1,8.2-3.8,13.5,1.1,20.4.9,20.4Z"/><path class="cls-4" d="M137.5,79.3s-7.3-29.7-20.5-19.8c0,0-7.8-6.9-16.4,4.9-11,14.9-4.5,31.8-2.3,34.7,0,0,9.4.8,11.1-1.5,0,0-6.6-10-2.6-23.7h7.8c0,.1,2-4.2.5-7.1,0,0,2.7,3.1,2.2,7.4,0,0,9.1-.3,15.8,2.4,1.7.7,3.3,1.6,4.5,2.8Z"/><path class="cls-14" d="M107.6,63.1s-4.7,4-4,10.6h3.5"/><path class="cls-2" d="M125.1,83.3c-.7,0-1.2-.9-1.2-2.1s.5-2.1,1.2-2.1,1.2.9,1.2,2.1-.5,2.1-1.2,2.1"/><path class="cls-2" d="M112.2,83.5c-.7,0-1.2-.9-1.2-2.1s.5-2.1,1.2-2.1,1.2.9,1.2,2.1-.5,2.1-1.2,2.1"/><path class="cls-14" d="M127.2,77.6s-.9-2-2.3-.5"/><path class="cls-14" d="M113.3,77.3s-1.3-2-2.7.3"/><path class="cls-13" d="M124.5,90.8s-1.5,1.1-12.3-.7c-1.7-.3,4.7,10.6,12.3.7Z"/><path class="cls-17" d="M113,87.2c0,1.3-1.3,2.3-3,2.3s-3-1-3-2.3,1.3-2.3,3-2.3,3,1,3,2.3Z"/><path class="cls-17" d="M128.2,87.1c0,1.3-1.3,2.3-3,2.3s-3-1-3-2.3,1.3-2.3,3-2.3,3,1,3,2.3Z"/><path class="cls-11" d="M118.9,84.6s.6.9,1.3.9c0,0-.2.9-1.3,1.5"/></g></svg>