<?xml version="1.0" encoding="UTF-8"?><svg xmlns="http://www.w3.org/2000/svg" width="300" height="300" viewBox="0 0 300 300"><defs><style>.cls-1{fill:#474747;}.cls-1,.cls-2,.cls-3,.cls-4,.cls-5,.cls-6,.cls-7,.cls-8,.cls-9,.cls-10,.cls-11{stroke-linecap:round;stroke-linejoin:round;stroke-width:.5px;}.cls-1,.cls-2,.cls-3,.cls-4,.cls-5,.cls-6,.cls-7,.cls-8,.cls-9,.cls-10,.cls-11,.cls-12{stroke:#000;}.cls-2{fill:#2c2e2b;}.cls-3{fill:#51667b;}.cls-13{stroke:#58595b;stroke-width:.2px;}.cls-13,.cls-8{fill:#fff;}.cls-13,.cls-12{stroke-miterlimit:10;}.cls-4{fill:#42291a;}.cls-5{fill:#ab242f;}.cls-6{fill:#bf8b6d;}.cls-7{fill:#73725e;}.cls-9{fill:#fbfefb;}.cls-10,.cls-12{fill:none;}.cls-14,.cls-15{stroke-width:0px;}.cls-15{fill:#27b04b;}</style></defs><g id="Grid"><rect class="cls-13" x="29.3" y="29.3" width="241.5" height="241.5"/><line class="cls-13" x1="29.3" y1="258.6" x2="270.7" y2="258.6"/><line class="cls-13" x1="29.3" y1="246.6" x2="270.7" y2="246.6"/><line class="cls-13" x1="29.3" y1="234.5" x2="270.7" y2="234.5"/><line class="cls-13" x1="29.3" y1="222.5" x2="270.7" y2="222.5"/><line class="cls-13" x1="29.3" y1="210.4" x2="270.7" y2="210.4"/><line class="cls-13" x1="29.3" y1="198.3" x2="270.7" y2="198.3"/><line class="cls-13" x1="29.3" y1="186.2" x2="270.7" y2="186.2"/><line class="cls-13" x1="29.3" y1="174.2" x2="270.7" y2="174.2"/><line class="cls-13" x1="29.3" y1="162.1" x2="270.7" y2="162.1"/><line class="cls-13" x1="29.3" y1="150" x2="270.7" y2="150"/><line class="cls-13" x1="29.3" y1="137.9" x2="270.7" y2="137.9"/><line class="cls-13" x1="29.3" y1="125.8" x2="270.7" y2="125.8"/><line class="cls-13" x1="29.3" y1="113.8" x2="270.7" y2="113.8"/><line class="cls-13" x1="29.3" y1="101.7" x2="270.7" y2="101.7"/><line class="cls-13" x1="29.3" y1="89.6" x2="270.7" y2="89.6"/><line class="cls-13" x1="29.3" y1="77.5" x2="270.7" y2="77.5"/><line class="cls-13" x1="29.3" y1="65.5" x2="270.7" y2="65.5"/><line class="cls-13" x1="29.3" y1="53.4" x2="270.7" y2="53.4"/><line class="cls-13" x1="29.3" y1="41.4" x2="270.7" y2="41.4"/><line class="cls-13" x1="258.6" y1="29.3" x2="258.6" y2="270.7"/><line class="cls-13" x1="246.6" y1="29.3" x2="246.6" y2="270.7"/><line class="cls-13" x1="234.5" y1="29.3" x2="234.5" y2="270.7"/><line class="cls-13" x1="222.5" y1="29.3" x2="222.5" y2="270.7"/><line class="cls-13" x1="210.4" y1="29.3" x2="210.4" y2="270.7"/><line class="cls-13" x1="198.3" y1="29.3" x2="198.3" y2="270.7"/><line class="cls-13" x1="186.2" y1="29.3" x2="186.2" y2="270.7"/><line class="cls-13" x1="174.2" y1="29.3" x2="174.2" y2="270.7"/><line class="cls-13" x1="162.1" y1="29.3" x2="162.1" y2="270.7"/><line class="cls-13" x1="150" y1="29.3" x2="150" y2="270.7"/><line class="cls-13" x1="137.9" y1="29.3" x2="137.9" y2="270.7"/><line class="cls-13" x1="125.8" y1="29.3" x2="125.8" y2="270.7"/><line class="cls-13" x1="113.8" y1="29.3" x2="113.8" y2="270.7"/><line class="cls-13" x1="101.7" y1="29.3" x2="101.7" y2="270.7"/><line class="cls-13" x1="89.6" y1="29.3" x2="89.6" y2="270.7"/><line class="cls-13" x1="77.5" y1="29.3" x2="77.5" y2="270.7"/><line class="cls-13" x1="65.5" y1="29.3" x2="65.5" y2="270.7"/><line class="cls-13" x1="53.4" y1="29.3" x2="53.4" y2="270.7"/><line class="cls-13" x1="41.4" y1="29.3" x2="41.4" y2="270.7"/><line class="cls-12" x1="23.9" y1="150" x2="276.1" y2="150"/><polygon class="cls-14" points="24.7 152.5 20.4 150 24.7 147.5 24.7 152.5"/><polygon class="cls-14" points="275.3 152.5 279.6 150 275.3 147.5 275.3 152.5"/><line class="cls-12" x1="150" y1="23.9" x2="150" y2="276.1"/><polygon class="cls-14" points="147.5 24.7 150 20.4 152.5 24.7 147.5 24.7"/><polygon class="cls-14" points="147.5 275.3 150 279.6 152.5 275.3 147.5 275.3"/></g><g id="Lines"><polygon class="cls-15" points="281.1 152.4 292.8 139.9 276 136.6 277.8 142.2 20.7 225.4 18.9 219.8 7.2 232.3 24 235.6 22.2 230 279.3 146.8 281.1 152.4"/></g><g id="Latin"><path class="cls-6" d="M100.9,132c-.3.8-3.1,2.4-3.9,2.1-1.1-.5-4.3-.4-4.5-1.5-.6-3.6-.5-5-1.1-8.6-1.1-2-2.1-4.5-3-7.1-1.1-3-2.1-6-3-8.5-1.6-4.4-2.4-5-2.4-8.6s1.3-6.9,2.3-8.7c2.7,2.2,5.6,3.5,9.1,3.6h0c-.7,1.5-1.1,2.8-1.6,4.3-.1.4-.2.8-.4,1.2.7,2.3,1,4.2,1.1,5.8.2,2.1.1,4,.4,6.2.3,2.4,1,5.2,2.8,9.2,3.7,3.8,5.9,5.7,4,10.6Z"/><path class="cls-9" d="M100.3,83.4c0,.3-.2.6-.3.9h0c-4.4.4-9-1.2-12.2-4.2.5-1,1-2.1,1.7-3.4.3-.5.6-1.2,1-1.9h.2c2.3,2.5,5.8,3.7,9.1,3.3.1,0,.2,0,.3,0,0,0,.1,0,.2,0h.2c.3,1.7.2,3.5-.2,5.3Z"/><path class="cls-5" d="M114.3,77.8h-.2c-.7-.6-1.5-1.3-2.4-1.9-2.5-1.8-5.5-3.4-8.1-3.9-2.9-.5-6.5-.9-9.1-2.3,0,0-1.1-2.2,2.1-2.3.4,0,.9,0,1.4,0,4.8,0,8.8,1.2,12.4,4.1.4.3.8.7,1.2,1.1,1.2,1.1,2,3,2.7,5.1Z"/><path class="cls-5" d="M100.5,78h0s-.2,0-.2,0h0c0,0-.1,0-.2,0-.1,0-.2,0-.3,0-3.3.4-6.7-.9-9.1-3.2h-.2c.5-1.1,1.2-2.2,2-3.2,3.8-.9,6.5,1.4,7.6,4.8.2.5.3,1,.4,1.5Z"/><path class="cls-9" d="M115.5,83.5c-4.6,1.5-10.5,1-15.2-.1.4-1.8.5-3.7.2-5.4h0c0-.5-.2-1-.4-1.5,3.5,0,8.2.3,11.5-.7.9.6,1.7,1.3,2.4,2h.2c.6,1.8,1,3.9,1.3,5.7Z"/><path class="cls-7" d="M100,84.3c-.2.6-.4,1.1-.7,1.7-.6,1.2-1.1,2.4-1.7,3.7-4.3,0-8.6-1.8-11.7-4.7h0c.5-1.5,1-3,1.8-4.8,3.3,3,7.8,4.6,12.2,4.2h0Z"/><path class="cls-7" d="M116.3,91.7c-6.1,2.1-13,1.1-19.3-.3.3-.6.5-1.2.8-1.7.5-1.2,1.1-2.5,1.7-3.7.3-.6.5-1.1.7-1.7,0-.3.2-.6.3-.9,4.7,1.2,10.7,1.7,15.2.1.3,1.7.4,3.2.5,4.2.1,1.5.2,2.8.3,4Z"/><path class="cls-5" d="M116.2,99.5c-7.6,1.5-15.5,1.3-23.1-.5h-.3c.4-1.6.8-2.9,1.6-4.4h0c.3,0,.7,0,1,0h0c.5-1.1,1-2.2,1.4-3.2,6.4,1.3,13.2,2.4,19.3.3.2,3.4.1,5.7,0,7.8Z"/><path class="cls-9" d="M116.2,99.5c-.1,1.1-.2,2.2-.4,3.4h0c-.1,1.2-.3,2.5-.4,4.1-7.2,1.2-14.7.8-21.8-1-.1-1.7-.4-3.5-1.1-5.8.1-.4.2-.8.4-1.2h.3c7.5,1.9,15.4,2,23.1.6Z"/><path class="cls-8" d="M122.8,151.2s0,0,0,0"/><line class="cls-8" x1="114.8" y1="118.5" x2="114.7" y2="118.5"/><path class="cls-8" d="M92.6,196.8c0,.2,0,.4-.1.5"/><path class="cls-5" d="M115,113.5c0,1.5-.1,3.1-.2,5h0c0,.1,0,.3,0,.4-3.1,2.9-12.3,4.6-17.9,2.5-1.8-4-2.5-6.8-2.8-9.2,6.7,1.9,13.7,2.4,20.6,1.4.1,0,.2,0,.3,0Z"/><path class="cls-3" d="M136,146.6c-1.5,15.5.2,14.4-3.7,34.5-4.2,1.2-6.8,4.8-10.8,6-.4.1-.9.2-1.4.3.9-14.6.4-23.8,2.4-36.1h.2c-4.8-6.1-10.9-7.3-16.9-14.7-.9,7.2-1.1,14.7-2.8,20.7-6,14.2-7.2,27.7-10.4,39.4-3.4,0-7.5-.1-8.4-.4-2.8.2-3.6.3-6.9.9,3.2-6.5,2.1-26.5,9.8-41.6,1.5-13.3-2.1-28.6,1.3-38.8.9,2.6,2,5.1,3,7.1.6,3.6.5,5,1.1,8.6.2,1.2,3.4,1.1,4.5,1.5.8.3,3.6-1.3,3.9-2.1,1.8-4.9-.3-6.8-4-10.6,5.5,2.1,14.7.4,17.9-2.5,0-.1,0-.3,0-.4,3,4,5.8,7,8.4,9.8,4.8,5.1,8.9,9.7,12.8,18.3Z"/><path class="cls-7" d="M115.4,107c-.2,1.8-.3,3.8-.5,6.5h0c-.1,0-.2,0-.3,0-6.8,1-13.9.5-20.6-1.4-.3-2.2-.2-4-.4-6.2,7.1,1.8,14.6,2.2,21.8,1Z"/><path class="cls-6" d="M123.2,128.3c-2.6-2.8-5.4-5.8-8.4-9.8h0c0-1.9.1-3.5.2-5h0c.1-2.6.3-4.7.5-6.5.1-1.6.3-2.9.4-4.1.4,4-1.4,5.4,6.2,17.8,4.8,5.1,2.3,7.7,1.1,7.6Z"/><path class="cls-8" d="M123.2,128.3c-.2,0-.3-.1-.4-.2"/><path class="cls-1" d="M98.3,201c-.2.8-10.5,4.4-11.2,4.8-3.6,2-5.7,2.6-8.7,1.6-1-.3-2.1-.8-2.5-1.8-.2-.6-.2-1.2,0-1.8.3-2,.5-4.7,1.4-6.5,3.3-.6,4-.7,6.9-.9.9.3,5,.3,8.4.4,2.2,0,4.1.1,4.5.3,1.1.5,1.5,2.7,1.1,3.9Z"/><path class="cls-1" d="M140.1,186.2c-1.9,2.2-15.4,7.3-16.7,7-1.2-.3-2.5-5-1.9-6.1h0c4-1.2,6.6-4.9,10.8-6v.2c1.4.3,6-.5,6.9.4.9.9,1.5,3.4.9,4.5Z"/><path class="cls-6" d="M122.2,54.2c-.4-.9-1.5-2.3-2.3-3.4,1.4-5.6,1.2-6.7.4-8.5-2.6.1-7.4.3-12.8,4.8-.5.4-2.7,2.5-2.9,1.8-1.3-.9-3.2-.2-4,1.3-.4.7-.5,1.5-.4,2.3,0,.9.4,1.9,1,2.6.3.4.6.7,1,1h0c-.7,2.5-3.2,3.4-5.6,4.4h0c.5.9.8,1.8.6,3-.1.5-.4,3.2-.5,3.8h0c.4,0,.9,0,1.4.1,4.8,0,8.8,1.2,12.4,4.1,0-1,0-4.7,0-5.5.9.2,1.9.5,3.1.9,3.5.8,4.4.8,5.5-5,0,.2-1.7,1-4.2-3,1.2.6,3.1,1.2,4.5,1.2.3-.2.3-1.4.4-2.2h0c1,0,2.4-.6,2.8-1.3.5-.8.3-1.6-.1-2.5ZM117,53.9c-.3,0-.5-.8-.5-1.9s.2-1.9.5-1.9.5.8.5,1.9-.2,1.9-.5,1.9ZM119.4,48.3c-.5.4-1.6.4-2.5.3-1.2-.1-1.7-.1-2.7-.5.9-1.2,2.1-1.9,4.1-1.5,0,0,.2,0,.2.1.4.2.7.4,1,.6.3.3.3.7,0,.9Z"/><path class="cls-4" d="M119.4,48.3c-.5.4-1.6.4-2.5.3-1.2-.1-1.7-.1-2.7-.5.9-1.2,2.1-1.9,4.1-1.5-.4,0,0,0,.2.1.4.2.7.4,1,.6.3.3.3.7,0,.9Z"/><path class="cls-10" d="M110.4,71.5c0,0,0,.1,0,.2"/><path class="cls-2" d="M122,42.1c-.3.2-.9.2-1.8.3-2.6.1-7.4.3-12.8,4.8-.5.4-2.7,2.5-2.9,1.8-1.3-.9-3.2-.2-4,1.3-.4.7-.5,1.5-.4,2.3-1.9,1-4.8,2.3-7.2,3.5h0c-2.4,1.9-7.3,4.1-10.3,4.3-.7,0-1.4,0-2-.3-.6-.3-1-1-1-1.6.1-.9.9-1.4,1.7-1.8,1.5-.9,6.7-2.7,7.5-4.3.6-1.3-1.1-5-1.1-6.7,0-3.5,5.1-10.1,7.8-12.4,3.8-3.1,10.5-3.3,15.3-2.8,4.8.5,12.1,7.2,11,11.6Z"/><path class="cls-10" d="M120.3,42.3c0,0,0-.2-.1-.3"/><path class="cls-10" d="M103.1,60.8c2.5,3.5,3.5,4.2,7.3,5.3"/><path class="cls-10" d="M105.2,57.3c-1.1,0-2.2-.5-3.1-1.2"/><path class="cls-10" d="M118.5,46.8s0,0,0,0"/><path class="cls-10" d="M119.6,57.9c-.3,0-.6,0-.8,0"/><path class="cls-4" d="M102.2,56.1h0c-.7,2.5-3.2,3.4-5.6,4.4h0c-.9-1.4-2.4-2.6-3.4-4.4h0c2.3-1.2,5.3-2.6,7.2-3.6,0,.9.4,1.9,1,2.6.3.4.6.7,1,1Z"/><path class="cls-11" d="M117.5,52c0,1-.2,1.9-.5,1.9s-.5-.8-.5-1.9.2-1.9.5-1.9.5.8.5,1.9Z"/><path class="cls-8" d="M119.2,60.2l-.3,1.8c0,.2-1.7,1-4.2-3,1.2.6,3.1,1.2,4.5,1.2Z"/><path class="cls-10" d="M104.4,51c-.8-.3-1.7,0-2.3.6s-.6,1.6-.3,2.3"/><path class="cls-10" d="M102.2,51.7c.9.5,1.6,1.3,2.1,2.2"/><path class="cls-10" d="M93,56.1c-.6.3-1.2.6-1.8.9"/><path class="cls-10" d="M100.3,52.6s0,0,0,0"/><path class="cls-5" d="M97.7,89.7c-.3.6-.5,1.2-.8,1.7-.5,1-.9,2.1-1.4,3.1h0c-.3,0-.7,0-1,0-3.5,0-6.4-1.4-9.1-3.6-.4-.3-.7-.6-1-.9.7-2.1,1.1-3.7,1.6-5.2h0c3.1,3,7.4,4.7,11.7,4.8Z"/><path class="cls-8" d="M95.6,94.6h-.1"/><path class="cls-8" d="M100,78.1h-.3"/><path class="cls-8" d="M87.7,80.1s0,0,0,0"/><path class="cls-8" d="M97.8,89.7h-.1"/><path class="cls-5" d="M111.6,75.8c-3.3,1-8,.8-11.5.7-1.1-3.4-3.8-5.7-7.6-4.8.6-.7,1.2-1.4,2-2,2.6,1.4,6.2,1.8,9.1,2.3,2.5.5,5.6,2.1,8.1,3.9Z"/><path class="cls-8" d="M100.1,76.5c0,0-.1,0-.2,0"/><path class="cls-8" d="M100.3,83.4s0,0,0,0"/><path class="cls-8" d="M96.9,91.4h0"/><path class="cls-8" d="M116.6,99.5c-.1,0-.2,0-.4,0"/><path class="cls-8" d="M115.6,107s-.1,0-.2,0"/><path class="cls-8" d="M93.7,106c0,0-.1,0-.2,0"/><path class="cls-8" d="M115.1,113.5s0,0-.1,0"/><path class="cls-8" d="M94.1,112.2s0,0,0,0"/><path class="cls-8" d="M106.8,130.5c-.4,2-.7,4-1,6.1"/><path class="cls-8" d="M105.9,136.6c0,0-.1-.1-.2-.2"/></g></svg>