<?xml version="1.0" encoding="UTF-8"?><svg xmlns="http://www.w3.org/2000/svg" width="300" height="300" viewBox="0 0 300 300"><defs><style>.cls-1{fill:#55b695;}.cls-1,.cls-2,.cls-3,.cls-4,.cls-5,.cls-6,.cls-7,.cls-8,.cls-9,.cls-10,.cls-11{stroke-linecap:round;stroke-linejoin:round;stroke-width:.5px;}.cls-1,.cls-2,.cls-3,.cls-4,.cls-5,.cls-7,.cls-8,.cls-9,.cls-11,.cls-12{stroke:#000;}.cls-2{fill:#748f9d;}.cls-13{stroke:#58595b;stroke-width:.2px;}.cls-13,.cls-8{fill:#fff;}.cls-13,.cls-12{stroke-miterlimit:10;}.cls-3{fill:#ad7153;}.cls-4{fill:#1d6352;}.cls-5{fill:#302c23;}.cls-6,.cls-7{fill:#88d3ba;}.cls-6,.cls-10{stroke:#231f20;}.cls-9,.cls-10,.cls-12{fill:none;}.cls-14,.cls-15{stroke-width:0px;}.cls-15{fill:#27b04b;}</style></defs><g id="Grid"><rect class="cls-13" x="29.3" y="29.3" width="241.5" height="241.5"/><line class="cls-13" x1="29.3" y1="258.6" x2="270.7" y2="258.6"/><line class="cls-13" x1="29.3" y1="246.6" x2="270.7" y2="246.6"/><line class="cls-13" x1="29.3" y1="234.5" x2="270.7" y2="234.5"/><line class="cls-13" x1="29.3" y1="222.5" x2="270.7" y2="222.5"/><line class="cls-13" x1="29.3" y1="210.4" x2="270.7" y2="210.4"/><line class="cls-13" x1="29.3" y1="198.3" x2="270.7" y2="198.3"/><line class="cls-13" x1="29.3" y1="186.2" x2="270.7" y2="186.2"/><line class="cls-13" x1="29.3" y1="174.2" x2="270.7" y2="174.2"/><line class="cls-13" x1="29.3" y1="162.1" x2="270.7" y2="162.1"/><line class="cls-13" x1="29.3" y1="150" x2="270.7" y2="150"/><line class="cls-13" x1="29.3" y1="137.9" x2="270.7" y2="137.9"/><line class="cls-13" x1="29.3" y1="125.8" x2="270.7" y2="125.8"/><line class="cls-13" x1="29.3" y1="113.8" x2="270.7" y2="113.8"/><line class="cls-13" x1="29.3" y1="101.7" x2="270.7" y2="101.7"/><line class="cls-13" x1="29.3" y1="89.6" x2="270.7" y2="89.6"/><line class="cls-13" x1="29.3" y1="77.5" x2="270.7" y2="77.5"/><line class="cls-13" x1="29.3" y1="65.5" x2="270.7" y2="65.5"/><line class="cls-13" x1="29.3" y1="53.4" x2="270.7" y2="53.4"/><line class="cls-13" x1="29.3" y1="41.4" x2="270.7" y2="41.4"/><line class="cls-13" x1="258.6" y1="29.3" x2="258.6" y2="270.7"/><line class="cls-13" x1="246.6" y1="29.3" x2="246.6" y2="270.7"/><line class="cls-13" x1="234.5" y1="29.3" x2="234.5" y2="270.7"/><line class="cls-13" x1="222.5" y1="29.3" x2="222.5" y2="270.7"/><line class="cls-13" x1="210.4" y1="29.3" x2="210.4" y2="270.7"/><line class="cls-13" x1="198.3" y1="29.3" x2="198.3" y2="270.7"/><line class="cls-13" x1="186.2" y1="29.3" x2="186.2" y2="270.7"/><line class="cls-13" x1="174.2" y1="29.3" x2="174.2" y2="270.7"/><line class="cls-13" x1="162.1" y1="29.3" x2="162.1" y2="270.7"/><line class="cls-13" x1="150" y1="29.3" x2="150" y2="270.7"/><line class="cls-13" x1="137.9" y1="29.3" x2="137.9" y2="270.7"/><line class="cls-13" x1="125.8" y1="29.3" x2="125.8" y2="270.7"/><line class="cls-13" x1="113.8" y1="29.3" x2="113.8" y2="270.7"/><line class="cls-13" x1="101.7" y1="29.3" x2="101.7" y2="270.7"/><line class="cls-13" x1="89.6" y1="29.3" x2="89.6" y2="270.7"/><line class="cls-13" x1="77.5" y1="29.3" x2="77.5" y2="270.7"/><line class="cls-13" x1="65.5" y1="29.3" x2="65.5" y2="270.7"/><line class="cls-13" x1="53.4" y1="29.3" x2="53.4" y2="270.7"/><line class="cls-13" x1="41.4" y1="29.3" x2="41.4" y2="270.7"/><line class="cls-12" x1="23.9" y1="150" x2="276.1" y2="150"/><polygon class="cls-14" points="24.7 152.5 20.4 150 24.7 147.5 24.7 152.5"/><polygon class="cls-14" points="275.3 152.5 279.6 150 275.3 147.5 275.3 152.5"/><line class="cls-12" x1="150" y1="23.9" x2="150" y2="276.1"/><polygon class="cls-14" points="147.5 24.7 150 20.4 152.5 24.7 147.5 24.7"/><polygon class="cls-14" points="147.5 275.3 150 279.6 152.5 275.3 147.5 275.3"/></g><g id="Lines"><polygon class="cls-15" points="300.1 54.9 285.1 46.6 285.1 52.5 14.9 52.5 14.9 46.6 0 54.9 14.9 63.2 14.9 57.4 285.1 57.4 285.1 63.2 300.1 54.9"/></g><g id="Latin"><path class="cls-5" d="M150.7,87.6c.1-1.2-.5-1.7-1.6-2.3.3-1.5.4-2.3.3-3.5h0c-5.2-6-5.2-9-10.6-9s-6,2.2-13.3,12.9c-.8-1-2.6-.5-3,.7,0,.2,0,.4,0,.7h-.4c0-3.1.9-7.3,1.1-8.9.6-4.5,2.4-10.6,13.5-10.9,1.2,0,2.4,0,3.5.2,6.9,1.2,10.7,6.4,11,12.3.1,2.4,0,3.2-.4,7.9Z"/><path class="cls-3" d="M149.1,85.3c.3-1.5.4-2.3.3-3.5h0c-5.2-6-5.2-9-10.6-9s-6,2.2-13.3,12.9c-.8-1-2.6-.5-3,.7,0,.2,0,.4,0,.7,0,.5.1,1.1.4,1.7.4,1,1,2,1.7,2.5,0,0,0,0,0,0,.6.5,1.2.7,1.7.3h.1c.6,1.6,1.3,2.6,1.9,3.6.9,1.4,1.9,2.6,2.8,3.6,4,4.5,7.6,4.8,10.7,2.7h0c0,0,.2-.1.2-.2,1.9-1.3,3.6-3.5,5.2-6.1.6-1,1-1.9,1.3-2.9,1.3-3.6.8-6.4.6-6.4,0-.2,0-.4.1-.6ZM130.2,82.8c0-.1,2.2-1.5,3.1-1.7.7-.2,2-.3,2.8,0,1.1.6,1.4,1.3.7,1.2-.7,0-1.6-.9-3.7-.6-1.2.2-2.8,1.1-2.9,1ZM132.8,86.9c0-1,.4-1.8.9-1.8s.9.8.9,1.8-.4,1.8-.9,1.8-.9-.8-.9-1.8ZM138.8,98.3c-1,0-2.5-.4-3.4-1.1-.9-.7-.9-.3-1.9-2.2.5.6,5.7,2.2,8.4,1.1-.7,1.3-1.5,2-3.1,2.2ZM144.9,88.4c-.4,0-.8-.7-.8-1.6s.3-1.5.8-1.5.8.7.8,1.5-.3,1.6-.8,1.6ZM145.7,81.8c-1.5-.4-2.4.5-2.9.5-.6,0-.2-.7.7-1.2.7-.4,1.7-.2,2.2,0,.7.2,2.2,1.7,2.1,1.8,0,0-1.2-.8-2.1-1Z"/><line class="cls-10" x1="122.8" y1="145.1" x2="122.7" y2="145.4"/><path class="cls-6" d="M156.2,178c-.1,1.1-1.2,1.9-2.8,2.5-4,1.5-11.2,2-15.3,2.1-.8,0-1.4,0-1.9,0-.5,0-1.4,0-2.5,0-4-.2-11-1-15.5-2.8-2.8-1.1-4.6-2.6-4.5-4.6,0,0,6.9-23.3,9.3-30.1.2-2.4.2-3.2.4-7.9.1-2.3-.2-2.5-.4-5.3,0-.8-.8-4.1-1.5-6.6h.2c8.5-6.1,27.5-4.3,30.3-1.5-.6,5.8-2.7,6.9-2.7,9.2-.1,4.8-.5,7.7,2,21,1.9,5.9,4.3,16.8,5,24Z"/><path class="cls-9" d="M125.1,235.1h0"/><path class="cls-9" d="M133.6,182.7h0"/><path class="cls-2" d="M133.6,182.7c-1.6,8.1-4,15.4-4.6,24.6-.4,5.5-1.9,11.9-2.9,18.1-3.2,1.1-4.9.4-8-1.1-.8-8.4-2-17.5-.5-24.3,1.4-6.5.5-12.4.5-20.1,4.6,1.9,11.5,2.6,15.5,2.8Z"/><path class="cls-3" d="M126.1,225.4c-.6,3.3-1,6.6-1,9.6h0c-.4.1-1.2,1.5-3,1.5-3,0-2.9-1.9-3.3-1.2,0-3.3-.3-7-.7-10.9,3,1.5,4.8,2.2,8,1.1Z"/><path class="cls-2" d="M153,224.6c-1.6,1.8-5.1,1.9-8.6.5-1-6.1-2.5-12.4-2.9-17.9-.6-9.2-1.8-16.5-3.5-24.6,4.2-.2,11.4-.6,15.3-2.1,0,7.7-.6,12.9.8,19.5,1.5,6.9-.1,16.2-1.2,24.7Z"/><path class="cls-3" d="M153,224.6c-.5,3.8-.9,7.5-.8,10.8-.3.2-1,1.2-3.3,1.3-2.2,0-3.1-1.6-3.5-1.5v-.2c0-3.1-.4-6.5-1-9.9,3.5,1.4,7,1.2,8.6-.5Z"/><line class="cls-9" x1="138" y1="182.6" x2="138" y2="182.6"/><line class="cls-9" x1="153.4" y1="180.5" x2="153.4" y2="180.5"/><path class="cls-9" d="M149.5,81.8c0-.3,0-.6,0-.9"/><path class="cls-9" d="M142.4,91.7c1.1,2.8-2.6,2.8-3.5,2.2"/><path class="cls-9" d="M126.3,91.5c-.1-.4-.3-.9-.4-1.4"/><path class="cls-3" d="M122.7,88.7c-2.9-.5-5.5.3-7.9,1.9-.6-2.1-1.4-4.7-1.4-6.8.2-7.5.6-15.8.6-25.9l-.2-.2c-.5-.8-.6-5.5-.8-6.4-.1-.9.2-2,1.2-2.5.6-.3,1.3-.4,2.1-.4,1.6,0,2.9-.4,4.2.4,1.1.6,1.9,1.7,2,2.9.1,1.1-1.2,5.9-2.1,6.7-1.2,11.4.4,14,.7,18.5h0c-1.7,6.6-1.6,12.5.9,10.4v-.3h.4c0,.5.1,1.1.4,1.7Z"/><path class="cls-7" d="M140.1,67.3h0c-1.1,0-2.3-.2-3.5-.1-11.2.3-12.9,6.4-13.5,10.9-.2,1.7-1.1,5.8-1.1,8.9v.3c-2.5,2.1-2.6-3.8-.9-10.4.5-2,1.2-4,2-5.9.4-1,.5-2.2,1.4-2.7.9-.5,2-.2,2.9-.8.5-.3.8-.8,1.2-1.2.3-.5.7-.9,1.3-1.1,2-.7,3.4.6,4.3,0,.4-.3.7-.6,1.1-.9.4-.3,1.5-.5,2-.5,1.1,0,3.2,2,3.2,3.5Z"/><path class="cls-3" d="M140.1,112.5c-2.5-.5-8.2-7.2-9.2-9,.5-1.7.4-2.9,0-4.7,4,4.5,7.6,4.8,10.7,2.7,0,.3-.9,2,.1,3.7.9,1.7,2.1,8.2-1.6,7.4Z"/><path class="cls-1" d="M152.1,121.1c0,1,0,1.9-.2,2.7-2.8-2.8-21.8-4.6-30.3,1.4h-.2c-.3-1-.7-1.9-.9-2.3v-.4c0-.6-.8-4.9-1.5-8.5,2.1.2,3.9-.8,5.2-2.5,1.9-2.5,2.9-5.5,3-7.6.1-2.2,2.5-3.3,3.7-5.1.4,1.8.5,2.9,0,4.7.9,1.9,6.7,8.5,9.2,9,3.8.8,2.6-5.7,1.6-7.4-1-1.6-.1-3.3-.1-3.7h.4c4.6,3,8.3,7.3,9.7,12.5.3,2.9.4,5.2.4,7.1Z"/><path class="cls-7" d="M130.9,98.8c-1.2,1.8-3.5,3-3.7,5.1-.2,2.2-1.1,5.1-3,7.6-1.3,1.7-3.1,2.7-5.2,2.5-.6-2.9-1.1-5.4-1.1-5-1.1-4.7-2.8-9.8-3.3-13.7h0c0-.8.4-1.6.9-2.2.7-.9,1.8-1.6,3-1.9,1.9-.5,3.9-.2,5.9,0,0,0,0,0,0,0,.6.5,1.2.7,1.7.3h.1c.6,1.6,1.3,2.6,1.9,3.6.9,1.4,1.9,2.6,2.8,3.6Z"/><path class="cls-9" d="M114.6,95.4c0,0,0-.2,0-.3"/><path class="cls-3" d="M158.5,88.8c-.2,1.5-.6,2.7-1.2,4.1-1.6-2.2-4.2-3.6-6.8-3.8h-.1c.2-.6.3-1.2.3-1.6,1.5-6,3.6-24.6,3.7-28.2-1.4-.8-3.8-7.6-2.8-8.7,1-1.2,2.8-1.6,4.5-1.5,1.2.1,2.3.5,3,1.3.9,1.2,1,6.3.2,7.5,1.2,11.9,1.4,16.1-.8,30.8Z"/><path class="cls-9" d="M124.6,91.3c0,0-.1,0-.2,0"/><path class="cls-3" d="M150.7,87.6c0,.4-.2,1-.3,1.6-.2.7-.5,1.5-.8,2.1-.3.6-.7,1-1.1,1.2h-.1c1.3-3.6.8-6.4.6-6.5,0-.2,0-.4.1-.6,1.1.6,1.7,1,1.6,2.3Z"/><path class="cls-11" d="M145.7,86.9c0,.9-.3,1.6-.8,1.6s-.8-.7-.8-1.6.3-1.5.8-1.5.8.7.8,1.5Z"/><path class="cls-11" d="M134.7,86.9c0,1-.4,1.8-.9,1.8s-.9-.8-.9-1.8.4-1.8.9-1.8.9.8.9,1.8Z"/><path class="cls-8" d="M141.9,96.1c-.7,1.3-1.5,2-3.1,2.2-1,0-2.5-.4-3.4-1.1-.9-.7-.9-.3-1.9-2.2.5.6,5.7,2.2,8.4,1.1Z"/><path class="cls-5" d="M136.8,82.3c-.7,0-1.6-.9-3.7-.6-1.2.2-2.8,1.1-2.9,1,0-.1,2.2-1.5,3.1-1.7.7-.2,2-.3,2.8,0,1.1.6,1.4,1.3.7,1.2Z"/><path class="cls-5" d="M147.8,82.8c0,0-1.2-.8-2.1-1-1.5-.4-2.4.5-2.9.5-.6,0-.2-.7.7-1.2.7-.4,1.7-.2,2.2,0,.7.2,2.2,1.7,2.1,1.8Z"/><path class="cls-1" d="M124.4,91.2c-2-.3-4-.6-5.9,0-1.2.3-2.3,1-3,1.9-.1-.7-.4-1.5-.7-2.5,2.4-1.6,5-2.4,7.9-1.9.4,1,1,2,1.7,2.5Z"/><path class="cls-1" d="M157.4,93c-.3.9-.7,1.8-1,2.9-1-2.6-3.7-4.6-6.6-4.6h-.2c.3-.7.6-1.5.8-2.2h.1c2.7.2,5.3,1.6,6.8,3.8Z"/><path class="cls-7" d="M156.7,96.8h0s0,0,0,0c-.7,2.2-1.5,4.6-2.3,7.1-2.1,8-1.9,15.5-2.1,17.2h-.1c0-1.9,0-4.3-.4-7.1-1.4-5.2-5.1-9.5-9.7-12.5h-.4c0,0,.2-.1.2-.2,1.9-1.3,3.6-3.5,5.2-6.1.6-1,1-1.9,1.3-2.9h.1c.4,0,.8-.5,1.1-1.1h.2c2.8,0,5.6,2,6.6,4.7.1.3.2.6.3.9Z"/><path class="cls-9" d="M156.7,96.9s0,0,0,0"/><path class="cls-9" d="M114.8,90.6s0,0,0,0"/><path class="cls-9" d="M157.4,93s0,0,0,0"/><path class="cls-4" d="M126.9,249.8c-.9,4.6-6.8,5.2-10.4,1.9-1-.9.5-10,.7-11.2.2-1.3,1-4.2,1.5-5.3.4-.8.3,1.1,3.3,1.2,1.9,0,2.6-1.3,3-1.5h0c0,0,.2,0,.2.1.5,1,1.8,13.5,1.6,14.7Z"/><path class="cls-4" d="M155.1,252.1c-4,3.3-10.5,2.8-11.5-1.9-.3-1.2,1.2-13.7,1.8-14.8,0,0,0-.1.1-.1.4-.2,1.2,1.5,3.5,1.5,2.4,0,3-1,3.3-1.3.1-.1.2-.1.3.1.6,1.1,1.4,3.9,1.7,5.3.2,1.2,1.9,10.3.8,11.2Z"/></g></svg>